<?xml version="1.0" encoding="UTF-8"?>
<!DOCTYPE svg PUBLIC "-//W3C//DTD SVG 1.1//EN" "http://www.w3.org/Graphics/SVG/1.1/DTD/svg11.dtd">
<!-- Creator: CorelDRAW 2020 (64-Bit Evaluation Version) -->
<svg xmlns="http://www.w3.org/2000/svg" xml:space="preserve" width="10833px" height="10833px" version="1.1" style="shape-rendering:geometricPrecision; text-rendering:geometricPrecision; image-rendering:optimizeQuality; fill-rule:evenodd; clip-rule:evenodd"
viewBox="0 0 644.6 644.6"
 xmlns:xlink="http://www.w3.org/1999/xlink"
 xmlns:xodm="http://www.corel.com/coreldraw/odm/2003">
 <defs>
  <style type="text/css">
   <![CDATA[
    .str0 {stroke:#363636;stroke-width:0.74;stroke-miterlimit:22.9256}
    .str2 {stroke:#363636;stroke-width:1.74;stroke-miterlimit:10}
    .str1 {stroke:#363636;stroke-width:1.6;stroke-linejoin:round;stroke-miterlimit:10}
    .fil4 {fill:none;fill-rule:nonzero}
    .fil20 {fill:#363636}
    .fil3 {fill:#89A865}
    .fil17 {fill:#9B6867}
    .fil2 {fill:#ACD176}
    .fil0 {fill:#C3E5FF}
    .fil22 {fill:#F9BB8A}
    .fil19 {fill:#FAF4E4}
    .fil23 {fill:#FD7E99}
    .fil18 {fill:#FFC2D1}
    .fil24 {fill:#FFCE89}
    .fil21 {fill:white}
    .fil28 {fill:#FEFEFE;fill-rule:nonzero}
    .fil26 {fill:black;fill-rule:nonzero}
    .fil25 {fill:#363636;fill-rule:nonzero}
    .fil15 {fill:#45807E;fill-rule:nonzero}
    .fil6 {fill:#553C2A;fill-rule:nonzero}
    .fil11 {fill:#6ABBB7;fill-rule:nonzero}
    .fil13 {fill:#713E2E;fill-rule:nonzero}
    .fil10 {fill:#89A865;fill-rule:nonzero}
    .fil1 {fill:#8ECDFF;fill-rule:nonzero}
    .fil29 {fill:#9B6867;fill-rule:nonzero}
    .fil5 {fill:#9F6A6D;fill-rule:nonzero}
    .fil12 {fill:#ACD076;fill-rule:nonzero}
    .fil9 {fill:#B2B6B6;fill-rule:nonzero}
    .fil16 {fill:#BEE1FD;fill-rule:nonzero}
    .fil8 {fill:#FE7D98;fill-rule:nonzero}
    .fil14 {fill:#FFC2D1;fill-rule:nonzero}
    .fil7 {fill:#FFCE89;fill-rule:nonzero}
    .fil27 {fill:#FFD186;fill-rule:nonzero}
   ]]>
  </style>
 </defs>
 <g id="Layer_x0020_1">
  <metadata id="CorelCorpID_0Corel-Layer"/>
  <rect class="fil0" width="644.6" height="644.6"/>
  <path class="fil1" d="M39.72 360.4c-0.58,-55.55 15.67,-112.98 38.8,-158.11 18.6,-36.31 46.55,-67.97 84.08,-89.17 40.21,-22.71 95.46,-24.43 140.3,-13.4 92.63,22.78 126.73,101.57 193.33,155.19 27.67,22.28 61.96,38.58 85.78,64.71 24.19,26.52 28.5,69.87 19.39,102.27 -14.17,50.45 -62.49,84.63 -113.27,103.48 -41.36,15.35 -86.2,21.16 -130.72,24.39 -49.44,3.58 -97.05,1.21 -146.07,-3.76 -44.44,-4.51 -84.94,-17.96 -117.21,-47.33 -40.85,-37.2 -53.87,-87.13 -54.41,-138.27zm528.16 -96.58c6.14,-5.48 18.47,-2.85 22.67,4.36 2.43,4.17 1.63,9.26 -1.92,12.32 -3.56,3.07 -9.66,3.92 -14.77,2.06 -4.27,-1.55 -7.68,-4.88 -8.84,-8.56 -1.14,-3.67 -0.04,-7.59 2.86,-10.18zm-501.93 213.91c0.55,3.41 0.75,7.27 -2.05,10.35 -12.41,13.66 -33.22,-17.43 -21.81,-29.32 8.67,-9.04 21.81,6.36 23.86,18.97zm386.41 -342.93c12.06,10.3 18.45,28.13 2.78,37.31 -5.94,3.48 -13.66,3.93 -20.4,2.01 -8.77,-2.48 -17.96,-9.23 -22.18,-16.73 -9.72,-17.26 4.05,-33.65 24.74,-30.13 5.24,0.89 10.55,3.69 15.06,7.54z"/>
  <ellipse class="fil2 str0" cx="322.3" cy="517.19" rx="270.62" ry="43.5"/>
  <ellipse class="fil3 str0" cx="322.3" cy="517.19" rx="199.44" ry="28.09"/>
  <g id="_2233141789248">
   <g>
    <g>
     <polygon class="fil4 str1" points="532.94,498.8 525.51,498.8 525.51,447.62 532.94,447.62 "/>
     <polygon id="1" class="fil5" points="532.94,498.8 525.51,498.8 525.51,447.62 532.94,447.62 "/>
    </g>
    <g>
     <polygon class="fil4 str1" points="416.21,498.8 408.78,498.8 408.78,447.62 416.21,447.62 "/>
     <polygon id="1" class="fil6" points="416.21,498.8 408.78,498.8 408.78,447.62 416.21,447.62 "/>
    </g>
    <g>
     <polygon class="fil4 str1" points="540.07,449.87 401.65,449.87 401.65,362.87 540.07,362.87 "/>
     <polygon id="1" class="fil5" points="540.07,449.87 401.65,449.87 401.65,362.87 540.07,362.87 "/>
    </g>
    <g>
     <polygon class="fil4 str1" points="540.07,362.87 401.65,362.87 401.65,350.8 540.07,350.8 "/>
     <polygon id="1" class="fil5" points="540.07,362.87 401.65,362.87 401.65,350.8 540.07,350.8 "/>
    </g>
    <g>
     <polygon class="fil4 str1" points="533.13,445.38 408.59,445.38 408.59,371.43 533.13,371.43 "/>
     <polygon id="1" class="fil7" points="533.13,445.38 408.59,445.38 408.59,371.43 533.13,371.43 "/>
    </g>
    <g>
     <polygon class="fil4 str1" points="533.13,409.5 408.59,409.5 408.59,405 533.13,405 "/>
     <polygon id="1" class="fil5" points="533.13,409.5 408.59,409.5 408.59,405 533.13,405 "/>
    </g>
    <g>
     <polygon class="fil4 str1" points="533.13,449.87 408.59,449.87 408.59,445.38 533.13,445.38 "/>
     <polygon id="1" class="fil5" points="533.13,449.87 408.59,449.87 408.59,445.38 533.13,445.38 "/>
    </g>
    <g>
     <path class="fil4 str1" d="M459.22 380.43l23.28 0c1.32,0 2.4,-1.08 2.4,-2.4 0,-1.32 -1.08,-2.4 -2.4,-2.4l-23.28 0c-1.32,0 -2.4,1.08 -2.4,2.4 0,1.32 1.08,2.4 2.4,2.4z"/>
     <path id="1" class="fil5" d="M459.22 380.43l23.28 0c1.32,0 2.4,-1.08 2.4,-2.4 0,-1.32 -1.08,-2.4 -2.4,-2.4l-23.28 0c-1.32,0 -2.4,1.08 -2.4,2.4 0,1.32 1.08,2.4 2.4,2.4z"/>
    </g>
    <g>
     <path class="fil4 str1" d="M482.5 378.03l-23.28 0c-0.88,0 -1.65,0.48 -2.07,1.2 -0.2,-0.36 -0.33,-0.76 -0.33,-1.2 0,-1.32 1.08,-2.4 2.4,-2.4l23.28 0c1.32,0 2.4,1.08 2.4,2.4 0,0.44 -0.12,0.84 -0.33,1.2 -0.42,-0.72 -1.19,-1.2 -2.07,-1.2z"/>
     <path id="1" class="fil5" d="M482.5 378.03l-23.28 0c-0.88,0 -1.65,0.48 -2.07,1.2 -0.2,-0.36 -0.33,-0.76 -0.33,-1.2 0,-1.32 1.08,-2.4 2.4,-2.4l23.28 0c1.32,0 2.4,1.08 2.4,2.4 0,0.44 -0.12,0.84 -0.33,1.2 -0.42,-0.72 -1.19,-1.2 -2.07,-1.2z"/>
    </g>
    <g>
     <path class="fil4 str1" d="M459.22 419.86l23.28 0c1.32,0 2.4,-1.08 2.4,-2.41 0,-1.32 -1.08,-2.4 -2.4,-2.4l-23.28 0c-1.32,0 -2.4,1.08 -2.4,2.4 0,1.33 1.08,2.41 2.4,2.41z"/>
     <path id="1" class="fil5" d="M459.22 419.86l23.28 0c1.32,0 2.4,-1.08 2.4,-2.41 0,-1.32 -1.08,-2.4 -2.4,-2.4l-23.28 0c-1.32,0 -2.4,1.08 -2.4,2.4 0,1.33 1.08,2.41 2.4,2.41z"/>
    </g>
    <g>
     <path class="fil4 str1" d="M482.5 417.45l-23.28 0c-0.88,0 -1.65,0.49 -2.07,1.21 -0.2,-0.36 -0.33,-0.77 -0.33,-1.21 0,-1.32 1.08,-2.4 2.4,-2.4l23.28 0c1.32,0 2.4,1.08 2.4,2.4 0,0.44 -0.12,0.85 -0.33,1.21 -0.42,-0.72 -1.19,-1.21 -2.07,-1.21z"/>
     <path id="1" class="fil5" d="M482.5 417.45l-23.28 0c-0.88,0 -1.65,0.49 -2.07,1.21 -0.2,-0.36 -0.33,-0.77 -0.33,-1.21 0,-1.32 1.08,-2.4 2.4,-2.4l23.28 0c1.32,0 2.4,1.08 2.4,2.4 0,0.44 -0.12,0.85 -0.33,1.21 -0.42,-0.72 -1.19,-1.21 -2.07,-1.21z"/>
    </g>
    <g>
     <path class="fil4 str1" d="M499.16 292.99c2.12,-8.28 -4.29,-12.1 -4.29,-12.1 0,0 11.4,-0.06 17.47,-0.09l0 -0.01c0.07,0 0.76,0 1.85,0.01 1.09,-0.01 1.79,-0.01 1.86,-0.01l0 0.01c6.07,0.03 17.47,0.09 17.47,0.09 0,0 -6.41,3.82 -4.29,12.1 2.12,8.27 11.17,11.4 9.4,32 -1.77,20.6 -14.09,28.88 -14.09,28.88l-0.05 0c0,0.33 -4.34,0.61 -9.68,0.61 -0.21,0 -0.41,0 -0.62,0 -0.2,0 -0.41,0 -0.61,0 -5.35,0 -9.68,-0.28 -9.68,-0.61l-0.06 0c0,0 -12.32,-8.28 -14.08,-28.88 -1.77,-20.6 7.28,-23.73 9.4,-32z"/>
     <path id="1" class="fil8" d="M499.16 292.99c2.12,-8.28 -4.29,-12.1 -4.29,-12.1 0,0 11.4,-0.06 17.47,-0.09l0 -0.01c0.07,0 0.76,0 1.85,0.01 1.09,-0.01 1.79,-0.01 1.86,-0.01l0 0.01c6.07,0.03 17.47,0.09 17.47,0.09 0,0 -6.41,3.82 -4.29,12.1 2.12,8.27 11.17,11.4 9.4,32 -1.77,20.6 -14.09,28.88 -14.09,28.88l-0.05 0c0,0.33 -4.34,0.61 -9.68,0.61 -0.21,0 -0.41,0 -0.62,0 -0.2,0 -0.41,0 -0.61,0 -5.35,0 -9.68,-0.28 -9.68,-0.61l-0.06 0c0,0 -12.32,-8.28 -14.08,-28.88 -1.77,-20.6 7.28,-23.73 9.4,-32z"/>
    </g>
    <g>
     <path class="fil4 str1" d="M494.81 280.79c0,0.68 8.66,1.22 19.35,1.22 10.69,0 19.36,-0.54 19.36,-1.22 0,-0.68 -8.67,-1.23 -19.36,-1.23 -10.69,0 -19.35,0.55 -19.35,1.23z"/>
     <path id="1" class="fil9" d="M494.81 280.79c0,0.68 8.66,1.22 19.35,1.22 10.69,0 19.36,-0.54 19.36,-1.22 0,-0.68 -8.67,-1.23 -19.36,-1.23 -10.69,0 -19.35,0.55 -19.35,1.23z"/>
    </g>
    <g>
     <path class="fil4 str1" d="M507.84 198.28c0.75,-0.73 1.3,-1.62 1.72,-2.58 0.1,-0.29 0.2,-0.57 0.29,-0.85 0.66,-2.08 0.78,-4.38 0.24,-6.54 -0.31,-1.22 -0.82,-2.36 -1.54,-3.41l-0.33 -0.04c-1.61,1.36 -2.52,3.53 -3.04,5.53 -0.57,2.15 -0.63,4.37 -0.18,6.58 0.25,0.87 0.62,1.7 1.11,2.47 0.64,-0.28 1.22,-0.67 1.73,-1.16z"/>
     <path id="1" class="fil10" d="M507.84 198.28c0.75,-0.73 1.3,-1.62 1.72,-2.58 0.1,-0.29 0.2,-0.57 0.29,-0.85 0.66,-2.08 0.78,-4.38 0.24,-6.54 -0.31,-1.22 -0.82,-2.36 -1.54,-3.41l-0.33 -0.04c-1.61,1.36 -2.52,3.53 -3.04,5.53 -0.57,2.15 -0.63,4.37 -0.18,6.58 0.25,0.87 0.62,1.7 1.11,2.47 0.64,-0.28 1.22,-0.67 1.73,-1.16z"/>
    </g>
    <g>
     <path class="fil4 str1" d="M510.78 206.13c0.76,-0.74 1.31,-1.63 1.73,-2.58 0.1,-0.28 0.2,-0.57 0.29,-0.85 0.66,-2.07 0.78,-4.38 0.24,-6.54 -0.31,-1.22 -0.82,-2.36 -1.54,-3.41l-0.33 -0.04c-1.61,1.36 -2.52,3.53 -3.04,5.52 -0.57,2.16 -0.63,4.37 -0.18,6.58 0.25,0.87 0.62,1.71 1.11,2.48 0.64,-0.28 1.22,-0.67 1.72,-1.16z"/>
     <path id="1" class="fil10" d="M510.78 206.13c0.76,-0.74 1.31,-1.63 1.73,-2.58 0.1,-0.28 0.2,-0.57 0.29,-0.85 0.66,-2.07 0.78,-4.38 0.24,-6.54 -0.31,-1.22 -0.82,-2.36 -1.54,-3.41l-0.33 -0.04c-1.61,1.36 -2.52,3.53 -3.04,5.52 -0.57,2.16 -0.63,4.37 -0.18,6.58 0.25,0.87 0.62,1.71 1.11,2.48 0.64,-0.28 1.22,-0.67 1.72,-1.16z"/>
    </g>
    <g>
     <path class="fil4 str1" d="M513.23 213.4c0.88,-0.57 1.6,-1.33 2.21,-2.18 0.15,-0.26 0.3,-0.52 0.44,-0.78 1.07,-1.9 1.64,-4.14 1.54,-6.36 -0.05,-1.26 -0.33,-2.48 -0.83,-3.65l-0.31 -0.1c-1.85,1.01 -3.17,2.95 -4.08,4.8 -0.99,2 -1.49,4.16 -1.49,6.42 0.08,0.9 0.27,1.8 0.6,2.64 0.68,-0.15 1.33,-0.41 1.92,-0.79z"/>
     <path id="1" class="fil10" d="M513.23 213.4c0.88,-0.57 1.6,-1.33 2.21,-2.18 0.15,-0.26 0.3,-0.52 0.44,-0.78 1.07,-1.9 1.64,-4.14 1.54,-6.36 -0.05,-1.26 -0.33,-2.48 -0.83,-3.65l-0.31 -0.1c-1.85,1.01 -3.17,2.95 -4.08,4.8 -0.99,2 -1.49,4.16 -1.49,6.42 0.08,0.9 0.27,1.8 0.6,2.64 0.68,-0.15 1.33,-0.41 1.92,-0.79z"/>
    </g>
    <g>
     <path class="fil4 str1" d="M514.96 220.62c0.96,-0.4 1.81,-1.03 2.56,-1.76 0.19,-0.23 0.38,-0.46 0.57,-0.68 1.39,-1.69 2.35,-3.78 2.64,-5.99 0.17,-1.25 0.11,-2.5 -0.17,-3.74l-0.29 -0.15c-2,0.66 -3.64,2.34 -4.87,4 -1.32,1.8 -2.2,3.83 -2.6,6.05 -0.08,0.9 -0.05,1.82 0.13,2.71 0.69,-0.03 1.38,-0.17 2.03,-0.44z"/>
     <path id="1" class="fil10" d="M514.96 220.62c0.96,-0.4 1.81,-1.03 2.56,-1.76 0.19,-0.23 0.38,-0.46 0.57,-0.68 1.39,-1.69 2.35,-3.78 2.64,-5.99 0.17,-1.25 0.11,-2.5 -0.17,-3.74l-0.29 -0.15c-2,0.66 -3.64,2.34 -4.87,4 -1.32,1.8 -2.2,3.83 -2.6,6.05 -0.08,0.9 -0.05,1.82 0.13,2.71 0.69,-0.03 1.38,-0.17 2.03,-0.44z"/>
    </g>
    <g>
     <path class="fil4 str1" d="M516.23 229.87c1.15,-0.45 2.15,-1.14 3.05,-1.95 0.23,-0.25 0.46,-0.51 0.69,-0.75 1.66,-1.87 2.82,-4.17 3.2,-6.58 0.22,-1.37 0.17,-2.74 -0.15,-4.1l-0.34 -0.16c-2.38,0.76 -4.34,2.61 -5.81,4.44 -1.59,1.99 -2.66,4.22 -3.16,6.65 -0.11,0.99 -0.08,1.99 0.11,2.97 0.82,-0.04 1.63,-0.21 2.41,-0.52z"/>
     <path id="1" class="fil10" d="M516.23 229.87c1.15,-0.45 2.15,-1.14 3.05,-1.95 0.23,-0.25 0.46,-0.51 0.69,-0.75 1.66,-1.87 2.82,-4.17 3.2,-6.58 0.22,-1.37 0.17,-2.74 -0.15,-4.1l-0.34 -0.16c-2.38,0.76 -4.34,2.61 -5.81,4.44 -1.59,1.99 -2.66,4.22 -3.16,6.65 -0.11,0.99 -0.08,1.99 0.11,2.97 0.82,-0.04 1.63,-0.21 2.41,-0.52z"/>
    </g>
    <g>
     <path class="fil4 str1" d="M516.95 237.66c1.12,-0.29 2.13,-0.84 3.05,-1.53 0.25,-0.22 0.5,-0.44 0.73,-0.66 1.77,-1.64 3.13,-3.78 3.78,-6.14 0.37,-1.33 0.49,-2.72 0.37,-4.11l-0.3 -0.21c-2.28,0.43 -4.32,2.01 -5.9,3.64 -1.71,1.77 -2.98,3.86 -3.74,6.22 -0.23,0.97 -0.33,1.98 -0.27,2.97 0.76,0.08 1.53,0.02 2.28,-0.18z"/>
     <path id="1" class="fil10" d="M516.95 237.66c1.12,-0.29 2.13,-0.84 3.05,-1.53 0.25,-0.22 0.5,-0.44 0.73,-0.66 1.77,-1.64 3.13,-3.78 3.78,-6.14 0.37,-1.33 0.49,-2.72 0.37,-4.11l-0.3 -0.21c-2.28,0.43 -4.32,2.01 -5.9,3.64 -1.71,1.77 -2.98,3.86 -3.74,6.22 -0.23,0.97 -0.33,1.98 -0.27,2.97 0.76,0.08 1.53,0.02 2.28,-0.18z"/>
    </g>
    <g>
     <path class="fil4 str1" d="M517.75 245.55c1.11,-0.3 2.13,-0.85 3.05,-1.54 0.25,-0.22 0.49,-0.44 0.73,-0.66 1.76,-1.63 3.13,-3.78 3.78,-6.14 0.36,-1.33 0.49,-2.71 0.37,-4.11l-0.3 -0.2c-2.28,0.42 -4.32,2.01 -5.91,3.64 -1.71,1.76 -2.97,3.85 -3.74,6.21 -0.22,0.98 -0.32,1.98 -0.27,2.98 0.77,0.08 1.54,0.02 2.29,-0.18z"/>
     <path id="1" class="fil10" d="M517.75 245.55c1.11,-0.3 2.13,-0.85 3.05,-1.54 0.25,-0.22 0.49,-0.44 0.73,-0.66 1.76,-1.63 3.13,-3.78 3.78,-6.14 0.36,-1.33 0.49,-2.71 0.37,-4.11l-0.3 -0.2c-2.28,0.42 -4.32,2.01 -5.91,3.64 -1.71,1.76 -2.97,3.85 -3.74,6.21 -0.22,0.98 -0.32,1.98 -0.27,2.98 0.77,0.08 1.54,0.02 2.29,-0.18z"/>
    </g>
    <g>
     <path class="fil4 str1" d="M517.3 253.82c1.14,-0.14 2.22,-0.55 3.24,-1.1 0.27,-0.18 0.54,-0.37 0.81,-0.55 1.97,-1.37 3.62,-3.31 4.59,-5.55 0.55,-1.28 0.87,-2.62 0.94,-4.02l-0.26 -0.25c-2.32,0.11 -4.56,1.39 -6.36,2.79 -1.94,1.5 -3.48,3.4 -4.57,5.63 -0.35,0.93 -0.59,1.91 -0.68,2.91 0.75,0.18 1.52,0.23 2.29,0.14z"/>
     <path id="1" class="fil11" d="M517.3 253.82c1.14,-0.14 2.22,-0.55 3.24,-1.1 0.27,-0.18 0.54,-0.37 0.81,-0.55 1.97,-1.37 3.62,-3.31 4.59,-5.55 0.55,-1.28 0.87,-2.62 0.94,-4.02l-0.26 -0.25c-2.32,0.11 -4.56,1.39 -6.36,2.79 -1.94,1.5 -3.48,3.4 -4.57,5.63 -0.35,0.93 -0.59,1.91 -0.68,2.91 0.75,0.18 1.52,0.23 2.29,0.14z"/>
    </g>
    <g>
     <path class="fil4 str1" d="M517.67 261.05c1.14,-0.14 2.22,-0.55 3.23,-1.1 0.28,-0.18 0.55,-0.37 0.82,-0.55 1.97,-1.37 3.62,-3.31 4.59,-5.55 0.55,-1.28 0.87,-2.63 0.94,-4.02l-0.26 -0.25c-2.32,0.11 -4.56,1.39 -6.36,2.78 -1.94,1.51 -3.48,3.41 -4.57,5.64 -0.36,0.93 -0.59,1.91 -0.68,2.91 0.75,0.18 1.52,0.23 2.29,0.14z"/>
     <path id="1" class="fil11" d="M517.67 261.05c1.14,-0.14 2.22,-0.55 3.23,-1.1 0.28,-0.18 0.55,-0.37 0.82,-0.55 1.97,-1.37 3.62,-3.31 4.59,-5.55 0.55,-1.28 0.87,-2.63 0.94,-4.02l-0.26 -0.25c-2.32,0.11 -4.56,1.39 -6.36,2.78 -1.94,1.51 -3.48,3.41 -4.57,5.64 -0.36,0.93 -0.59,1.91 -0.68,2.91 0.75,0.18 1.52,0.23 2.29,0.14z"/>
    </g>
    <g>
     <path class="fil4 str1" d="M516.52 271.09c1.19,-0.16 2.31,-0.61 3.36,-1.23 0.29,-0.2 0.58,-0.41 0.85,-0.62 2.06,-1.52 3.79,-3.66 4.81,-6.15 0.58,-1.4 0.92,-2.89 1.01,-4.43l-0.27 -0.27c-2.41,0.14 -4.74,1.57 -6.62,3.12 -2.02,1.68 -3.63,3.77 -4.78,6.24 -0.38,1.03 -0.63,2.11 -0.73,3.21 0.77,0.19 1.57,0.24 2.37,0.13z"/>
     <path id="1" class="fil11" d="M516.52 271.09c1.19,-0.16 2.31,-0.61 3.36,-1.23 0.29,-0.2 0.58,-0.41 0.85,-0.62 2.06,-1.52 3.79,-3.66 4.81,-6.15 0.58,-1.4 0.92,-2.89 1.01,-4.43l-0.27 -0.27c-2.41,0.14 -4.74,1.57 -6.62,3.12 -2.02,1.68 -3.63,3.77 -4.78,6.24 -0.38,1.03 -0.63,2.11 -0.73,3.21 0.77,0.19 1.57,0.24 2.37,0.13z"/>
    </g>
    <g>
     <path class="fil4 str1" d="M498.18 187.75c4.28,4.47 7.49,9.73 9.86,15.43 2.45,5.89 4.03,12.11 5.17,18.37 1.11,6.12 1.8,12.31 2.32,18.49 0.68,8.01 0.66,16.07 0.03,24.08 -0.48,5.98 -1.29,11.94 -2.45,17.84 -0.31,0.02 -0.61,0.05 -0.92,0.08 0.22,-1.07 0.43,-2.13 0.61,-3.2 0.7,-3.93 1.25,-7.88 1.65,-11.84 0.8,-7.96 0.99,-15.98 0.5,-23.96 -0.39,-6.34 -1.07,-12.69 -2.07,-18.96 -0.99,-6.25 -2.38,-12.46 -4.52,-18.42 -2.07,-5.76 -4.92,-11.39 -8.87,-16.11 -0.48,-0.57 -0.98,-1.11 -1.49,-1.65l0.18 -0.15z"/>
     <path id="1" class="fil10" d="M498.18 187.75c4.28,4.47 7.49,9.73 9.86,15.43 2.45,5.89 4.03,12.11 5.17,18.37 1.11,6.12 1.8,12.31 2.32,18.49 0.68,8.01 0.66,16.07 0.03,24.08 -0.48,5.98 -1.29,11.94 -2.45,17.84 -0.31,0.02 -0.61,0.05 -0.92,0.08 0.22,-1.07 0.43,-2.13 0.61,-3.2 0.7,-3.93 1.25,-7.88 1.65,-11.84 0.8,-7.96 0.99,-15.98 0.5,-23.96 -0.39,-6.34 -1.07,-12.69 -2.07,-18.96 -0.99,-6.25 -2.38,-12.46 -4.52,-18.42 -2.07,-5.76 -4.92,-11.39 -8.87,-16.11 -0.48,-0.57 -0.98,-1.11 -1.49,-1.65l0.18 -0.15z"/>
    </g>
    <g>
     <path class="fil4 str1" d="M511.95 269.51c-1.55,-0.22 -3.02,-0.81 -4.39,-1.58 -0.37,-0.25 -0.74,-0.5 -1.1,-0.76 -2.67,-1.89 -4.89,-4.51 -6.19,-7.52 -0.73,-1.71 -1.15,-3.51 -1.23,-5.36 -0.01,-0.22 0.14,-0.34 0.36,-0.32 3.15,0.23 6.19,2.02 8.62,3.94 2.62,2.07 4.69,4.63 6.15,7.63 0.47,1.24 0.79,2.55 0.89,3.88 -1.01,0.21 -2.06,0.24 -3.11,0.09z"/>
     <path id="1" class="fil10" d="M511.95 269.51c-1.55,-0.22 -3.02,-0.81 -4.39,-1.58 -0.37,-0.25 -0.74,-0.5 -1.1,-0.76 -2.67,-1.89 -4.89,-4.51 -6.19,-7.52 -0.73,-1.71 -1.15,-3.51 -1.23,-5.36 -0.01,-0.22 0.14,-0.34 0.36,-0.32 3.15,0.23 6.19,2.02 8.62,3.94 2.62,2.07 4.69,4.63 6.15,7.63 0.47,1.24 0.79,2.55 0.89,3.88 -1.01,0.21 -2.06,0.24 -3.11,0.09z"/>
    </g>
    <g>
     <path class="fil4 str1" d="M512.51 260.2c-1.57,0.03 -3.11,-0.31 -4.58,-0.86 -0.41,-0.19 -0.82,-0.38 -1.21,-0.58 -2.93,-1.44 -5.54,-3.68 -7.3,-6.45 -0.99,-1.57 -1.69,-3.28 -2.06,-5.1 -0.05,-0.21 0.09,-0.35 0.3,-0.37 3.15,-0.27 6.44,1.02 9.14,2.53 2.91,1.63 5.36,3.83 7.27,6.56 0.67,1.16 1.19,2.4 1.5,3.69 -0.97,0.36 -2,0.57 -3.06,0.58z"/>
     <path id="1" class="fil10" d="M512.51 260.2c-1.57,0.03 -3.11,-0.31 -4.58,-0.86 -0.41,-0.19 -0.82,-0.38 -1.21,-0.58 -2.93,-1.44 -5.54,-3.68 -7.3,-6.45 -0.99,-1.57 -1.69,-3.28 -2.06,-5.1 -0.05,-0.21 0.09,-0.35 0.3,-0.37 3.15,-0.27 6.44,1.02 9.14,2.53 2.91,1.63 5.36,3.83 7.27,6.56 0.67,1.16 1.19,2.4 1.5,3.69 -0.97,0.36 -2,0.57 -3.06,0.58z"/>
    </g>
    <g>
     <path class="fil4 str1" d="M512.95 251.24c-1.35,0.12 -2.69,-0.1 -3.97,-0.49 -0.36,-0.15 -0.72,-0.3 -1.06,-0.45 -2.58,-1.1 -4.91,-2.93 -6.54,-5.28 -0.91,-1.32 -1.58,-2.79 -1.98,-4.38l0.25 -0.34c2.69,-0.42 5.56,0.52 7.94,1.7 2.56,1.28 4.76,3.08 6.51,5.38 0.63,0.98 1.12,2.05 1.44,3.17 -0.81,0.38 -1.69,0.62 -2.59,0.69z"/>
     <path id="1" class="fil10" d="M512.95 251.24c-1.35,0.12 -2.69,-0.1 -3.97,-0.49 -0.36,-0.15 -0.72,-0.3 -1.06,-0.45 -2.58,-1.1 -4.91,-2.93 -6.54,-5.28 -0.91,-1.32 -1.58,-2.79 -1.98,-4.38l0.25 -0.34c2.69,-0.42 5.56,0.52 7.94,1.7 2.56,1.28 4.76,3.08 6.51,5.38 0.63,0.98 1.12,2.05 1.44,3.17 -0.81,0.38 -1.69,0.62 -2.59,0.69z"/>
    </g>
    <g>
     <path class="fil4 str1" d="M512.54 244.6c-1.35,-0.07 -2.65,-0.46 -3.87,-1.03 -0.34,-0.19 -0.67,-0.38 -0.99,-0.58 -2.42,-1.44 -4.49,-3.57 -5.81,-6.11 -0.74,-1.44 -1.21,-2.99 -1.41,-4.62 -0.02,-0.19 0.1,-0.31 0.29,-0.31 2.71,-0.06 5.43,1.26 7.64,2.75 2.38,1.6 4.33,3.69 5.78,6.21 0.49,1.06 0.84,2.19 1.02,3.35 -0.85,0.26 -1.75,0.38 -2.65,0.34z"/>
     <path id="1" class="fil10" d="M512.54 244.6c-1.35,-0.07 -2.65,-0.46 -3.87,-1.03 -0.34,-0.19 -0.67,-0.38 -0.99,-0.58 -2.42,-1.44 -4.49,-3.57 -5.81,-6.11 -0.74,-1.44 -1.21,-2.99 -1.41,-4.62 -0.02,-0.19 0.1,-0.31 0.29,-0.31 2.71,-0.06 5.43,1.26 7.64,2.75 2.38,1.6 4.33,3.69 5.78,6.21 0.49,1.06 0.84,2.19 1.02,3.35 -0.85,0.26 -1.75,0.38 -2.65,0.34z"/>
    </g>
    <g>
     <path class="fil4 str1" d="M512.11 236.48c-1.35,-0.07 -2.64,-0.46 -3.87,-1.02 -0.34,-0.19 -0.67,-0.39 -0.99,-0.58 -2.41,-1.45 -4.49,-3.57 -5.8,-6.12 -0.74,-1.44 -1.22,-2.99 -1.42,-4.62 -0.02,-0.19 0.1,-0.3 0.29,-0.31 2.71,-0.05 5.44,1.26 7.64,2.75 2.39,1.61 4.33,3.69 5.78,6.21 0.49,1.06 0.85,2.19 1.03,3.35 -0.86,0.27 -1.75,0.38 -2.66,0.34z"/>
     <path id="1" class="fil10" d="M512.11 236.48c-1.35,-0.07 -2.64,-0.46 -3.87,-1.02 -0.34,-0.19 -0.67,-0.39 -0.99,-0.58 -2.41,-1.45 -4.49,-3.57 -5.8,-6.12 -0.74,-1.44 -1.22,-2.99 -1.42,-4.62 -0.02,-0.19 0.1,-0.3 0.29,-0.31 2.71,-0.05 5.44,1.26 7.64,2.75 2.39,1.61 4.33,3.69 5.78,6.21 0.49,1.06 0.85,2.19 1.03,3.35 -0.86,0.27 -1.75,0.38 -2.66,0.34z"/>
    </g>
    <g>
     <path class="fil4 str1" d="M510.97 228.17c-1.35,-0.07 -2.65,-0.46 -3.87,-1.03 -0.34,-0.19 -0.67,-0.38 -0.99,-0.58 -2.42,-1.44 -4.49,-3.57 -5.8,-6.11 -0.75,-1.45 -1.22,-2.99 -1.42,-4.62 -0.02,-0.19 0.1,-0.31 0.29,-0.31 2.71,-0.06 5.43,1.26 7.64,2.75 2.38,1.6 4.33,3.69 5.78,6.21 0.49,1.06 0.85,2.18 1.02,3.34 -0.85,0.27 -1.75,0.39 -2.65,0.35z"/>
     <path id="1" class="fil10" d="M510.97 228.17c-1.35,-0.07 -2.65,-0.46 -3.87,-1.03 -0.34,-0.19 -0.67,-0.38 -0.99,-0.58 -2.42,-1.44 -4.49,-3.57 -5.8,-6.11 -0.75,-1.45 -1.22,-2.99 -1.42,-4.62 -0.02,-0.19 0.1,-0.31 0.29,-0.31 2.71,-0.06 5.43,1.26 7.64,2.75 2.38,1.6 4.33,3.69 5.78,6.21 0.49,1.06 0.85,2.18 1.02,3.34 -0.85,0.27 -1.75,0.39 -2.65,0.35z"/>
    </g>
    <g>
     <path class="fil4 str1" d="M510.02 221.92c-1.35,-0.07 -2.65,-0.45 -3.87,-1.02 -0.34,-0.19 -0.67,-0.39 -0.99,-0.58 -2.41,-1.44 -4.49,-3.57 -5.8,-6.12 -0.75,-1.44 -1.22,-2.99 -1.42,-4.61 -0.02,-0.2 0.11,-0.31 0.29,-0.31 2.71,-0.06 5.44,1.25 7.64,2.74 2.38,1.61 4.33,3.7 5.78,6.22 0.49,1.06 0.85,2.18 1.03,3.34 -0.86,0.27 -1.75,0.39 -2.66,0.34z"/>
     <path id="1" class="fil10" d="M510.02 221.92c-1.35,-0.07 -2.65,-0.45 -3.87,-1.02 -0.34,-0.19 -0.67,-0.39 -0.99,-0.58 -2.41,-1.44 -4.49,-3.57 -5.8,-6.12 -0.75,-1.44 -1.22,-2.99 -1.42,-4.61 -0.02,-0.2 0.11,-0.31 0.29,-0.31 2.71,-0.06 5.44,1.25 7.64,2.74 2.38,1.61 4.33,3.7 5.78,6.22 0.49,1.06 0.85,2.18 1.03,3.34 -0.86,0.27 -1.75,0.39 -2.66,0.34z"/>
    </g>
    <g>
     <path class="fil4 str1" d="M508.62 215.06c-1.35,-0.07 -2.64,-0.46 -3.86,-1.03 -0.34,-0.18 -0.67,-0.38 -1,-0.57 -2.41,-1.45 -4.49,-3.57 -5.8,-6.12 -0.74,-1.44 -1.22,-2.99 -1.41,-4.62 -0.03,-0.19 0.1,-0.3 0.28,-0.31 2.72,-0.06 5.44,1.26 7.65,2.75 2.38,1.61 4.33,3.69 5.77,6.21 0.49,1.06 0.85,2.19 1.03,3.35 -0.86,0.26 -1.75,0.38 -2.66,0.34z"/>
     <path id="1" class="fil10" d="M508.62 215.06c-1.35,-0.07 -2.64,-0.46 -3.86,-1.03 -0.34,-0.18 -0.67,-0.38 -1,-0.57 -2.41,-1.45 -4.49,-3.57 -5.8,-6.12 -0.74,-1.44 -1.22,-2.99 -1.41,-4.62 -0.03,-0.19 0.1,-0.3 0.28,-0.31 2.72,-0.06 5.44,1.26 7.65,2.75 2.38,1.61 4.33,3.69 5.77,6.21 0.49,1.06 0.85,2.19 1.03,3.35 -0.86,0.26 -1.75,0.38 -2.66,0.34z"/>
    </g>
    <g>
     <path class="fil4 str1" d="M502.35 195.55c-0.98,-0.66 -1.78,-1.54 -2.45,-2.51 -0.17,-0.29 -0.33,-0.59 -0.49,-0.88 -1.16,-2.17 -1.76,-4.69 -1.6,-7.18 0.09,-1.41 0.43,-2.77 1.01,-4.07l0.36 -0.11c2.07,1.19 3.52,3.4 4.51,5.51 1.07,2.27 1.6,4.7 1.55,7.23 -0.11,1.01 -0.35,2.01 -0.74,2.95 -0.76,-0.18 -1.49,-0.5 -2.15,-0.94z"/>
     <path id="1" class="fil10" d="M502.35 195.55c-0.98,-0.66 -1.78,-1.54 -2.45,-2.51 -0.17,-0.29 -0.33,-0.59 -0.49,-0.88 -1.16,-2.17 -1.76,-4.69 -1.6,-7.18 0.09,-1.41 0.43,-2.77 1.01,-4.07l0.36 -0.11c2.07,1.19 3.52,3.4 4.51,5.51 1.07,2.27 1.6,4.7 1.55,7.23 -0.11,1.01 -0.35,2.01 -0.74,2.95 -0.76,-0.18 -1.49,-0.5 -2.15,-0.94z"/>
    </g>
    <g>
     <path class="fil4 str1" d="M503.4 198.86c-1.05,-0.05 -2.06,-0.35 -3.01,-0.79 -0.26,-0.15 -0.52,-0.3 -0.77,-0.45 -1.87,-1.12 -3.48,-2.77 -4.5,-4.75 -0.58,-1.12 -0.94,-2.32 -1.1,-3.58l0.23 -0.24c2.1,-0.05 4.21,0.98 5.93,2.13 1.84,1.25 3.36,2.87 4.48,4.82 0.38,0.82 0.66,1.7 0.8,2.6 -0.67,0.21 -1.36,0.3 -2.06,0.26z"/>
     <path id="1" class="fil10" d="M503.4 198.86c-1.05,-0.05 -2.06,-0.35 -3.01,-0.79 -0.26,-0.15 -0.52,-0.3 -0.77,-0.45 -1.87,-1.12 -3.48,-2.77 -4.5,-4.75 -0.58,-1.12 -0.94,-2.32 -1.1,-3.58l0.23 -0.24c2.1,-0.05 4.21,0.98 5.93,2.13 1.84,1.25 3.36,2.87 4.48,4.82 0.38,0.82 0.66,1.7 0.8,2.6 -0.67,0.21 -1.36,0.3 -2.06,0.26z"/>
    </g>
    <g>
     <path class="fil4 str1" d="M506.17 207.34c-1.35,-0.07 -2.64,-0.46 -3.87,-1.03 -0.33,-0.18 -0.66,-0.38 -0.99,-0.57 -2.41,-1.45 -4.49,-3.58 -5.8,-6.12 -0.74,-1.44 -1.22,-2.99 -1.41,-4.62 -0.03,-0.19 0.1,-0.3 0.28,-0.31 2.72,-0.06 5.44,1.26 7.65,2.75 2.38,1.61 4.33,3.69 5.77,6.21 0.49,1.06 0.85,2.19 1.03,3.35 -0.86,0.26 -1.75,0.38 -2.66,0.34z"/>
     <path id="1" class="fil10" d="M506.17 207.34c-1.35,-0.07 -2.64,-0.46 -3.87,-1.03 -0.33,-0.18 -0.66,-0.38 -0.99,-0.57 -2.41,-1.45 -4.49,-3.58 -5.8,-6.12 -0.74,-1.44 -1.22,-2.99 -1.41,-4.62 -0.03,-0.19 0.1,-0.3 0.28,-0.31 2.72,-0.06 5.44,1.26 7.65,2.75 2.38,1.61 4.33,3.69 5.77,6.21 0.49,1.06 0.85,2.19 1.03,3.35 -0.86,0.26 -1.75,0.38 -2.66,0.34z"/>
    </g>
    <g>
     <path class="fil4 str1" d="M485.84 222.72c0.41,-0.66 0.65,-1.41 0.78,-2.18 0.02,-0.23 0.04,-0.45 0.05,-0.67 0.11,-1.63 -0.23,-3.32 -1.02,-4.78 -0.44,-0.83 -1.02,-1.56 -1.74,-2.2l-0.24 0.04c-0.92,1.28 -1.19,3.01 -1.2,4.56 -0.01,1.67 0.34,3.28 1.07,4.8 0.35,0.58 0.77,1.13 1.27,1.59 0.4,-0.32 0.75,-0.71 1.03,-1.16z"/>
     <path id="1" class="fil12" d="M485.84 222.72c0.41,-0.66 0.65,-1.41 0.78,-2.18 0.02,-0.23 0.04,-0.45 0.05,-0.67 0.11,-1.63 -0.23,-3.32 -1.02,-4.78 -0.44,-0.83 -1.02,-1.56 -1.74,-2.2l-0.24 0.04c-0.92,1.28 -1.19,3.01 -1.2,4.56 -0.01,1.67 0.34,3.28 1.07,4.8 0.35,0.58 0.77,1.13 1.27,1.59 0.4,-0.32 0.75,-0.71 1.03,-1.16z"/>
    </g>
    <g>
     <path class="fil4 str1" d="M489.41 227.88c0.42,-0.67 0.66,-1.42 0.79,-2.19 0.02,-0.22 0.03,-0.45 0.05,-0.66 0.1,-1.63 -0.24,-3.32 -1.02,-4.79 -0.45,-0.83 -1.03,-1.56 -1.75,-2.19l-0.24 0.03c-0.92,1.28 -1.18,3.02 -1.2,4.56 -0.01,1.67 0.35,3.28 1.08,4.8 0.34,0.59 0.76,1.13 1.26,1.59 0.41,-0.32 0.76,-0.71 1.03,-1.15z"/>
     <path id="1" class="fil12" d="M489.41 227.88c0.42,-0.67 0.66,-1.42 0.79,-2.19 0.02,-0.22 0.03,-0.45 0.05,-0.66 0.1,-1.63 -0.24,-3.32 -1.02,-4.79 -0.45,-0.83 -1.03,-1.56 -1.75,-2.19l-0.24 0.03c-0.92,1.28 -1.18,3.02 -1.2,4.56 -0.01,1.67 0.35,3.28 1.08,4.8 0.34,0.59 0.76,1.13 1.26,1.59 0.41,-0.32 0.76,-0.71 1.03,-1.15z"/>
    </g>
    <g>
     <path class="fil4 str1" d="M492.52 232.7c0.53,-0.57 0.92,-1.26 1.2,-1.99 0.06,-0.21 0.12,-0.43 0.18,-0.64 0.42,-1.57 0.43,-3.3 -0.05,-4.89 -0.27,-0.9 -0.69,-1.74 -1.27,-2.5l-0.24 -0.01c-1.16,1.07 -1.76,2.72 -2.08,4.23 -0.35,1.63 -0.32,3.29 0.09,4.92 0.22,0.64 0.53,1.25 0.92,1.81 0.47,-0.23 0.89,-0.55 1.25,-0.93z"/>
     <path id="1" class="fil12" d="M492.52 232.7c0.53,-0.57 0.92,-1.26 1.2,-1.99 0.06,-0.21 0.12,-0.43 0.18,-0.64 0.42,-1.57 0.43,-3.3 -0.05,-4.89 -0.27,-0.9 -0.69,-1.74 -1.27,-2.5l-0.24 -0.01c-1.16,1.07 -1.76,2.72 -2.08,4.23 -0.35,1.63 -0.32,3.29 0.09,4.92 0.22,0.64 0.53,1.25 0.92,1.81 0.47,-0.23 0.89,-0.55 1.25,-0.93z"/>
    </g>
    <g>
     <path class="fil4 str1" d="M495.09 237.62c0.63,-0.47 1.13,-1.08 1.53,-1.74 0.1,-0.2 0.2,-0.41 0.3,-0.61 0.69,-1.47 1.01,-3.16 0.82,-4.82 -0.11,-0.93 -0.38,-1.83 -0.81,-2.68l-0.24 -0.06c-1.33,0.85 -2.22,2.37 -2.8,3.8 -0.63,1.54 -0.89,3.18 -0.78,4.86 0.11,0.67 0.3,1.32 0.59,1.94 0.5,-0.15 0.97,-0.38 1.39,-0.69z"/>
     <path id="1" class="fil12" d="M495.09 237.62c0.63,-0.47 1.13,-1.08 1.53,-1.74 0.1,-0.2 0.2,-0.41 0.3,-0.61 0.69,-1.47 1.01,-3.16 0.82,-4.82 -0.11,-0.93 -0.38,-1.83 -0.81,-2.68l-0.24 -0.06c-1.33,0.85 -2.22,2.37 -2.8,3.8 -0.63,1.54 -0.89,3.18 -0.78,4.86 0.11,0.67 0.3,1.32 0.59,1.94 0.5,-0.15 0.97,-0.38 1.39,-0.69z"/>
    </g>
    <g>
     <path class="fil4 str1" d="M497.7 244.1c0.75,-0.54 1.36,-1.23 1.86,-1.98 0.12,-0.22 0.24,-0.45 0.36,-0.67 0.86,-1.65 1.29,-3.54 1.12,-5.36 -0.1,-1.03 -0.38,-2.01 -0.86,-2.93l-0.28 -0.06c-1.58,0.98 -2.67,2.68 -3.4,4.28 -0.78,1.73 -1.15,3.55 -1.07,5.4 0.1,0.74 0.3,1.46 0.62,2.13 0.59,-0.18 1.15,-0.45 1.65,-0.81z"/>
     <path id="1" class="fil12" d="M497.7 244.1c0.75,-0.54 1.36,-1.23 1.86,-1.98 0.12,-0.22 0.24,-0.45 0.36,-0.67 0.86,-1.65 1.29,-3.54 1.12,-5.36 -0.1,-1.03 -0.38,-2.01 -0.86,-2.93l-0.28 -0.06c-1.58,0.98 -2.67,2.68 -3.4,4.28 -0.78,1.73 -1.15,3.55 -1.07,5.4 0.1,0.74 0.3,1.46 0.62,2.13 0.59,-0.18 1.15,-0.45 1.65,-0.81z"/>
    </g>
    <g>
     <path class="fil4 str1" d="M499.65 249.61c0.76,-0.41 1.39,-1 1.93,-1.67 0.14,-0.2 0.28,-0.41 0.41,-0.61 0.98,-1.51 1.58,-3.31 1.62,-5.14 0.02,-1.04 -0.14,-2.06 -0.49,-3.05l-0.25 -0.1c-1.57,0.73 -2.77,2.25 -3.62,3.73 -0.91,1.59 -1.45,3.33 -1.57,5.18 0.02,0.75 0.13,1.5 0.35,2.21 0.57,-0.08 1.11,-0.27 1.62,-0.55z"/>
     <path id="1" class="fil12" d="M499.65 249.61c0.76,-0.41 1.39,-1 1.93,-1.67 0.14,-0.2 0.28,-0.41 0.41,-0.61 0.98,-1.51 1.58,-3.31 1.62,-5.14 0.02,-1.04 -0.14,-2.06 -0.49,-3.05l-0.25 -0.1c-1.57,0.73 -2.77,2.25 -3.62,3.73 -0.91,1.59 -1.45,3.33 -1.57,5.18 0.02,0.75 0.13,1.5 0.35,2.21 0.57,-0.08 1.11,-0.27 1.62,-0.55z"/>
    </g>
    <g>
     <path class="fil4 str1" d="M501.67 255.18c0.76,-0.42 1.39,-1 1.93,-1.67 0.14,-0.2 0.28,-0.41 0.41,-0.61 0.98,-1.51 1.58,-3.31 1.62,-5.14 0.02,-1.04 -0.14,-2.06 -0.49,-3.05l-0.25 -0.1c-1.57,0.73 -2.77,2.25 -3.62,3.73 -0.91,1.59 -1.45,3.33 -1.57,5.18 0.02,0.75 0.13,1.5 0.35,2.21 0.57,-0.08 1.11,-0.27 1.62,-0.55z"/>
     <path id="1" class="fil12" d="M501.67 255.18c0.76,-0.42 1.39,-1 1.93,-1.67 0.14,-0.2 0.28,-0.41 0.41,-0.61 0.98,-1.51 1.58,-3.31 1.62,-5.14 0.02,-1.04 -0.14,-2.06 -0.49,-3.05l-0.25 -0.1c-1.57,0.73 -2.77,2.25 -3.62,3.73 -0.91,1.59 -1.45,3.33 -1.57,5.18 0.02,0.75 0.13,1.5 0.35,2.21 0.57,-0.08 1.11,-0.27 1.62,-0.55z"/>
    </g>
    <g>
     <path class="fil4 str1" d="M502.86 261.26c0.8,-0.31 1.51,-0.8 2.14,-1.39l0.49 -0.54c1.18,-1.36 2.02,-3.07 2.32,-4.87 0.16,-1.02 0.15,-2.06 -0.06,-3.09l-0.23 -0.13c-1.66,0.5 -3.06,1.84 -4.1,3.19 -1.13,1.44 -1.9,3.1 -2.28,4.91 -0.09,0.74 -0.09,1.5 0.03,2.24 0.58,-0.01 1.14,-0.11 1.69,-0.32z"/>
     <path id="1" class="fil12" d="M502.86 261.26c0.8,-0.31 1.51,-0.8 2.14,-1.39l0.49 -0.54c1.18,-1.36 2.02,-3.07 2.32,-4.87 0.16,-1.02 0.15,-2.06 -0.06,-3.09l-0.23 -0.13c-1.66,0.5 -3.06,1.84 -4.1,3.19 -1.13,1.44 -1.9,3.1 -2.28,4.91 -0.09,0.74 -0.09,1.5 0.03,2.24 0.58,-0.01 1.14,-0.11 1.69,-0.32z"/>
    </g>
    <g>
     <path class="fil4 str1" d="M504.45 266.43c0.8,-0.3 1.51,-0.8 2.14,-1.38l0.49 -0.55c1.18,-1.36 2.02,-3.06 2.32,-4.87 0.16,-1.02 0.15,-2.06 -0.06,-3.08l-0.23 -0.14c-1.66,0.51 -3.06,1.85 -4.1,3.19 -1.13,1.44 -1.91,3.1 -2.28,4.92 -0.09,0.74 -0.09,1.49 0.03,2.23 0.58,-0.01 1.14,-0.11 1.69,-0.32z"/>
     <path id="1" class="fil12" d="M504.45 266.43c0.8,-0.3 1.51,-0.8 2.14,-1.38l0.49 -0.55c1.18,-1.36 2.02,-3.06 2.32,-4.87 0.16,-1.02 0.15,-2.06 -0.06,-3.08l-0.23 -0.14c-1.66,0.51 -3.06,1.85 -4.1,3.19 -1.13,1.44 -1.91,3.1 -2.28,4.92 -0.09,0.74 -0.09,1.49 0.03,2.23 0.58,-0.01 1.14,-0.11 1.69,-0.32z"/>
    </g>
    <g>
     <path class="fil4 str1" d="M505.45 273.93c0.83,-0.34 1.57,-0.87 2.22,-1.52 0.17,-0.19 0.34,-0.4 0.5,-0.59 1.21,-1.49 2.07,-3.36 2.36,-5.34 0.17,-1.13 0.14,-2.27 -0.08,-3.4l-0.25 -0.15c-1.71,0.54 -3.15,2.01 -4.22,3.47 -1.16,1.59 -1.95,3.4 -2.33,5.4 -0.09,0.82 -0.07,1.65 0.06,2.46 0.59,0 1.18,-0.11 1.74,-0.33z"/>
     <path id="1" class="fil12" d="M505.45 273.93c0.83,-0.34 1.57,-0.87 2.22,-1.52 0.17,-0.19 0.34,-0.4 0.5,-0.59 1.21,-1.49 2.07,-3.36 2.36,-5.34 0.17,-1.13 0.14,-2.27 -0.08,-3.4l-0.25 -0.15c-1.71,0.54 -3.15,2.01 -4.22,3.47 -1.16,1.59 -1.95,3.4 -2.33,5.4 -0.09,0.82 -0.07,1.65 0.06,2.46 0.59,0 1.18,-0.11 1.74,-0.33z"/>
    </g>
    <g>
     <path class="fil4 str1" d="M476.92 216.86c3.92,2.45 7.2,5.68 9.96,9.38 2.86,3.82 5.14,8.04 7.11,12.37 1.93,4.23 3.56,8.6 5.07,12.99 1.96,5.68 3.42,11.52 4.42,17.45 0.71,4.2 1.19,8.45 1.45,12.72l-0.01 0 0.01 0 -0.02 0 -0.35 0.02 -0.29 0.02c-0.03,-0.53 -0.06,-1.06 -0.1,-1.59 -0.21,-2.97 -0.53,-5.94 -0.97,-8.89 -0.87,-5.91 -2.2,-11.76 -4.02,-17.46 -1.44,-4.52 -3.09,-9 -4.96,-13.36 -1.86,-4.36 -4,-8.6 -6.65,-12.53 -2.55,-3.8 -5.65,-7.36 -9.38,-10.06 -0.44,-0.32 -0.91,-0.62 -1.37,-0.92l0.1 -0.14z"/>
     <path id="1" class="fil12" d="M476.92 216.86c3.92,2.45 7.2,5.68 9.96,9.38 2.86,3.82 5.14,8.04 7.11,12.37 1.93,4.23 3.56,8.6 5.07,12.99 1.96,5.68 3.42,11.52 4.42,17.45 0.71,4.2 1.19,8.45 1.45,12.72l-0.01 0 0.01 0 -0.02 0 -0.35 0.02 -0.29 0.02c-0.03,-0.53 -0.06,-1.06 -0.1,-1.59 -0.21,-2.97 -0.53,-5.94 -0.97,-8.89 -0.87,-5.91 -2.2,-11.76 -4.02,-17.46 -1.44,-4.52 -3.09,-9 -4.96,-13.36 -1.86,-4.36 -4,-8.6 -6.65,-12.53 -2.55,-3.8 -5.65,-7.36 -9.38,-10.06 -0.44,-0.32 -0.91,-0.62 -1.37,-0.92l0.1 -0.14z"/>
    </g>
    <g>
     <path class="fil4 str1" d="M501.85 273.61c-1.17,0.13 -2.34,-0.03 -3.47,-0.34 -0.32,-0.11 -0.63,-0.23 -0.94,-0.35 -2.28,-0.88 -4.37,-2.38 -5.86,-4.32 -0.85,-1.1 -1.47,-2.33 -1.87,-3.66l0.2 -0.3c2.33,-0.4 4.86,0.33 6.97,1.28 2.27,1.02 4.25,2.5 5.85,4.41 0.57,0.82 1.04,1.71 1.36,2.65 -0.7,0.34 -1.45,0.55 -2.24,0.63z"/>
     <path id="1" class="fil12" d="M501.85 273.61c-1.17,0.13 -2.34,-0.03 -3.47,-0.34 -0.32,-0.11 -0.63,-0.23 -0.94,-0.35 -2.28,-0.88 -4.37,-2.38 -5.86,-4.32 -0.85,-1.1 -1.47,-2.33 -1.87,-3.66l0.2 -0.3c2.33,-0.4 4.86,0.33 6.97,1.28 2.27,1.02 4.25,2.5 5.85,4.41 0.57,0.82 1.04,1.71 1.36,2.65 -0.7,0.34 -1.45,0.55 -2.24,0.63z"/>
    </g>
    <g>
     <path class="fil4 str1" d="M500.56 266.76c-1.14,0.31 -2.32,0.34 -3.49,0.22 -0.33,-0.06 -0.65,-0.13 -0.98,-0.2 -2.39,-0.51 -4.69,-1.66 -6.47,-3.35 -1.01,-0.95 -1.82,-2.06 -2.43,-3.31l0.16 -0.33c2.23,-0.77 4.84,-0.44 7.08,0.16 2.41,0.65 4.59,1.8 6.48,3.43 0.69,0.72 1.29,1.52 1.75,2.4 -0.63,0.44 -1.34,0.78 -2.1,0.98z"/>
     <path id="1" class="fil12" d="M500.56 266.76c-1.14,0.31 -2.32,0.34 -3.49,0.22 -0.33,-0.06 -0.65,-0.13 -0.98,-0.2 -2.39,-0.51 -4.69,-1.66 -6.47,-3.35 -1.01,-0.95 -1.82,-2.06 -2.43,-3.31l0.16 -0.33c2.23,-0.77 4.84,-0.44 7.08,0.16 2.41,0.65 4.59,1.8 6.48,3.43 0.69,0.72 1.29,1.52 1.75,2.4 -0.63,0.44 -1.34,0.78 -2.1,0.98z"/>
    </g>
    <g>
     <path class="fil4 str1" d="M499.23 260.19c-0.96,0.33 -1.96,0.42 -2.97,0.36 -0.29,-0.03 -0.57,-0.08 -0.85,-0.12 -2.07,-0.33 -4.09,-1.23 -5.7,-2.63 -0.91,-0.8 -1.66,-1.74 -2.24,-2.82l0.12 -0.3c1.87,-0.79 4.13,-0.63 6.07,-0.21 2.09,0.45 4.01,1.36 5.7,2.71 0.63,0.6 1.19,1.28 1.63,2.03 -0.53,0.43 -1.12,0.76 -1.76,0.98z"/>
     <path id="1" class="fil12" d="M499.23 260.19c-0.96,0.33 -1.96,0.42 -2.97,0.36 -0.29,-0.03 -0.57,-0.08 -0.85,-0.12 -2.07,-0.33 -4.09,-1.23 -5.7,-2.63 -0.91,-0.8 -1.66,-1.74 -2.24,-2.82l0.12 -0.3c1.87,-0.79 4.13,-0.63 6.07,-0.21 2.09,0.45 4.01,1.36 5.7,2.71 0.63,0.6 1.19,1.28 1.63,2.03 -0.53,0.43 -1.12,0.76 -1.76,0.98z"/>
    </g>
    <g>
     <path class="fil4 str1" d="M497.72 255.45c-0.99,0.19 -2,0.15 -2.99,-0.04 -0.28,-0.07 -0.56,-0.15 -0.83,-0.24 -2.01,-0.6 -3.91,-1.77 -5.32,-3.37 -0.8,-0.91 -1.43,-1.95 -1.87,-3.09l0.15 -0.28c1.96,-0.53 4.17,-0.08 6.04,0.6 2.02,0.73 3.82,1.88 5.33,3.45 0.55,0.67 1.01,1.42 1.35,2.23 -0.57,0.35 -1.2,0.6 -1.86,0.74z"/>
     <path id="1" class="fil12" d="M497.72 255.45c-0.99,0.19 -2,0.15 -2.99,-0.04 -0.28,-0.07 -0.56,-0.15 -0.83,-0.24 -2.01,-0.6 -3.91,-1.77 -5.32,-3.37 -0.8,-0.91 -1.43,-1.95 -1.87,-3.09l0.15 -0.28c1.96,-0.53 4.17,-0.08 6.04,0.6 2.02,0.73 3.82,1.88 5.33,3.45 0.55,0.67 1.01,1.42 1.35,2.23 -0.57,0.35 -1.2,0.6 -1.86,0.74z"/>
    </g>
    <g>
     <path class="fil4 str1" d="M495.92 249.64c-0.99,0.2 -2,0.15 -2.99,-0.04 -0.27,-0.07 -0.55,-0.15 -0.82,-0.23 -2.02,-0.61 -3.91,-1.77 -5.33,-3.38 -0.8,-0.91 -1.43,-1.94 -1.87,-3.09l0.16 -0.28c1.95,-0.53 4.17,-0.07 6.04,0.6 2.02,0.73 3.81,1.89 5.32,3.45 0.55,0.68 1.02,1.43 1.36,2.23 -0.57,0.36 -1.2,0.61 -1.87,0.74z"/>
     <path id="1" class="fil12" d="M495.92 249.64c-0.99,0.2 -2,0.15 -2.99,-0.04 -0.27,-0.07 -0.55,-0.15 -0.82,-0.23 -2.02,-0.61 -3.91,-1.77 -5.33,-3.38 -0.8,-0.91 -1.43,-1.94 -1.87,-3.09l0.16 -0.28c1.95,-0.53 4.17,-0.07 6.04,0.6 2.02,0.73 3.81,1.89 5.32,3.45 0.55,0.68 1.02,1.43 1.36,2.23 -0.57,0.36 -1.2,0.61 -1.87,0.74z"/>
    </g>
    <g>
     <path class="fil4 str1" d="M493.58 243.82c-0.99,0.2 -2,0.15 -2.99,-0.03 -0.28,-0.08 -0.56,-0.16 -0.83,-0.24 -2.01,-0.61 -3.91,-1.77 -5.32,-3.38 -0.81,-0.91 -1.43,-1.94 -1.87,-3.09l0.15 -0.27c1.95,-0.54 4.17,-0.08 6.04,0.59 2.02,0.73 3.82,1.89 5.32,3.45 0.55,0.68 1.02,1.43 1.36,2.24 -0.57,0.35 -1.2,0.6 -1.86,0.73z"/>
     <path id="1" class="fil12" d="M493.58 243.82c-0.99,0.2 -2,0.15 -2.99,-0.03 -0.28,-0.08 -0.56,-0.16 -0.83,-0.24 -2.01,-0.61 -3.91,-1.77 -5.32,-3.38 -0.81,-0.91 -1.43,-1.94 -1.87,-3.09l0.15 -0.27c1.95,-0.54 4.17,-0.08 6.04,0.59 2.02,0.73 3.82,1.89 5.32,3.45 0.55,0.68 1.02,1.43 1.36,2.24 -0.57,0.35 -1.2,0.6 -1.86,0.73z"/>
    </g>
    <g>
     <path class="fil4 str1" d="M491.75 239.47c-0.99,0.2 -2,0.15 -2.99,-0.04 -0.28,-0.07 -0.56,-0.15 -0.83,-0.24 -2.01,-0.6 -3.91,-1.76 -5.32,-3.37 -0.8,-0.91 -1.43,-1.95 -1.87,-3.09l0.15 -0.28c1.96,-0.53 4.17,-0.08 6.04,0.6 2.02,0.73 3.82,1.89 5.33,3.45 0.55,0.68 1.01,1.43 1.35,2.23 -0.57,0.35 -1.2,0.6 -1.86,0.74z"/>
     <path id="1" class="fil12" d="M491.75 239.47c-0.99,0.2 -2,0.15 -2.99,-0.04 -0.28,-0.07 -0.56,-0.15 -0.83,-0.24 -2.01,-0.6 -3.91,-1.76 -5.32,-3.37 -0.8,-0.91 -1.43,-1.95 -1.87,-3.09l0.15 -0.28c1.96,-0.53 4.17,-0.08 6.04,0.6 2.02,0.73 3.82,1.89 5.33,3.45 0.55,0.68 1.01,1.43 1.35,2.23 -0.57,0.35 -1.2,0.6 -1.86,0.74z"/>
    </g>
    <g>
     <path class="fil4 str1" d="M489.48 234.75c-0.99,0.19 -2,0.15 -2.99,-0.04 -0.28,-0.07 -0.56,-0.16 -0.83,-0.24 -2.01,-0.6 -3.9,-1.76 -5.32,-3.37 -0.8,-0.91 -1.43,-1.95 -1.87,-3.09l0.15 -0.28c1.96,-0.53 4.17,-0.08 6.04,0.6 2.02,0.73 3.82,1.88 5.33,3.45 0.55,0.67 1.01,1.43 1.35,2.23 -0.57,0.35 -1.2,0.6 -1.86,0.74z"/>
     <path id="1" class="fil12" d="M489.48 234.75c-0.99,0.19 -2,0.15 -2.99,-0.04 -0.28,-0.07 -0.56,-0.16 -0.83,-0.24 -2.01,-0.6 -3.9,-1.76 -5.32,-3.37 -0.8,-0.91 -1.43,-1.95 -1.87,-3.09l0.15 -0.28c1.96,-0.53 4.17,-0.08 6.04,0.6 2.02,0.73 3.82,1.88 5.33,3.45 0.55,0.67 1.01,1.43 1.35,2.23 -0.57,0.35 -1.2,0.6 -1.86,0.74z"/>
    </g>
    <g>
     <path class="fil4 str1" d="M481.37 221.75c-0.84,-0.3 -1.58,-0.79 -2.24,-1.37l-0.51 -0.55c-1.24,-1.36 -2.14,-3.08 -2.48,-4.91 -0.19,-1.04 -0.2,-2.09 -0.01,-3.14l0.24 -0.14c1.72,0.48 3.18,1.82 4.28,3.16 1.19,1.46 2.01,3.12 2.44,4.97 0.11,0.75 0.12,1.52 0.01,2.27 -0.59,0 -1.17,-0.09 -1.73,-0.29z"/>
     <path id="1" class="fil12" d="M481.37 221.75c-0.84,-0.3 -1.58,-0.79 -2.24,-1.37l-0.51 -0.55c-1.24,-1.36 -2.14,-3.08 -2.48,-4.91 -0.19,-1.04 -0.2,-2.09 -0.01,-3.14l0.24 -0.14c1.72,0.48 3.18,1.82 4.28,3.16 1.19,1.46 2.01,3.12 2.44,4.97 0.11,0.75 0.12,1.52 0.01,2.27 -0.59,0 -1.17,-0.09 -1.73,-0.29z"/>
    </g>
    <g>
     <path class="fil4 str1" d="M482.73 223.96c-0.77,0.15 -1.55,0.12 -2.32,-0.03 -0.22,-0.05 -0.43,-0.12 -0.64,-0.18 -1.57,-0.47 -3.04,-1.37 -4.14,-2.62 -0.62,-0.7 -1.1,-1.51 -1.45,-2.4l0.12 -0.21c1.52,-0.42 3.24,-0.07 4.69,0.46 1.57,0.57 2.96,1.46 4.13,2.68 0.43,0.52 0.79,1.1 1.06,1.73 -0.45,0.27 -0.94,0.47 -1.45,0.57z"/>
     <path id="1" class="fil12" d="M482.73 223.96c-0.77,0.15 -1.55,0.12 -2.32,-0.03 -0.22,-0.05 -0.43,-0.12 -0.64,-0.18 -1.57,-0.47 -3.04,-1.37 -4.14,-2.62 -0.62,-0.7 -1.1,-1.51 -1.45,-2.4l0.12 -0.21c1.52,-0.42 3.24,-0.07 4.69,0.46 1.57,0.57 2.96,1.46 4.13,2.68 0.43,0.52 0.79,1.1 1.06,1.73 -0.45,0.27 -0.94,0.47 -1.45,0.57z"/>
    </g>
    <g>
     <path class="fil4 str1" d="M486.29 229.6c-0.99,0.2 -2,0.15 -2.99,-0.04 -0.28,-0.07 -0.55,-0.15 -0.82,-0.23 -2.02,-0.61 -3.91,-1.77 -5.33,-3.38 -0.8,-0.91 -1.43,-1.95 -1.87,-3.09l0.15 -0.28c1.96,-0.54 4.17,-0.08 6.05,0.6 2.02,0.73 3.81,1.88 5.32,3.45 0.55,0.67 1.01,1.43 1.35,2.23 -0.57,0.35 -1.19,0.6 -1.86,0.74z"/>
     <path id="1" class="fil12" d="M486.29 229.6c-0.99,0.2 -2,0.15 -2.99,-0.04 -0.28,-0.07 -0.55,-0.15 -0.82,-0.23 -2.02,-0.61 -3.91,-1.77 -5.33,-3.38 -0.8,-0.91 -1.43,-1.95 -1.87,-3.09l0.15 -0.28c1.96,-0.54 4.17,-0.08 6.05,0.6 2.02,0.73 3.81,1.88 5.32,3.45 0.55,0.67 1.01,1.43 1.35,2.23 -0.57,0.35 -1.19,0.6 -1.86,0.74z"/>
    </g>
    <g>
     <path class="fil4 str1" d="M545.8 209.5c-0.55,-0.89 -0.87,-1.89 -1.04,-2.92 -0.03,-0.3 -0.05,-0.6 -0.07,-0.89 -0.14,-2.18 0.31,-4.44 1.36,-6.4 0.6,-1.11 1.38,-2.09 2.33,-2.93l0.33 0.05c1.23,1.71 1.58,4.03 1.6,6.09 0.02,2.23 -0.46,4.4 -1.43,6.43 -0.47,0.77 -1.03,1.5 -1.69,2.12 -0.55,-0.43 -1.02,-0.95 -1.39,-1.55z"/>
     <path id="1" class="fil12" d="M545.8 209.5c-0.55,-0.89 -0.87,-1.89 -1.04,-2.92 -0.03,-0.3 -0.05,-0.6 -0.07,-0.89 -0.14,-2.18 0.31,-4.44 1.36,-6.4 0.6,-1.11 1.38,-2.09 2.33,-2.93l0.33 0.05c1.23,1.71 1.58,4.03 1.6,6.09 0.02,2.23 -0.46,4.4 -1.43,6.43 -0.47,0.77 -1.03,1.5 -1.69,2.12 -0.55,-0.43 -1.02,-0.95 -1.39,-1.55z"/>
    </g>
    <g>
     <path class="fil4 str1" d="M541.02 216.39c-0.55,-0.89 -0.87,-1.89 -1.04,-2.92 -0.03,-0.3 -0.05,-0.59 -0.07,-0.89 -0.14,-2.18 0.31,-4.44 1.36,-6.4 0.6,-1.11 1.38,-2.09 2.33,-2.93l0.33 0.05c1.23,1.71 1.58,4.03 1.6,6.09 0.02,2.23 -0.46,4.4 -1.43,6.43 -0.47,0.78 -1.03,1.5 -1.69,2.12 -0.55,-0.43 -1.02,-0.94 -1.39,-1.55z"/>
     <path id="1" class="fil12" d="M541.02 216.39c-0.55,-0.89 -0.87,-1.89 -1.04,-2.92 -0.03,-0.3 -0.05,-0.59 -0.07,-0.89 -0.14,-2.18 0.31,-4.44 1.36,-6.4 0.6,-1.11 1.38,-2.09 2.33,-2.93l0.33 0.05c1.23,1.71 1.58,4.03 1.6,6.09 0.02,2.23 -0.46,4.4 -1.43,6.43 -0.47,0.78 -1.03,1.5 -1.69,2.12 -0.55,-0.43 -1.02,-0.94 -1.39,-1.55z"/>
    </g>
    <g>
     <path class="fil4 str1" d="M536.87 222.85c-0.71,-0.77 -1.23,-1.68 -1.6,-2.66 -0.09,-0.29 -0.17,-0.58 -0.25,-0.86 -0.56,-2.1 -0.58,-4.41 0.07,-6.54 0.36,-1.2 0.93,-2.33 1.7,-3.34l0.33 -0.02c1.54,1.43 2.35,3.64 2.78,5.66 0.46,2.18 0.42,4.39 -0.13,6.58 -0.3,0.85 -0.71,1.68 -1.23,2.42 -0.62,-0.31 -1.19,-0.73 -1.67,-1.24z"/>
     <path id="1" class="fil12" d="M536.87 222.85c-0.71,-0.77 -1.23,-1.68 -1.6,-2.66 -0.09,-0.29 -0.17,-0.58 -0.25,-0.86 -0.56,-2.1 -0.58,-4.41 0.07,-6.54 0.36,-1.2 0.93,-2.33 1.7,-3.34l0.33 -0.02c1.54,1.43 2.35,3.64 2.78,5.66 0.46,2.18 0.42,4.39 -0.13,6.58 -0.3,0.85 -0.71,1.68 -1.23,2.42 -0.62,-0.31 -1.19,-0.73 -1.67,-1.24z"/>
    </g>
    <g>
     <path class="fil4 str1" d="M533.43 229.43c-0.84,-0.63 -1.5,-1.44 -2.05,-2.34 -0.14,-0.26 -0.26,-0.53 -0.39,-0.8 -0.93,-1.97 -1.35,-4.24 -1.1,-6.45 0.15,-1.25 0.51,-2.45 1.08,-3.58l0.32 -0.08c1.78,1.13 2.96,3.16 3.74,5.07 0.85,2.07 1.2,4.25 1.05,6.5 -0.15,0.9 -0.4,1.78 -0.79,2.6 -0.66,-0.19 -1.29,-0.5 -1.86,-0.92z"/>
     <path id="1" class="fil12" d="M533.43 229.43c-0.84,-0.63 -1.5,-1.44 -2.05,-2.34 -0.14,-0.26 -0.26,-0.53 -0.39,-0.8 -0.93,-1.97 -1.35,-4.24 -1.1,-6.45 0.15,-1.25 0.51,-2.45 1.08,-3.58l0.32 -0.08c1.78,1.13 2.96,3.16 3.74,5.07 0.85,2.07 1.2,4.25 1.05,6.5 -0.15,0.9 -0.4,1.78 -0.79,2.6 -0.66,-0.19 -1.29,-0.5 -1.86,-0.92z"/>
    </g>
    <g>
     <path class="fil4 str1" d="M529.94 238.09c-1.01,-0.72 -1.81,-1.64 -2.48,-2.64 -0.17,-0.3 -0.33,-0.6 -0.48,-0.9 -1.16,-2.21 -1.73,-4.74 -1.5,-7.17 0.12,-1.37 0.51,-2.69 1.14,-3.92l0.38 -0.08c2.11,1.32 3.56,3.59 4.54,5.73 1.06,2.31 1.54,4.74 1.44,7.22 -0.14,0.98 -0.41,1.95 -0.83,2.84 -0.79,-0.24 -1.54,-0.6 -2.21,-1.08z"/>
     <path id="1" class="fil12" d="M529.94 238.09c-1.01,-0.72 -1.81,-1.64 -2.48,-2.64 -0.17,-0.3 -0.33,-0.6 -0.48,-0.9 -1.16,-2.21 -1.73,-4.74 -1.5,-7.17 0.12,-1.37 0.51,-2.69 1.14,-3.92l0.38 -0.08c2.11,1.32 3.56,3.59 4.54,5.73 1.06,2.31 1.54,4.74 1.44,7.22 -0.14,0.98 -0.41,1.95 -0.83,2.84 -0.79,-0.24 -1.54,-0.6 -2.21,-1.08z"/>
    </g>
    <g>
     <path class="fil4 str1" d="M527.33 245.47c-1.01,-0.56 -1.86,-1.35 -2.58,-2.24 -0.19,-0.27 -0.38,-0.55 -0.55,-0.82 -1.31,-2.01 -2.11,-4.43 -2.16,-6.87 -0.03,-1.39 0.19,-2.76 0.65,-4.08l0.34 -0.13c2.1,0.97 3.7,3.01 4.83,4.98 1.23,2.13 1.94,4.46 2.11,6.94 -0.02,1 -0.17,2 -0.47,2.95 -0.76,-0.12 -1.49,-0.36 -2.17,-0.73z"/>
     <path id="1" class="fil12" d="M527.33 245.47c-1.01,-0.56 -1.86,-1.35 -2.58,-2.24 -0.19,-0.27 -0.38,-0.55 -0.55,-0.82 -1.31,-2.01 -2.11,-4.43 -2.16,-6.87 -0.03,-1.39 0.19,-2.76 0.65,-4.08l0.34 -0.13c2.1,0.97 3.7,3.01 4.83,4.98 1.23,2.13 1.94,4.46 2.11,6.94 -0.02,1 -0.17,2 -0.47,2.95 -0.76,-0.12 -1.49,-0.36 -2.17,-0.73z"/>
    </g>
    <g>
     <path class="fil4 str1" d="M524.63 252.92c-1.01,-0.56 -1.86,-1.35 -2.59,-2.24 -0.18,-0.27 -0.37,-0.55 -0.54,-0.82 -1.31,-2.01 -2.11,-4.43 -2.16,-6.87 -0.03,-1.39 0.19,-2.76 0.65,-4.08l0.33 -0.13c2.11,0.97 3.7,3.01 4.84,4.98 1.23,2.13 1.94,4.46 2.11,6.94 -0.02,1 -0.17,1.99 -0.47,2.95 -0.76,-0.11 -1.49,-0.36 -2.17,-0.73z"/>
     <path id="1" class="fil12" d="M524.63 252.92c-1.01,-0.56 -1.86,-1.35 -2.59,-2.24 -0.18,-0.27 -0.37,-0.55 -0.54,-0.82 -1.31,-2.01 -2.11,-4.43 -2.16,-6.87 -0.03,-1.39 0.19,-2.76 0.65,-4.08l0.33 -0.13c2.11,0.97 3.7,3.01 4.84,4.98 1.23,2.13 1.94,4.46 2.11,6.94 -0.02,1 -0.17,1.99 -0.47,2.95 -0.76,-0.11 -1.49,-0.36 -2.17,-0.73z"/>
    </g>
    <g>
     <path class="fil4 str1" d="M523.05 261.04c-1.08,-0.41 -2.03,-1.07 -2.88,-1.85 -0.22,-0.25 -0.44,-0.49 -0.65,-0.73 -1.58,-1.81 -2.71,-4.1 -3.1,-6.51 -0.22,-1.37 -0.2,-2.75 0.07,-4.13l0.32 -0.17c2.22,0.67 4.09,2.46 5.48,4.25 1.52,1.94 2.55,4.15 3.06,6.58 0.12,0.99 0.11,2 -0.05,2.99 -0.77,-0.01 -1.53,-0.15 -2.25,-0.43z"/>
     <path id="1" class="fil12" d="M523.05 261.04c-1.08,-0.41 -2.03,-1.07 -2.88,-1.85 -0.22,-0.25 -0.44,-0.49 -0.65,-0.73 -1.58,-1.81 -2.71,-4.1 -3.1,-6.51 -0.22,-1.37 -0.2,-2.75 0.07,-4.13l0.32 -0.17c2.22,0.67 4.09,2.46 5.48,4.25 1.52,1.94 2.55,4.15 3.06,6.58 0.12,0.99 0.11,2 -0.05,2.99 -0.77,-0.01 -1.53,-0.15 -2.25,-0.43z"/>
    </g>
    <g>
     <path class="fil4 str1" d="M520.92 267.96c-1.08,-0.41 -2.03,-1.07 -2.87,-1.85 -0.23,-0.24 -0.45,-0.49 -0.66,-0.73 -1.58,-1.82 -2.7,-4.1 -3.09,-6.51 -0.23,-1.37 -0.2,-2.76 0.07,-4.13l0.32 -0.18c2.22,0.67 4.08,2.47 5.48,4.26 1.51,1.94 2.54,4.15 3.05,6.58 0.12,0.99 0.11,2 -0.05,2.99 -0.77,-0.01 -1.53,-0.15 -2.25,-0.43z"/>
     <path id="1" class="fil12" d="M520.92 267.96c-1.08,-0.41 -2.03,-1.07 -2.87,-1.85 -0.23,-0.24 -0.45,-0.49 -0.66,-0.73 -1.58,-1.82 -2.7,-4.1 -3.09,-6.51 -0.23,-1.37 -0.2,-2.76 0.07,-4.13l0.32 -0.18c2.22,0.67 4.08,2.47 5.48,4.26 1.51,1.94 2.54,4.15 3.05,6.58 0.12,0.99 0.11,2 -0.05,2.99 -0.77,-0.01 -1.53,-0.15 -2.25,-0.43z"/>
    </g>
    <g>
     <path class="fil4 str1" d="M519.58 277.99c-1.12,-0.45 -2.1,-1.17 -2.97,-2.02 -0.23,-0.27 -0.45,-0.54 -0.67,-0.81 -1.62,-1.98 -2.77,-4.48 -3.16,-7.14 -0.22,-1.5 -0.18,-3.03 0.11,-4.54l0.33 -0.2c2.3,0.72 4.21,2.68 5.65,4.65 1.55,2.11 2.6,4.54 3.11,7.21 0.12,1.09 0.1,2.21 -0.07,3.3 -0.8,-0.01 -1.58,-0.15 -2.33,-0.45z"/>
     <path id="1" class="fil12" d="M519.58 277.99c-1.12,-0.45 -2.1,-1.17 -2.97,-2.02 -0.23,-0.27 -0.45,-0.54 -0.67,-0.81 -1.62,-1.98 -2.77,-4.48 -3.16,-7.14 -0.22,-1.5 -0.18,-3.03 0.11,-4.54l0.33 -0.2c2.3,0.72 4.21,2.68 5.65,4.65 1.55,2.11 2.6,4.54 3.11,7.21 0.12,1.09 0.1,2.21 -0.07,3.3 -0.8,-0.01 -1.58,-0.15 -2.33,-0.45z"/>
    </g>
    <g>
     <path class="fil4 str1" d="M520.8 281.99c0.35,-3.53 0.82,-7.04 1.41,-10.53 1.34,-7.92 3.3,-15.74 5.91,-23.34 2.03,-5.87 4.21,-11.7 6.78,-17.36 2.63,-5.8 5.69,-11.44 9.51,-16.56 3.69,-4.94 8.08,-9.26 13.33,-12.54l0.13 0.19c-0.62,0.39 -1.24,0.8 -1.84,1.23 -4.98,3.61 -9.12,8.37 -12.54,13.46 -3.54,5.25 -6.4,10.93 -8.89,16.75 -2.5,5.83 -4.71,11.82 -6.64,17.87 -2.43,7.62 -4.21,15.45 -5.38,23.36 -0.36,2.44 -0.66,4.9 -0.9,7.36 -0.29,0.06 -0.59,0.1 -0.88,0.11z"/>
     <path id="1" class="fil12" d="M520.8 281.99c0.35,-3.53 0.82,-7.04 1.41,-10.53 1.34,-7.92 3.3,-15.74 5.91,-23.34 2.03,-5.87 4.21,-11.7 6.78,-17.36 2.63,-5.8 5.69,-11.44 9.51,-16.56 3.69,-4.94 8.08,-9.26 13.33,-12.54l0.13 0.19c-0.62,0.39 -1.24,0.8 -1.84,1.23 -4.98,3.61 -9.12,8.37 -12.54,13.46 -3.54,5.25 -6.4,10.93 -8.89,16.75 -2.5,5.83 -4.71,11.82 -6.64,17.87 -2.43,7.62 -4.21,15.45 -5.38,23.36 -0.36,2.44 -0.66,4.9 -0.9,7.36 -0.29,0.06 -0.59,0.1 -0.88,0.11z"/>
    </g>
    <g>
     <path class="fil4 str1" d="M524.39 277.57c1.56,0.16 3.13,-0.04 4.64,-0.46 0.43,-0.15 0.85,-0.3 1.26,-0.46 3.05,-1.18 5.84,-3.18 7.84,-5.79 1.13,-1.47 1.97,-3.12 2.5,-4.89 0.07,-0.21 -0.06,-0.36 -0.27,-0.4 -3.11,-0.54 -6.49,0.44 -9.32,1.71 -3.04,1.37 -5.68,3.34 -7.83,5.89 -0.76,1.1 -1.39,2.29 -1.81,3.55 0.93,0.45 1.94,0.74 2.99,0.85z"/>
     <path id="1" class="fil12" d="M524.39 277.57c1.56,0.16 3.13,-0.04 4.64,-0.46 0.43,-0.15 0.85,-0.3 1.26,-0.46 3.05,-1.18 5.84,-3.18 7.84,-5.79 1.13,-1.47 1.97,-3.12 2.5,-4.89 0.07,-0.21 -0.06,-0.36 -0.27,-0.4 -3.11,-0.54 -6.49,0.44 -9.32,1.71 -3.04,1.37 -5.68,3.34 -7.83,5.89 -0.76,1.1 -1.39,2.29 -1.81,3.55 0.93,0.45 1.94,0.74 2.99,0.85z"/>
    </g>
    <g>
     <path class="fil4 str1" d="M526.12 268.4c1.52,0.41 3.1,0.46 4.66,0.29 0.44,-0.08 0.88,-0.17 1.31,-0.26 3.2,-0.69 6.28,-2.22 8.66,-4.48 1.34,-1.27 2.43,-2.76 3.24,-4.43 0.1,-0.2 0,-0.37 -0.2,-0.44 -2.99,-1.03 -6.49,-0.59 -9.47,0.22 -3.23,0.86 -6.15,2.4 -8.67,4.58 -0.93,0.96 -1.73,2.04 -2.35,3.21 0.85,0.59 1.8,1.04 2.82,1.31z"/>
     <path id="1" class="fil12" d="M526.12 268.4c1.52,0.41 3.1,0.46 4.66,0.29 0.44,-0.08 0.88,-0.17 1.31,-0.26 3.2,-0.69 6.28,-2.22 8.66,-4.48 1.34,-1.27 2.43,-2.76 3.24,-4.43 0.1,-0.2 0,-0.37 -0.2,-0.44 -2.99,-1.03 -6.49,-0.59 -9.47,0.22 -3.23,0.86 -6.15,2.4 -8.67,4.58 -0.93,0.96 -1.73,2.04 -2.35,3.21 0.85,0.59 1.8,1.04 2.82,1.31z"/>
    </g>
    <g>
     <path class="fil4 str1" d="M527.89 259.61c1.28,0.44 2.63,0.56 3.98,0.49 0.38,-0.05 0.76,-0.11 1.13,-0.17 2.77,-0.44 5.48,-1.64 7.62,-3.52 1.22,-1.06 2.22,-2.33 3,-3.76l-0.16 -0.4c-2.5,-1.06 -5.51,-0.85 -8.11,-0.29 -2.8,0.61 -5.37,1.82 -7.63,3.62 -0.85,0.81 -1.59,1.72 -2.18,2.73 0.71,0.57 1.49,1.01 2.35,1.3z"/>
     <path id="1" class="fil12" d="M527.89 259.61c1.28,0.44 2.63,0.56 3.98,0.49 0.38,-0.05 0.76,-0.11 1.13,-0.17 2.77,-0.44 5.48,-1.64 7.62,-3.52 1.22,-1.06 2.22,-2.33 3,-3.76l-0.16 -0.4c-2.5,-1.06 -5.51,-0.85 -8.11,-0.29 -2.8,0.61 -5.37,1.82 -7.63,3.62 -0.85,0.81 -1.59,1.72 -2.18,2.73 0.71,0.57 1.49,1.01 2.35,1.3z"/>
    </g>
    <g>
     <path class="fil4 str1" d="M529.92 253.27c1.32,0.26 2.67,0.2 4,-0.05 0.37,-0.1 0.74,-0.21 1.1,-0.32 2.69,-0.81 5.23,-2.36 7.12,-4.51 1.07,-1.22 1.91,-2.6 2.5,-4.13l-0.2 -0.37c-2.62,-0.72 -5.58,-0.11 -8.08,0.8 -2.7,0.97 -5.1,2.52 -7.12,4.61 -0.74,0.9 -1.36,1.91 -1.81,2.99 0.76,0.47 1.6,0.8 2.49,0.98z"/>
     <path id="1" class="fil12" d="M529.92 253.27c1.32,0.26 2.67,0.2 4,-0.05 0.37,-0.1 0.74,-0.21 1.1,-0.32 2.69,-0.81 5.23,-2.36 7.12,-4.51 1.07,-1.22 1.91,-2.6 2.5,-4.13l-0.2 -0.37c-2.62,-0.72 -5.58,-0.11 -8.08,0.8 -2.7,0.97 -5.1,2.52 -7.12,4.61 -0.74,0.9 -1.36,1.91 -1.81,2.99 0.76,0.47 1.6,0.8 2.49,0.98z"/>
    </g>
    <g>
     <path class="fil4 str1" d="M532.31 245.5c1.33,0.27 2.68,0.2 4.01,-0.05 0.37,-0.1 0.74,-0.2 1.1,-0.31 2.69,-0.81 5.23,-2.37 7.12,-4.52 1.07,-1.21 1.91,-2.6 2.5,-4.13l-0.2 -0.37c-2.62,-0.72 -5.58,-0.1 -8.08,0.8 -2.71,0.97 -5.11,2.52 -7.12,4.61 -0.74,0.9 -1.36,1.91 -1.82,2.99 0.77,0.47 1.61,0.8 2.49,0.98z"/>
     <path id="1" class="fil12" d="M532.31 245.5c1.33,0.27 2.68,0.2 4.01,-0.05 0.37,-0.1 0.74,-0.2 1.1,-0.31 2.69,-0.81 5.23,-2.37 7.12,-4.52 1.07,-1.21 1.91,-2.6 2.5,-4.13l-0.2 -0.37c-2.62,-0.72 -5.58,-0.1 -8.08,0.8 -2.71,0.97 -5.11,2.52 -7.12,4.61 -0.74,0.9 -1.36,1.91 -1.82,2.99 0.77,0.47 1.61,0.8 2.49,0.98z"/>
    </g>
    <g>
     <path class="fil4 str1" d="M535.46 237.72c1.32,0.26 2.67,0.2 4,-0.05 0.37,-0.1 0.74,-0.21 1.1,-0.31 2.69,-0.82 5.23,-2.37 7.12,-4.52 1.07,-1.21 1.91,-2.6 2.5,-4.13l-0.2 -0.37c-2.62,-0.72 -5.58,-0.11 -8.08,0.8 -2.7,0.97 -5.1,2.52 -7.12,4.61 -0.74,0.9 -1.36,1.91 -1.81,2.99 0.76,0.47 1.6,0.8 2.49,0.98z"/>
     <path id="1" class="fil12" d="M535.46 237.72c1.32,0.26 2.67,0.2 4,-0.05 0.37,-0.1 0.74,-0.21 1.1,-0.31 2.69,-0.82 5.23,-2.37 7.12,-4.52 1.07,-1.21 1.91,-2.6 2.5,-4.13l-0.2 -0.37c-2.62,-0.72 -5.58,-0.11 -8.08,0.8 -2.7,0.97 -5.1,2.52 -7.12,4.61 -0.74,0.9 -1.36,1.91 -1.81,2.99 0.76,0.47 1.6,0.8 2.49,0.98z"/>
    </g>
    <g>
     <path class="fil4 str1" d="M537.9 231.9c1.33,0.26 2.68,0.2 4,-0.05 0.37,-0.1 0.74,-0.21 1.11,-0.31 2.69,-0.82 5.22,-2.37 7.12,-4.52 1.07,-1.22 1.91,-2.6 2.5,-4.13l-0.21 -0.37c-2.61,-0.72 -5.57,-0.11 -8.08,0.79 -2.7,0.98 -5.1,2.53 -7.12,4.61 -0.73,0.91 -1.35,1.92 -1.81,3 0.77,0.47 1.6,0.8 2.49,0.98z"/>
     <path id="1" class="fil12" d="M537.9 231.9c1.33,0.26 2.68,0.2 4,-0.05 0.37,-0.1 0.74,-0.21 1.11,-0.31 2.69,-0.82 5.22,-2.37 7.12,-4.52 1.07,-1.22 1.91,-2.6 2.5,-4.13l-0.21 -0.37c-2.61,-0.72 -5.57,-0.11 -8.08,0.79 -2.7,0.98 -5.1,2.53 -7.12,4.61 -0.73,0.91 -1.35,1.92 -1.81,3 0.77,0.47 1.6,0.8 2.49,0.98z"/>
    </g>
    <g>
     <path class="fil4 str1" d="M540.94 225.58c1.32,0.27 2.67,0.21 4,-0.04 0.37,-0.1 0.74,-0.21 1.1,-0.32 2.69,-0.81 5.23,-2.36 7.12,-4.51 1.07,-1.22 1.91,-2.6 2.5,-4.13l-0.2 -0.37c-2.62,-0.73 -5.58,-0.11 -8.08,0.79 -2.71,0.98 -5.11,2.52 -7.12,4.61 -0.74,0.91 -1.36,1.91 -1.82,2.99 0.77,0.47 1.61,0.81 2.5,0.98z"/>
     <path id="1" class="fil12" d="M540.94 225.58c1.32,0.27 2.67,0.21 4,-0.04 0.37,-0.1 0.74,-0.21 1.1,-0.32 2.69,-0.81 5.23,-2.36 7.12,-4.51 1.07,-1.22 1.91,-2.6 2.5,-4.13l-0.2 -0.37c-2.62,-0.73 -5.58,-0.11 -8.08,0.79 -2.71,0.98 -5.11,2.52 -7.12,4.61 -0.74,0.91 -1.36,1.91 -1.82,2.99 0.77,0.47 1.61,0.81 2.5,0.98z"/>
    </g>
    <g>
     <path class="fil4 str1" d="M551.79 208.2c1.11,-0.4 2.1,-1.06 2.99,-1.84 0.23,-0.24 0.46,-0.49 0.68,-0.73 1.66,-1.81 2.87,-4.11 3.32,-6.56 0.25,-1.39 0.26,-2.8 0.01,-4.2l-0.32 -0.19c-2.3,0.64 -4.25,2.43 -5.72,4.23 -1.59,1.94 -2.7,4.17 -3.27,6.64 -0.14,1 -0.16,2.03 -0.01,3.04 0.79,0.01 1.57,-0.12 2.32,-0.39z"/>
     <path id="1" class="fil12" d="M551.79 208.2c1.11,-0.4 2.1,-1.06 2.99,-1.84 0.23,-0.24 0.46,-0.49 0.68,-0.73 1.66,-1.81 2.87,-4.11 3.32,-6.56 0.25,-1.39 0.26,-2.8 0.01,-4.2l-0.32 -0.19c-2.3,0.64 -4.25,2.43 -5.72,4.23 -1.59,1.94 -2.7,4.17 -3.27,6.64 -0.14,1 -0.16,2.03 -0.01,3.04 0.79,0.01 1.57,-0.12 2.32,-0.39z"/>
    </g>
    <g>
     <path class="fil4 str1" d="M549.96 211.16c1.03,0.2 2.08,0.16 3.11,-0.04 0.29,-0.08 0.57,-0.16 0.86,-0.24 2.09,-0.63 4.05,-1.84 5.52,-3.51 0.83,-0.94 1.49,-2.02 1.94,-3.2l-0.15 -0.29c-2.04,-0.56 -4.33,-0.09 -6.28,0.62 -2.09,0.75 -3.96,1.95 -5.52,3.58 -0.57,0.7 -1.06,1.48 -1.41,2.32 0.59,0.36 1.24,0.62 1.93,0.76z"/>
     <path id="1" class="fil12" d="M549.96 211.16c1.03,0.2 2.08,0.16 3.11,-0.04 0.29,-0.08 0.57,-0.16 0.86,-0.24 2.09,-0.63 4.05,-1.84 5.52,-3.51 0.83,-0.94 1.49,-2.02 1.94,-3.2l-0.15 -0.29c-2.04,-0.56 -4.33,-0.09 -6.28,0.62 -2.09,0.75 -3.96,1.95 -5.52,3.58 -0.57,0.7 -1.06,1.48 -1.41,2.32 0.59,0.36 1.24,0.62 1.93,0.76z"/>
    </g>
    <g>
     <path class="fil4 str1" d="M545.2 218.7c1.32,0.26 2.67,0.2 4,-0.05 0.37,-0.1 0.74,-0.21 1.1,-0.32 2.7,-0.81 5.23,-2.36 7.12,-4.51 1.08,-1.22 1.92,-2.6 2.5,-4.13l-0.2 -0.37c-2.62,-0.72 -5.58,-0.11 -8.08,0.79 -2.7,0.98 -5.1,2.52 -7.12,4.61 -0.74,0.91 -1.36,1.91 -1.81,3 0.76,0.46 1.6,0.8 2.49,0.98z"/>
     <path id="1" class="fil12" d="M545.2 218.7c1.32,0.26 2.67,0.2 4,-0.05 0.37,-0.1 0.74,-0.21 1.1,-0.32 2.7,-0.81 5.23,-2.36 7.12,-4.51 1.08,-1.22 1.92,-2.6 2.5,-4.13l-0.2 -0.37c-2.62,-0.72 -5.58,-0.11 -8.08,0.79 -2.7,0.98 -5.1,2.52 -7.12,4.61 -0.74,0.91 -1.36,1.91 -1.81,3 0.76,0.46 1.6,0.8 2.49,0.98z"/>
    </g>
    <g>
     <polygon class="fil4 str1" points="434.27,320.12 419.71,352.4 437.23,352.4 "/>
     <polygon id="1" class="fil7" points="434.27,320.12 419.71,352.4 437.23,352.4 "/>
    </g>
    <g>
     <polygon class="fil4 str1" points="478.81,354.86 465.41,303.93 422.12,303.93 434.75,354.86 "/>
     <polygon id="1" class="fil13" points="478.81,354.86 465.41,303.93 422.12,303.93 434.75,354.86 "/>
    </g>
    <g>
     <polygon class="fil4 str1" points="479.68,354.86 466.28,303.93 422.99,303.93 435.62,354.86 "/>
     <polygon id="1" class="fil14" points="479.68,354.86 466.28,303.93 422.99,303.93 435.62,354.86 "/>
    </g>
    <g>
     <polygon class="fil4 str1" points="473.82,351.79 462.06,307.34 428.6,307.34 439.32,351.79 "/>
     <polygon id="1" class="fil11" points="473.82,351.79 462.06,307.34 428.6,307.34 439.32,351.79 "/>
    </g>
    <g>
     <polygon class="fil4 str1" points="428.98,308.94 428.6,307.34 462.06,307.34 473.82,351.79 472.65,351.79 461.32,308.94 "/>
     <polygon id="1" class="fil15" points="428.98,308.94 428.6,307.34 462.06,307.34 473.82,351.79 472.65,351.79 461.32,308.94 "/>
    </g>
    <g>
     <polygon class="fil4 str1" points="428.98,308.94 461.32,308.94 472.65,351.79 439.32,351.79 "/>
     <polygon id="1" class="fil16" points="428.98,308.94 461.32,308.94 472.65,351.79 439.32,351.79 "/>
    </g>
   </g>
   <g>
    <g>
     <path class="fil17" d="M183.8 142.45c-17.65,19.1 10.88,37.85 8.98,53.5 -1.91,15.65 -6.67,26.21 -6.67,26.21 0,0 15.27,-4.2 19.62,-23.45l13.9 11.23 1.99 -6.09c0,0 -7.03,-4.36 -8.3,-13.14 -1.28,-8.77 8.57,-8.33 8.57,-8.33l8.08 8.37 5.66 -12.62c25.58,-4.45 36.37,-16.29 36.37,-16.29 0,0 2.94,11.65 3.52,24.95 0,0 5.89,-23.55 0.11,-32.33l-3.29 -1.56c0,0 4.68,-31.67 -53.47,-12.94 0,0 -17.42,-16.62 -35.07,2.49z"/>
     <path class="fil18" d="M221.89 182.38c0,0 -9.85,-0.44 -8.57,8.33 1.27,8.78 8.3,13.14 8.3,13.14l-1.99 6.09 -5.3 16.3 -12.21 0.12c0.49,0.24 1.03,0.74 1.98,1.63 2.18,2.03 6.53,6.09 11.56,9.76 5.03,3.68 10.73,6.96 15.96,8.8 5.22,1.84 9.96,2.23 12.91,-0.53 2.94,-2.76 4.11,-8.65 4.69,-11.65 0.26,-1.35 0.4,-2.11 0.91,-2.54l-5.68 -0.86 0.09 -1.56c0,0 -7.09,-3.84 -10.77,-13.63 3.73,3.9 7.61,6.2 11.12,7.54 6.87,2.63 12.29,1.54 12.29,1.54 16.23,-2.82 19.06,-21.7 18.34,-38.07 -0.58,-13.3 -3.52,-24.95 -3.52,-24.95 0,0 -10.79,11.84 -36.37,16.29l-5.66 12.62 -8.08 -8.37zm48.24 4.65c-0.13,-1.3 0.45,-2.42 1.29,-2.5 0.84,-0.08 1.62,0.92 1.74,2.22 0.12,1.3 -0.46,2.42 -1.3,2.5 -0.83,0.08 -1.61,-0.91 -1.73,-2.22zm-19.09 4.14c-0.84,0.07 -1.62,-0.92 -1.74,-2.22 -0.13,-1.31 0.46,-2.43 1.29,-2.51 0.84,-0.07 1.62,0.92 1.74,2.22 0.12,1.31 -0.46,2.43 -1.29,2.51zm0.71 17.24c10.33,1.43 14.64,-0.62 14.64,-0.62 -8.93,11.93 -14.64,0.62 -14.64,0.62z"/>
     <path class="fil19" d="M266.39 207.79c0,0 -4.31,2.05 -14.64,0.62 0,0 5.71,11.31 14.64,-0.62z"/>
     <path class="fil20" d="M244.89 223.32c-3.51,-1.34 -7.39,-3.64 -11.12,-7.54 3.68,9.79 10.77,13.63 10.77,13.63l0.35 -6.09z"/>
     <path class="fil21" d="M244.53 246.02c-2.95,2.76 -7.69,2.37 -12.91,0.53 -5.23,-1.84 -10.93,-5.12 -15.96,-8.8 -5.03,-3.67 -9.38,-7.73 -11.56,-9.76 -0.95,-0.89 -1.49,-1.39 -1.98,-1.63 -0.64,-0.29 -1.21,-0.15 -2.51,0.17 -2.32,0.59 -6.97,1.75 -10.83,3.05 -3.87,1.31 -6.97,2.76 -11.42,8.32 -4.44,5.56 -10.25,15.23 -13.15,20.06 -2.9,4.84 -2.9,4.84 -0.63,5.23 0.16,0.02 0.33,0.05 0.51,0.08 2.4,0.42 6.64,1.35 11.05,4.99 3.46,2.86 7.02,7.39 10.61,12.37 0.45,0.64 -0.9,-0.61 -0.44,0.04 -2.74,4.89 -4.02,12.34 -5.49,18.23 -1.66,6.66 -3.03,34.84 -1.01,38.99 7.6,4.25 26.97,15.06 33.55,18.44 6.57,3.37 9.46,4.12 13.03,2.6 3.57,-1.51 9.12,-4.62 12.45,-6.14 3.32,-1.51 4.41,-1.43 9.21,-1.8 4.79,-0.38 13.28,-1.22 17.78,-1.22 4.5,0 5.01,0.84 6.65,2.73 0.82,0.95 1.93,2.16 3.18,3.51l15.79 -74.1 2.02 -9.5 11.87 -1.34c-4.32,-10.72 -8.57,-20.63 -12.43,-26.94 -4.98,-8.12 -9.33,-10.25 -16.25,-11.41 -6.91,-1.16 -16.39,-1.35 -21.13,-1.4 -2.6,-0.03 -3.77,-0.01 -4.4,0.51 -0.51,0.43 -0.65,1.19 -0.91,2.54 -0.58,3 -1.75,8.89 -4.69,11.65z"/>
     <path class="fil20" d="M185.75 280.63c-7.72,15.79 -14.95,30.61 -18.81,38.65 -4.5,9.38 -4.41,9.55 -2.1,10.85 2.31,1.3 16.92,9.8 16.25,8.96 -2.71,-3.4 1.36,-8.28 4.66,-58.46z"/>
     <path class="fil18" d="M166.94 319.28c3.86,-8.04 11.09,-22.86 18.81,-38.65 -3.59,-4.98 -7.15,-9.51 -10.61,-12.37 -4.41,-3.64 -8.65,-4.57 -11.05,-4.99 -6.03,8.75 -11.95,17.81 -17.39,28.2 -6.82,13.04 -12.88,28.18 -16.17,37.31 -0.09,0.27 -0.19,0.53 -0.28,0.79 -3.22,9.03 -3.44,11.44 -2.19,13.89 1.24,2.45 3.95,4.94 15.21,10.38 10.11,4.9 27.13,12.18 40.8,16.9 1.54,0.53 3.05,1.03 4.5,1.5 14.22,4.53 22.85,5.19 29.76,5.85 6.91,0.65 12.1,1.31 16.01,1.38 3.91,0.08 6.55,-0.43 9.69,-1.46 1.64,-0.53 3.42,-1.21 5.27,-1.95 1.69,-0.67 3.44,-1.41 5.19,-2.14 5.77,-2.65 11.54,-5.29 18.07,-8.06l0.04 -0.18 0.89 -4.19 1.17 -5.48c-1.25,-1.35 -2.36,-2.56 -3.18,-3.51 -1.64,-1.89 -2.15,-2.73 -6.65,-2.73 -4.5,0 -12.99,0.84 -17.78,1.22 -4.8,0.37 -5.89,0.29 -9.21,1.8 -3.33,1.52 -8.88,4.63 -12.45,6.14 -3.57,1.52 -5.17,1.43 -13.03,-2.6 -5.3,-2.72 -13.44,-7.23 -21.04,-11.48 -3.68,-2.06 -7.24,-4.06 -10.29,-5.76 -9.34,-5.22 -13.88,-7.66 -16.19,-8.96 -2.31,-1.3 -2.4,-1.47 2.1,-10.85z"/>
     <path class="fil22" d="M290.45 281.91l-15.79 74.1 -1.17 5.48 -0.89 4.19c0.07,0.03 0.14,0.05 0.21,0.07 3.3,-1.39 6.79,-2.82 10.57,-4.3 11.38,-4.45 25.39,-9.34 35.9,-11.79 10.51,-2.45 17.52,-2.45 22.41,-0.72 2.51,0.88 4.46,2.21 6.79,4.61 8.56,-5.89 17.13,-11.79 26.63,-16.4 1.95,-0.95 3.94,-1.84 5.93,-2.66l17.47 -73.99 -94.17 10.57 -11.87 1.34 -2.02 9.5z"/>
     <path class="fil23" d="M377.72 390.07c3.53,4.38 7.14,8.77 10.63,12.92 10.26,12.19 19.56,22.21 24.97,28.03 3.33,0.21 6.39,0.4 8.76,0.53 0.92,0.06 1.73,0.1 2.41,0.13 3.51,0.17 3.62,0.06 2.45,-14.01 -1.17,-14.07 -3.62,-42.1 -5.45,-58.72 -1.84,-16.63 -3.06,-21.86 -5.62,-25.47 -2.55,-3.62 -6.45,-5.62 -13.62,-4.95 -5.71,0.53 -13.49,2.75 -21.21,5.96 -1.99,0.82 -3.98,1.71 -5.93,2.66 -9.5,4.61 -18.07,10.51 -26.63,16.4 2.22,2.29 4.79,5.54 8.5,10.29 5.27,6.72 12.84,16.44 20.74,26.23z"/>
     <path class="fil23" d="M283.38 361.45c-3.78,1.48 -7.27,2.91 -10.57,4.3 3.3,-1.39 6.79,-2.82 10.57,-4.3zm65.1 -7.9c-2.33,-2.4 -4.28,-3.73 -6.79,-4.61 2.51,0.88 4.46,2.21 6.79,4.61zm64.84 77.47c-5.41,-5.82 -14.71,-15.84 -24.97,-28.03 -3.49,-4.15 -7.1,-8.54 -10.63,-12.92 -7.9,-9.79 -15.47,-19.51 -20.74,-26.23 -3.71,-4.75 -6.28,-8 -8.5,-10.29 8.56,-5.89 17.13,-11.79 26.63,-16.4 1.95,-0.95 3.94,-1.84 5.93,-2.66l17.47 -73.99 -94.17 10.57 -11.87 1.34 -2.02 9.5 -15.79 74.1 -1.17 5.48 -0.89 4.19c0.07,0.03 0.14,0.05 0.21,0.07 -0.08,0.04 -0.17,0.07 -0.25,0.11 -6.53,2.77 -12.3,5.41 -18.07,8.06 -1.75,0.73 -3.5,1.47 -5.19,2.14 -1.85,0.74 -3.63,1.42 -5.27,1.95 -3.14,1.03 -5.78,1.54 -9.69,1.46 -3.91,-0.07 -9.1,-0.73 -16.01,-1.38 -6.91,-0.66 -15.54,-1.32 -29.76,-5.85 -1.45,-0.47 -2.96,-0.97 -4.5,-1.5 7.55,5.23 15.51,10.27 24.5,14.87 15.05,7.69 32.98,14.12 55.22,19.03 18.98,4.18 41.11,7.26 63.69,10.18 2.08,2.38 4.5,5.05 7.54,8.24 6.56,6.9 16.01,16.24 26.25,24.47 10.23,8.23 21.24,15.35 26.74,18.91 1.13,0.72 2.03,1.3 2.75,1.74 2.8,1.68 2.95,1.18 3.7,-1.3 0.28,-0.91 0.64,-2.09 1.12,-3.44 1.15,-3.25 3.01,-7.45 6.11,-11.18 4.4,-5.29 11.29,-9.62 14.74,-11.85 0.26,-0.17 0.51,-0.33 0.73,-0.47 2.69,-1.8 2.33,-2.28 -2.34,-7.31 -0.46,-0.5 -0.96,-1.03 -1.5,-1.61z"/>
     <path class="fil24" d="M263.79 404.64c-22.24,-4.91 -40.17,-11.34 -55.22,-19.03 -8.99,-4.6 -16.95,-9.64 -24.5,-14.87 -13.67,-4.72 -30.69,-12 -40.8,-16.9 -11.26,-5.44 -13.97,-7.93 -15.21,-10.38 -1.25,-2.45 -1.03,-4.86 2.19,-13.89 0.09,-0.26 0.19,-0.52 0.28,-0.79 -3.88,1.73 -7.51,3.69 -10.64,6.1 -6.71,5.15 -11.19,12.35 -16.83,26.16 -5.64,13.81 -12.45,34.24 -16.14,51.74 -3.7,17.51 -4.28,32.1 -1.95,44.55 2.34,12.45 7.59,22.75 11.19,29.27 3.59,6.52 5.54,9.24 11.86,12.55 6.32,3.3 17.02,7.19 38.42,10.11 21.4,2.92 53.49,4.87 85.2,5.06 31.7,0.19 63.02,-1.36 87.92,-3.11 16.02,-1.13 29.39,-2.34 41.8,-3.57 -2.51,-3.47 -3.92,-6.64 -4.24,-8.9 -0.02,-0.13 -0.03,-0.27 -0.05,-0.4 -0.18,-2.09 0.72,-3.41 3.38,-5.59 2.82,-2.31 7.61,-5.59 11.1,-8.71 3.49,-3.11 5.68,-6.05 7.7,-7.73 2.01,-1.69 3.86,-2.11 8.92,-2.46 0.03,-0.01 0.05,-0.01 0.08,-0.01 0.94,-2.17 1.83,-4.19 2.51,-5.66 -0.72,-0.44 -1.62,-1.02 -2.75,-1.74 -5.5,-3.56 -16.51,-10.68 -26.74,-18.91 -10.24,-8.23 -19.69,-17.57 -26.25,-24.47 -3.04,-3.19 -5.46,-5.86 -7.54,-8.24 -22.58,-2.92 -44.71,-6 -63.69,-10.18z"/>
     <path class="fil21" d="M388.17 473.85c-5.06,0.35 -6.91,0.77 -8.92,2.46 -2.02,1.68 -4.21,4.62 -7.7,7.73 -3.49,3.12 -8.28,6.4 -11.1,8.71 -2.66,2.18 -3.56,3.5 -3.38,5.59 0.66,-0.01 1.24,-0.03 1.74,-0.04 1.76,-0.04 2.35,-0.04 3.91,0.93 1.55,0.96 4.08,2.9 6.14,3.78 2.06,0.88 3.66,0.72 4.92,-0.34 1.26,-1.05 2.19,-2.98 3.66,-4.08 1.47,-1.09 3.49,-1.34 8.49,-1.43 5.01,-0.08 13,0 20.06,3.33 7.07,3.32 13.21,9.88 15.48,14.93 1.66,3.69 1.25,6.57 0.1,8.64 0.81,-1.14 1.62,-2.28 2.32,-3.54 0.96,-1.74 1.71,-3.73 1.95,-6.27 0.42,-4.39 -0.67,-10.44 -2.06,-14.48 -0.72,-2.09 -1.52,-3.64 -2.23,-4.97 -0.66,-1.23 -1.24,-2.27 -1.61,-3.37 -0.76,-2.29 -0.61,-4.84 -0.74,-6.74 -0.02,-0.35 -0.05,-0.68 -0.09,-0.99 -3.83,-3.33 -7.56,-6.56 -11.06,-9.58 -0.43,-0.38 -0.86,-0.75 -1.29,-1.12 -7.18,0.26 -14.07,0.53 -18.51,0.84 -0.03,0 -0.05,0 -0.08,0.01z"/>
     <path class="fil20" d="M390.76 468.18c-0.68,1.47 -1.57,3.49 -2.51,5.66 4.44,-0.31 11.33,-0.58 18.51,-0.84 -3.94,-3.39 -7.62,-6.52 -11.18,-9.56 -0.48,1.35 -0.84,2.53 -1.12,3.44 -0.75,2.48 -0.9,2.98 -3.7,1.3z"/>
     <path class="fil18" d="M395.58 463.44c3.56,3.04 7.24,6.17 11.18,9.56 0.43,0.37 0.86,0.74 1.29,1.12 3.5,3.02 7.23,6.25 11.06,9.58 1.86,1.62 3.74,3.26 5.64,4.92 1.97,-0.73 4.83,-1.33 7.73,-2.68 3.71,-1.73 7.49,-4.67 11.78,-7.74 2.33,-1.67 4.8,-3.37 7.07,-4.81 -5.62,-4.8 -11.19,-9.72 -16.62,-15 -4.5,-4.38 -8.9,-9.01 -13.26,-13.75 -1.43,-1.56 -2.86,-3.13 -4.29,-4.7 -0.22,0.14 -0.47,0.3 -0.73,0.47 -3.45,2.23 -10.34,6.56 -14.74,11.85 -3.1,3.73 -4.96,7.93 -6.11,11.18z"/>
     <path class="fil18" d="M414.82 432.63c4.67,5.03 5.03,5.51 2.34,7.31 1.43,1.57 2.86,3.14 4.29,4.7 0.21,-4.36 0.42,-8.72 0.63,-13.09 -2.37,-0.13 -5.43,-0.32 -8.76,-0.53 0.54,0.58 1.04,1.11 1.5,1.61z"/>
     <path class="fil20" d="M405.99 500.49c-7.06,-3.33 -15.05,-3.41 -20.06,-3.33 -5,0.09 -7.02,0.34 -8.49,1.43 -1.47,1.1 -2.4,3.03 -3.66,4.08 -1.26,1.06 -2.86,1.22 -4.92,0.34 -2.06,-0.88 -4.59,-2.82 -6.14,-3.78 -1.56,-0.97 -2.15,-0.97 -3.91,-0.93 -0.5,0.01 -1.08,0.03 -1.74,0.04 0.02,0.13 0.03,0.27 0.05,0.4 0.32,2.26 1.73,5.43 4.24,8.9 0.09,0.12 0.19,0.25 0.28,0.38 2.69,3.62 6.58,7.52 11.96,10.19 5.39,2.67 12.29,4.1 19.1,5.7 6.82,1.6 13.54,3.36 18.17,4 4.63,0.63 7.15,0.12 9.21,-1.9 0.55,-0.54 1.07,-1.19 1.49,-1.95 1.15,-2.07 1.56,-4.95 -0.1,-8.64 -2.27,-5.05 -8.41,-11.61 -15.48,-14.93z"/>
     <path class="fil21" d="M423.78 499.77c1.39,4.04 2.48,10.09 2.06,14.48 -0.24,2.54 -0.99,4.53 -1.95,6.27 3.26,1.59 6.71,3.01 10.78,3.89 5.8,1.27 12.87,1.43 20.35,2.57 7.49,1.14 15.4,3.24 23.6,3.91 8.2,0.67 16.69,-0.08 24.39,-2.44 7.69,-2.35 14.59,-6.31 19.01,-8.79 4.41,-2.48 6.35,-3.49 6.81,-5.88 0.46,-2.4 -0.55,-6.19 -1.39,-9.17 -0.84,-2.99 -1.51,-5.17 -7.02,-7.11 -5.51,-1.93 -15.86,-3.62 -23.68,-5.51 -7.82,-1.89 -13.12,-3.99 -18.46,-7.78 -5.34,-3.78 -10.72,-9.25 -14.09,-12.11 -3.36,-2.86 -4.71,-3.11 -7.78,-1.64 -1.4,0.68 -3.17,1.71 -5.08,2.93 -2.27,1.44 -4.74,3.14 -7.07,4.81 -4.29,3.07 -8.07,6.01 -11.78,7.74 -2.9,1.35 -5.76,1.95 -7.73,2.68 -0.53,0.2 -1,0.4 -1.39,0.64 -1.81,1.09 -1.81,2.77 -1.81,4.75 0,0.26 0,0.52 0,0.79 0.71,1.33 1.51,2.88 2.23,4.97z"/>
     <path class="fil25" d="M304.69 270.93c0.08,0.2 -0.01,0.42 -0.21,0.49 -0.19,0.08 -0.41,-0.01 -0.48,-0.21 -2.16,-5.35 -4.3,-10.5 -6.39,-15.11 -2.08,-4.59 -4.1,-8.63 -6.02,-11.77 -2.46,-4.01 -4.76,-6.54 -7.28,-8.2 -2.53,-1.66 -5.3,-2.46 -8.71,-3.04 -3.44,-0.57 -7.52,-0.91 -11.34,-1.11 -3.83,-0.2 -7.37,-0.26 -9.73,-0.28 -4.41,-0.05 -4.42,0.04 -4.94,2.7l-0.01 0.04c-0.29,1.5 -0.73,3.74 -1.47,5.96 -0.74,2.25 -1.8,4.47 -3.33,5.9 -1.55,1.44 -3.56,2.06 -5.85,2.08 -2.26,0.02 -4.79,-0.54 -7.44,-1.47 -2.54,-0.9 -5.19,-2.13 -7.81,-3.58 -2.82,-1.55 -5.62,-3.36 -8.24,-5.27 -2.52,-1.85 -4.88,-3.79 -6.87,-5.52 -2.01,-1.75 -3.64,-3.27 -4.72,-4.28 -2.03,-1.89 -2.03,-1.89 -4.15,-1.36l-0.01 0c-2.32,0.58 -6.95,1.74 -10.8,3.04 -1.9,0.64 -3.62,1.32 -5.39,2.52 -1.79,1.2 -3.65,2.93 -5.84,5.67 -2.21,2.77 -4.77,6.56 -7.14,10.27 -2.36,3.71 -4.54,7.34 -5.99,9.76 -2.61,4.36 -2.61,4.36 -0.88,4.65 1.15,0.2 2.87,0.49 4.92,1.24 2.04,0.74 4.4,1.93 6.81,3.92 1.97,1.63 3.97,3.79 5.98,6.26 2,2.46 4.03,5.24 6.06,8.11 0.12,0.17 0.08,0.4 -0.09,0.52 -0.17,0.12 -0.4,0.08 -0.52,-0.09 -2.02,-2.85 -4.03,-5.61 -6.03,-8.06 -1.98,-2.44 -3.95,-4.56 -5.88,-6.16 -2.33,-1.93 -4.61,-3.08 -6.59,-3.8 -1.98,-0.72 -3.66,-1 -4.79,-1.19 -2.81,-0.48 -2.81,-0.48 0.37,-5.79 1.45,-2.42 3.63,-6.04 6,-9.77 2.38,-3.72 4.95,-7.54 7.18,-10.34 2.25,-2.81 4.17,-4.59 6.01,-5.83 1.85,-1.24 3.62,-1.94 5.58,-2.6 3.88,-1.32 8.52,-2.48 10.85,-3.06l0.01 0c2.51,-0.63 2.51,-0.63 4.84,1.54 1.09,1.02 2.73,2.55 4.7,4.26 1.98,1.72 4.31,3.65 6.82,5.48 2.59,1.89 5.37,3.69 8.16,5.23 2.59,1.43 5.2,2.64 7.7,3.52 2.57,0.9 5.02,1.45 7.18,1.43 2.11,-0.01 3.95,-0.58 5.35,-1.88 1.42,-1.33 2.42,-3.44 3.13,-5.58 0.72,-2.17 1.16,-4.38 1.45,-5.87l0 -0.04c0.63,-3.26 0.66,-3.36 5.69,-3.31 2.37,0.02 5.94,0.08 9.76,0.28 3.84,0.2 7.95,0.54 11.43,1.12 3.5,0.59 6.36,1.43 8.99,3.16 2.62,1.72 4.99,4.32 7.51,8.43 1.94,3.17 3.98,7.23 6.07,11.85 2.08,4.61 4.23,9.77 6.39,15.14z"/>
     <path class="fil25" d="M195.35 255.19c0,-0.21 0.17,-0.38 0.38,-0.38 0.21,0 0.38,0.17 0.38,0.38l0 3.48c0,0.21 -0.17,0.38 -0.38,0.38 -0.21,0 -0.38,-0.17 -0.38,-0.38l0 -3.48z"/>
     <path class="fil25" d="M163.78 263.06c0.12,-0.17 0.35,-0.21 0.52,-0.1 0.17,0.12 0.21,0.35 0.1,0.52 -3.01,4.37 -5.99,8.81 -8.91,13.47 -2.91,4.66 -5.75,9.52 -8.45,14.69 -3.03,5.79 -5.92,12.01 -8.48,17.94 -3.35,7.76 -6.13,15 -7.96,20.11 -1.6,4.5 -2.45,7.34 -2.75,9.35 -0.29,1.94 -0.04,3.1 0.54,4.25 0.6,1.18 1.55,2.37 3.73,3.93 2.22,1.6 5.7,3.57 11.31,6.29 6.09,2.94 14.7,6.76 23.58,10.37 7.5,3.04 15.18,5.93 21.67,8 13.53,4.31 21.98,5.11 28.71,5.74l0.97 0.09c1.97,0.19 3.75,0.37 5.4,0.54 4.31,0.44 7.79,0.8 10.59,0.85 1.93,0.04 3.55,-0.07 5.06,-0.32 1.52,-0.24 2.95,-0.62 4.5,-1.13 3.12,-1.01 6.78,-2.54 10.42,-4.08l0.05 -0.01c0.18,-0.06 0.38,0.03 0.45,0.21 0.08,0.18 0,0.38 -0.16,0.47l-0.04 0.03c-3.66,1.53 -7.32,3.07 -10.48,4.1 -1.59,0.52 -3.05,0.9 -4.62,1.16 -1.56,0.25 -3.22,0.36 -5.2,0.32 -2.84,-0.05 -6.33,-0.41 -10.65,-0.85 -1.69,-0.18 -3.5,-0.36 -5.39,-0.54l-0.97 -0.09c-6.76,-0.64 -15.26,-1.44 -28.87,-5.78 -6.53,-2.08 -14.22,-4.97 -21.72,-8.02 -8.88,-3.6 -17.51,-7.43 -23.63,-10.39 -5.65,-2.73 -9.16,-4.73 -11.41,-6.35 -2.3,-1.65 -3.32,-2.93 -3.97,-4.2 -0.65,-1.29 -0.93,-2.57 -0.61,-4.7 0.3,-2.07 1.17,-4.95 2.79,-9.49 1.82,-5.13 4.62,-12.39 7.97,-20.16 2.56,-5.92 5.45,-12.16 8.5,-17.98 2.73,-5.22 5.57,-10.09 8.48,-14.74 2.91,-4.65 5.91,-9.11 8.93,-13.5z"/>
     <path class="fil25" d="M130.38 328.44c0.19,-0.08 0.41,0 0.49,0.19 0.09,0.19 0,0.41 -0.19,0.49 -1.93,0.86 -3.8,1.78 -5.57,2.78 -1.76,1 -3.44,2.08 -4.99,3.28 -3.33,2.55 -6.09,5.6 -8.73,9.73 -2.65,4.16 -5.17,9.39 -7.98,16.27 -3.01,7.37 -6.36,16.63 -9.38,26.34 -2.64,8.44 -5.03,17.21 -6.75,25.34 -1.84,8.73 -2.91,16.74 -3.22,24.11 -0.32,7.36 0.12,14.09 1.28,20.29 1.16,6.19 3.05,11.86 5.1,16.78 2.04,4.94 4.25,9.13 6.05,12.38 1.78,3.24 3.16,5.53 4.86,7.41 1.69,1.87 3.73,3.35 6.85,4.99 3.13,1.64 7.37,3.43 13.48,5.17 6.13,1.75 14.13,3.44 24.81,4.9 10.75,1.47 24.21,2.69 38.97,3.56 14.59,0.87 30.44,1.4 46.18,1.49 15.84,0.1 31.59,-0.24 46.5,-0.82 14.88,-0.58 28.94,-1.41 41.39,-2.29 7.99,-0.56 15.33,-1.14 22.25,-1.74 6.96,-0.6 13.39,-1.21 19.55,-1.83 0.2,-0.02 0.39,0.14 0.41,0.34 0.02,0.21 -0.13,0.39 -0.34,0.41 -6.26,0.62 -12.72,1.24 -19.55,1.83 -6.88,0.59 -14.23,1.18 -22.27,1.74 -12.44,0.88 -26.49,1.7 -41.41,2.29 -14.91,0.58 -30.67,0.92 -46.53,0.82 -15.78,-0.09 -31.64,-0.62 -46.23,-1.49 -14.77,-0.87 -28.25,-2.1 -39.02,-3.57 -10.72,-1.46 -18.76,-3.16 -24.92,-4.92 -6.16,-1.76 -10.44,-3.57 -13.62,-5.23 -3.2,-1.68 -5.3,-3.21 -7.06,-5.15 -1.75,-1.94 -3.15,-4.27 -4.96,-7.55 -1.81,-3.27 -4.03,-7.48 -6.09,-12.45 -2.06,-4.97 -3.96,-10.68 -5.14,-16.93 -1.17,-6.26 -1.61,-13.04 -1.29,-20.46 0.32,-7.42 1.39,-15.46 3.24,-24.23 1.72,-8.17 4.12,-16.96 6.76,-25.42 3.03,-9.71 6.38,-18.99 9.4,-26.39 2.83,-6.93 5.37,-12.2 8.05,-16.39 2.69,-4.21 5.51,-7.33 8.9,-9.93 1.58,-1.21 3.28,-2.31 5.09,-3.33 1.79,-1.02 3.68,-1.94 5.63,-2.81z"/>
     <path class="fil25" d="M183.85 371.05c-0.17,-0.12 -0.21,-0.35 -0.09,-0.52 0.11,-0.18 0.35,-0.22 0.52,-0.1 3.77,2.61 7.64,5.17 11.69,7.66 4.06,2.49 8.29,4.9 12.77,7.19 7.5,3.83 15.74,7.36 24.87,10.54 9.13,3.17 19.16,6 30.26,8.45 9.48,2.09 19.75,3.91 30.47,5.56 10.72,1.66 21.9,3.16 33.19,4.61 0.2,0.03 0.35,0.22 0.32,0.42 -0.03,0.21 -0.21,0.35 -0.42,0.33 -11.29,-1.46 -22.47,-2.96 -33.2,-4.62 -10.74,-1.65 -21.02,-3.47 -30.52,-5.57 -11.14,-2.45 -21.2,-5.29 -30.35,-8.48 -9.16,-3.18 -17.42,-6.72 -24.96,-10.58 -4.51,-2.3 -8.76,-4.72 -12.82,-7.21 -4.06,-2.49 -7.95,-5.06 -11.73,-7.68z"/>
     <path class="fil25" d="M320.83 407.51c-0.13,-0.16 -0.11,-0.4 0.05,-0.53 0.16,-0.13 0.39,-0.11 0.53,0.05 1.83,2.22 3.66,4.44 5.86,6.97 2.19,2.52 4.74,5.36 8.02,8.8 3.67,3.86 8.26,8.49 13.38,13.27 4.01,3.73 8.35,7.56 12.83,11.17 5.11,4.11 10.41,7.94 15.13,11.19 4.73,3.26 8.84,5.92 11.59,7.69 5.08,3.29 5.08,3.29 5.89,0.65 0.95,-3.14 2.85,-9.41 7.3,-14.75 4.25,-5.12 10.8,-9.34 14.39,-11.65l0.43 -0.27c1.58,-1.02 2.37,-1.56 2.22,-2.3 -0.19,-0.88 -1.43,-2.24 -3.91,-4.92l-1.14 -1.23c-5.35,-5.75 -14.83,-15.94 -25.34,-28.42 -10.39,-12.34 -21.75,-26.87 -29.44,-36.69l-1.93 -2.47c-3.8,-4.85 -6.39,-8.14 -8.64,-10.42 -2.22,-2.25 -4.09,-3.52 -6.48,-4.36 -2.41,-0.85 -5.34,-1.27 -8.97,-1.18 -3.65,0.09 -8,0.7 -13.23,1.91 -4.81,1.12 -10.35,2.76 -16.04,4.63 -6.73,2.2 -13.66,4.74 -19.82,7.15 -5.69,2.23 -10.72,4.34 -15.42,6.39 -4.71,2.07 -9.08,4.07 -13.45,6.07 -0.19,0.08 -0.41,0 -0.49,-0.19 -0.09,-0.18 -0.01,-0.41 0.18,-0.49 4.39,-2.01 8.77,-4.02 13.46,-6.07 4.72,-2.07 9.76,-4.19 15.45,-6.41 6.17,-2.41 13.11,-4.96 19.85,-7.17 5.71,-1.87 11.28,-3.51 16.11,-4.64 5.27,-1.23 9.68,-1.84 13.38,-1.93 3.73,-0.09 6.75,0.35 9.24,1.22 2.5,0.88 4.46,2.2 6.76,4.54 2.27,2.31 4.88,5.61 8.7,10.49l1.93 2.47c7.69,9.82 19.06,24.36 29.42,36.67 10.48,12.43 19.97,22.63 25.32,28.39l1.14 1.23c2.58,2.78 3.87,4.2 4.09,5.28 0.25,1.24 -0.68,1.87 -2.55,3.08l-0.43 0.27c-3.55,2.29 -10.04,6.47 -14.22,11.5 -4.34,5.22 -6.22,11.4 -7.16,14.49 -1.09,3.59 -1.09,3.59 -7.01,-0.24 -2.76,-1.78 -6.9,-4.46 -11.61,-7.71 -4.73,-3.26 -10.05,-7.1 -15.17,-11.22 -4.5,-3.62 -8.85,-7.46 -12.87,-11.2 -5.13,-4.79 -9.73,-9.43 -13.41,-13.3 -3.28,-3.45 -5.85,-6.29 -8.05,-8.83 -2.2,-2.53 -4.04,-4.76 -5.87,-6.98z"/>
     <path class="fil25" d="M348.7 353.86c-0.17,0.12 -0.41,0.08 -0.53,-0.09 -0.11,-0.17 -0.07,-0.41 0.1,-0.52l0 -0.01c8.58,-5.9 17.15,-11.8 26.68,-16.43 4.78,-2.32 9.8,-4.32 14.53,-5.82 4.71,-1.5 9.13,-2.5 12.74,-2.84 3.64,-0.34 6.47,0.01 8.71,0.9 2.26,0.9 3.93,2.35 5.25,4.21 1.31,1.85 2.27,4.1 3.14,7.99 0.86,3.86 1.62,9.33 2.54,17.65 0.77,6.92 1.64,15.86 2.48,24.96 1.19,12.75 2.3,25.64 2.97,33.78 0.59,7.06 0.85,10.62 0.53,12.44 -0.38,2.08 -1.4,2.07 -3.37,1.98 -1.24,-0.06 -2.88,-0.16 -4.78,-0.27 -1.92,-0.12 -4.1,-0.25 -6.39,-0.4 -0.21,-0.01 -0.37,-0.19 -0.35,-0.4 0.01,-0.2 0.19,-0.36 0.39,-0.35 2.32,0.15 4.51,0.29 6.4,0.4 1.92,0.12 3.56,0.21 4.77,0.27 1.53,0.07 2.33,0.08 2.59,-1.36 0.31,-1.72 0.05,-5.25 -0.54,-12.25 -0.68,-8.25 -1.8,-21.22 -2.96,-33.77 -0.84,-9.05 -1.71,-17.97 -2.48,-24.94 -0.92,-8.31 -1.68,-13.76 -2.53,-17.58 -0.85,-3.78 -1.77,-5.95 -3.02,-7.72 -1.24,-1.75 -2.8,-3.11 -4.92,-3.94 -2.13,-0.85 -4.84,-1.18 -8.37,-0.85 -3.55,0.33 -7.91,1.32 -12.58,2.8 -4.68,1.49 -9.67,3.48 -14.42,5.79 -9.49,4.6 -18.03,10.49 -26.58,16.37l0 0z"/>
     <path class="fil25" d="M378.09 390.04c0.01,0.21 -0.15,0.39 -0.35,0.4 -0.21,0.01 -0.39,-0.15 -0.4,-0.35 -0.14,-2.3 -0.26,-4.58 -0.32,-6.82 -0.06,-2.24 -0.07,-4.42 0,-6.54 0.11,-3.71 0.44,-7.22 0.89,-10.61 0.45,-3.41 1,-6.68 1.56,-9.96 0.03,-0.21 0.23,-0.34 0.43,-0.31 0.2,0.03 0.34,0.23 0.31,0.43 -0.56,3.29 -1.11,6.57 -1.56,9.94 -0.44,3.37 -0.77,6.85 -0.88,10.53 -0.07,2.1 -0.06,4.28 0,6.5 0.06,2.21 0.18,4.48 0.32,6.79z"/>
     <path class="fil25" d="M316.15 398.22c0.03,0.2 -0.12,0.39 -0.33,0.41 -0.2,0.03 -0.39,-0.12 -0.41,-0.33l-1.34 -11.67c-0.02,-0.21 0.13,-0.4 0.33,-0.42 0.21,-0.02 0.39,0.12 0.42,0.33l1.33 11.68z"/>
     <path class="fil25" d="M185.41 280.47c0.09,-0.19 0.31,-0.27 0.5,-0.17 0.19,0.09 0.27,0.31 0.17,0.5 -3.85,7.89 -7.59,15.54 -10.84,22.22 -3.32,6.81 -6.1,12.55 -7.96,16.42 -2.23,4.66 -3.33,7.03 -3.57,8.36 -0.21,1.12 0.31,1.44 1.31,2 0.9,0.51 2.1,1.17 3.77,2.08 2.68,1.48 6.58,3.62 12.42,6.88l5.07 2.84c8.86,4.96 19.74,11.05 26.25,14.39 3.89,2 6.23,3.02 8.02,3.35 1.73,0.32 2.97,-0.02 4.69,-0.75 2,-0.85 4.63,-2.2 7.15,-3.5 1.95,-1 3.83,-1.97 5.29,-2.64 3,-1.36 4.21,-1.45 7.82,-1.72l1.52 -0.12c1.06,-0.08 2.34,-0.19 3.72,-0.31 4.7,-0.4 10.59,-0.91 14.09,-0.91 4.46,0 5.16,0.81 6.71,2.61l0.22 0.25c0.4,0.46 0.88,1 1.42,1.6 0.55,0.6 1.14,1.24 1.75,1.9 0.15,0.16 0.14,0.39 -0.02,0.54 -0.15,0.14 -0.38,0.13 -0.53,-0.02 -0.63,-0.68 -1.22,-1.33 -1.75,-1.91 -0.53,-0.58 -1.01,-1.12 -1.44,-1.62l-0.22 -0.25c-1.39,-1.62 -2.02,-2.35 -6.14,-2.35 -3.47,0 -9.34,0.51 -14.03,0.91 -1.36,0.12 -2.62,0.22 -3.73,0.31l-1.52 0.12c-3.5,0.26 -4.68,0.35 -7.56,1.65 -1.43,0.66 -3.31,1.63 -5.26,2.63 -2.52,1.3 -5.16,2.66 -7.19,3.52 -1.86,0.78 -3.2,1.15 -5.13,0.8 -1.87,-0.34 -4.26,-1.38 -8.23,-3.42 -6.57,-3.37 -17.43,-9.46 -26.26,-14.41l-5.07 -2.84c-5.7,-3.18 -9.68,-5.37 -12.42,-6.87 -1.69,-0.92 -2.9,-1.59 -3.77,-2.08 -1.31,-0.74 -1.99,-1.16 -1.69,-2.79 0.26,-1.43 1.37,-3.83 3.63,-8.55 2.01,-4.17 4.77,-9.86 7.96,-16.42 3.26,-6.69 6.99,-14.34 10.85,-22.23z"/>
     <path class="fil25" d="M273.63 361.14c0.19,0.08 0.29,0.3 0.21,0.49 -0.08,0.19 -0.29,0.29 -0.49,0.21 -0.79,-0.31 -1.56,-0.63 -2.29,-0.94 -0.73,-0.31 -1.41,-0.63 -2.03,-0.94 -0.87,-0.44 -1.59,-0.87 -2.22,-1.24 -0.76,-0.46 -1.36,-0.81 -1.82,-0.95 -0.47,-0.13 -0.88,-0.04 -1.66,0.15 -0.52,0.12 -1.2,0.28 -2.17,0.44 -1.62,0.26 -4.02,0.52 -6.15,0.74 -1.16,0.12 -2.23,0.24 -3.1,0.35 -2.17,0.27 -2.36,0.44 -3.04,1.06l-0.03 0.02c-0.78,0.71 -2.11,1.9 -3.44,3.09l-0.01 0.01c-0.16,0.14 -0.4,0.13 -0.53,-0.03 -0.14,-0.15 -0.13,-0.39 0.02,-0.53l0.02 -0.01c1.34,-1.2 2.68,-2.4 3.44,-3.08l0.03 -0.03c0.82,-0.74 1.05,-0.95 3.45,-1.25 0.79,-0.1 1.91,-0.22 3.11,-0.34 2.12,-0.23 4.51,-0.48 6.11,-0.74 0.93,-0.15 1.6,-0.31 2.12,-0.43 0.9,-0.22 1.37,-0.33 2.03,-0.14 0.56,0.17 1.2,0.54 2.01,1.02 0.61,0.37 1.33,0.79 2.17,1.22 0.59,0.3 1.26,0.61 1.98,0.92 0.72,0.31 1.49,0.62 2.28,0.93z"/>
     <path class="fil25" d="M250.77 362.86c-0.21,0 -0.38,-0.16 -0.38,-0.37 -0.01,-0.2 0.16,-0.37 0.36,-0.38l0.03 0c3.74,-0.09 7.49,-0.19 9.8,-0.12 1.18,0.04 1.99,0.12 2.74,0.26 0.75,0.15 1.43,0.36 2.34,0.66 1.7,0.56 4.46,1.52 7.22,2.47l0.05 0.02c0.2,0.07 0.3,0.28 0.24,0.48 -0.07,0.19 -0.29,0.3 -0.48,0.23l-0.06 -0.02c-2.67,-0.92 -5.33,-1.84 -7.2,-2.46 -0.89,-0.29 -1.55,-0.5 -2.26,-0.64 -0.71,-0.14 -1.48,-0.21 -2.61,-0.25 -2.3,-0.07 -6.03,0.03 -9.76,0.12l-0.03 0z"/>
     <path class="fil25" d="M252.5 366.71c0.05,-0.2 0.26,-0.32 0.46,-0.27 0.2,0.05 0.32,0.25 0.27,0.45 -0.25,0.96 -0.5,1.93 -0.74,2.78l-0.01 0.02c-0.25,0.9 -0.52,1.76 -0.82,2.54l-0.01 0.02c-0.61,1.57 -1.32,2.78 -2.03,4l-0.02 0.04c-0.11,0.15 -0.32,0.2 -0.49,0.1 -0.17,-0.1 -0.23,-0.3 -0.16,-0.48l0.02 -0.04c0.7,-1.2 1.4,-2.4 1.98,-3.89l0.01 -0.02c0.29,-0.75 0.55,-1.59 0.8,-2.48l0.01 -0.01c0.26,-0.94 0.5,-1.85 0.73,-2.76z"/>
     <path class="fil25" d="M276.82 250.43c-0.04,-0.2 0.1,-0.4 0.3,-0.43 0.21,-0.04 0.4,0.1 0.44,0.3 0.96,4.91 1.93,9.82 3.89,14.43 1.39,3.25 3.28,6.36 5.09,9.33 0.77,1.27 1.53,2.52 2.19,3.68 0.39,0.67 0.75,1.34 1.1,2.01 0.35,0.67 0.67,1.34 0.96,2.01 0.08,0.19 0,0.41 -0.19,0.5 -0.19,0.08 -0.41,-0.01 -0.5,-0.2 -0.28,-0.66 -0.6,-1.31 -0.94,-1.96 -0.33,-0.65 -0.69,-1.31 -1.08,-1.98 -0.71,-1.24 -1.44,-2.45 -2.18,-3.67 -1.83,-3 -3.73,-6.14 -5.14,-9.43 -2,-4.68 -2.97,-9.63 -3.94,-14.58l0 -0.01z"/>
     <path class="fil25" d="M181.11 302.49c-0.1,-0.19 -0.03,-0.41 0.15,-0.51 0.18,-0.1 0.41,-0.04 0.51,0.14 2.07,3.77 4.14,7.53 6.18,11.08 2.02,3.55 3.99,6.85 5.84,9.69 3.71,5.69 6.99,9.55 10.27,13.41l0.02 0.01c0.12,0.17 0.09,0.4 -0.07,0.53 -0.16,0.13 -0.4,0.1 -0.53,-0.07l0 0c-3.29,-3.87 -6.58,-7.75 -10.32,-13.47 -1.86,-2.86 -3.84,-6.18 -5.86,-9.72 -2.02,-3.53 -4.11,-7.31 -6.19,-11.09z"/>
     <path class="fil25" d="M395.34 463.72c-0.16,-0.13 -0.18,-0.37 -0.05,-0.52 0.14,-0.16 0.37,-0.18 0.53,-0.05 2.15,1.84 4.21,3.59 6.06,5.17 2.02,1.74 4.15,3.56 6.42,5.52 2.6,2.24 5.32,4.6 8.12,7.03 2.82,2.45 5.69,4.95 8.58,7.47 0.16,0.13 0.17,0.37 0.04,0.53 -0.14,0.15 -0.38,0.17 -0.53,0.03 -2.93,-2.55 -5.81,-5.06 -8.58,-7.47 -2.8,-2.43 -5.52,-4.78 -8.12,-7.03 -2.17,-1.87 -4.31,-3.7 -6.42,-5.51 -2.29,-1.95 -4.25,-3.63 -6.05,-5.17z"/>
     <path class="fil25" d="M416.88 440.19c-0.14,-0.16 -0.13,-0.39 0.03,-0.53 0.15,-0.14 0.39,-0.13 0.53,0.02 2.86,3.17 5.75,6.32 8.69,9.43 2.92,3.09 5.86,6.11 8.84,9.01 2.72,2.65 5.47,5.19 8.23,7.67 2.76,2.48 5.56,4.91 8.37,7.31 0.16,0.14 0.18,0.38 0.04,0.53 -0.13,0.16 -0.37,0.18 -0.53,0.04 -2.8,-2.39 -5.59,-4.82 -8.38,-7.32 -2.78,-2.5 -5.54,-5.05 -8.25,-7.69 -2.99,-2.91 -5.95,-5.94 -8.87,-9.03 -2.9,-3.07 -5.8,-6.24 -8.7,-9.44z"/>
     <path class="fil25" d="M423.72 520.86c-0.18,-0.09 -0.26,-0.31 -0.17,-0.5 0.09,-0.19 0.31,-0.26 0.5,-0.17 1.62,0.78 3.29,1.53 5.06,2.19 1.76,0.66 3.62,1.23 5.64,1.67 3.28,0.71 6.97,1.07 10.91,1.46 3.03,0.3 6.2,0.61 9.42,1.1 2.8,0.42 5.65,0.98 8.56,1.55 4.87,0.95 9.89,1.94 15.01,2.36 4.14,0.34 8.35,0.31 12.5,-0.1 4.02,-0.41 7.98,-1.17 11.75,-2.33 7.37,-2.25 14.03,-6 18.44,-8.48l0.94 -0.53c3.99,-2.24 5.77,-3.23 6.18,-5.37 0.22,-1.15 0.09,-2.65 -0.21,-4.23 -0.29,-1.6 -0.75,-3.28 -1.17,-4.77 -0.41,-1.45 -0.78,-2.71 -1.69,-3.81 -0.92,-1.11 -2.42,-2.1 -5.1,-3.04 -3.45,-1.22 -8.84,-2.34 -14.31,-3.47 -3.2,-0.66 -6.44,-1.33 -9.33,-2.03 -3.93,-0.95 -7.23,-1.96 -10.21,-3.2 -3,-1.25 -5.68,-2.73 -8.38,-4.64 -3.69,-2.62 -7.38,-6.02 -10.43,-8.82 -1.38,-1.27 -2.63,-2.42 -3.68,-3.31 -1.63,-1.39 -2.77,-2.14 -3.83,-2.37 -1.05,-0.21 -2.09,0.08 -3.55,0.78 -1.38,0.66 -3.14,1.69 -5.03,2.9 -2.26,1.44 -4.74,3.14 -7.06,4.8 -0.77,0.56 -1.48,1.07 -2.17,1.57 -3.43,2.49 -6.57,4.77 -9.67,6.21 -1.92,0.89 -3.81,1.46 -5.45,1.95 -1.51,0.46 -2.8,0.84 -3.64,1.35 -0.81,0.49 -1.21,1.11 -1.41,1.83 -0.21,0.75 -0.21,1.64 -0.21,2.6l0 0.79c0,0.2 -0.17,0.37 -0.38,0.37 -0.21,0 -0.37,-0.17 -0.37,-0.37l0 -0.79c-0.01,-1.01 -0.01,-1.95 0.24,-2.81 0.25,-0.89 0.75,-1.66 1.75,-2.26 0.91,-0.56 2.24,-0.96 3.81,-1.43 1.6,-0.48 3.47,-1.04 5.35,-1.91 3.03,-1.42 6.14,-3.67 9.54,-6.14 0.73,-0.53 1.47,-1.07 2.17,-1.57 2.33,-1.66 4.81,-3.37 7.09,-4.82 1.92,-1.23 3.7,-2.27 5.12,-2.95 1.61,-0.77 2.78,-1.09 4.02,-0.83 1.21,0.25 2.44,1.05 4.17,2.52 1.06,0.91 2.31,2.06 3.7,3.34 3.03,2.79 6.71,6.17 10.36,8.76 2.64,1.87 5.28,3.33 8.22,4.56 2.96,1.22 6.22,2.22 10.11,3.16 2.88,0.69 6.11,1.36 9.3,2.03 5.5,1.14 10.91,2.26 14.41,3.49 2.83,0.99 4.43,2.06 5.43,3.27 1.01,1.22 1.4,2.55 1.83,4.09 0.42,1.5 0.89,3.2 1.19,4.84 0.31,1.66 0.45,3.25 0.21,4.5 -0.48,2.48 -2.35,3.53 -6.55,5.89l-0.94 0.52c-4.44,2.5 -11.13,6.27 -18.59,8.55 -3.82,1.17 -7.83,1.95 -11.9,2.35 -4.19,0.42 -8.45,0.45 -12.63,0.11 -5.17,-0.43 -10.2,-1.41 -15.09,-2.37 -2.9,-0.57 -5.74,-1.13 -8.53,-1.55 -3.24,-0.49 -6.38,-0.8 -9.38,-1.09 -3.97,-0.39 -7.69,-0.76 -11,-1.48 -2.05,-0.44 -3.95,-1.03 -5.74,-1.7 -1.8,-0.67 -3.49,-1.42 -5.13,-2.22z"/>
     <path class="fil25" d="M406.74 472.63c0.21,-0.01 0.38,0.15 0.39,0.36 0.01,0.21 -0.15,0.38 -0.36,0.39 -3.6,0.13 -7.13,0.26 -10.33,0.4 -3.17,0.14 -6.01,0.28 -8.24,0.44 -2.51,0.18 -4.21,0.37 -5.53,0.72 -1.29,0.35 -2.22,0.85 -3.18,1.65 -0.93,0.77 -1.89,1.82 -3.01,3.03 -1.3,1.41 -2.81,3.04 -4.68,4.71 -2.13,1.9 -4.77,3.87 -7.14,5.65 -1.49,1.12 -2.88,2.16 -3.97,3.06 -1.38,1.13 -2.27,2.01 -2.76,2.88 -0.36,0.64 -0.52,1.29 -0.5,2.04l1.37 -0.03c0.91,-0.03 1.52,-0.04 2.12,0.09 0.61,0.12 1.18,0.38 2,0.89 0.43,0.27 0.99,0.64 1.59,1.05l0.02 0.01c1.39,0.95 3.06,2.09 4.48,2.69 0.97,0.42 1.83,0.59 2.58,0.53 0.73,-0.05 1.38,-0.33 1.95,-0.8 0.55,-0.46 1.04,-1.11 1.55,-1.78 0.63,-0.84 1.29,-1.69 2.12,-2.32 0.79,-0.58 1.71,-0.94 3.09,-1.16 1.33,-0.21 3.11,-0.3 5.63,-0.34 2.51,-0.04 5.78,-0.04 9.3,0.39 3.54,0.42 7.34,1.29 10.92,2.97 3.4,1.59 6.58,3.93 9.23,6.48 2.93,2.83 5.22,5.94 6.43,8.63 1.04,2.3 1.29,4.31 1.07,6.01 -0.29,2.17 -1.34,3.84 -2.54,5.01 -1.08,1.06 -2.29,1.73 -3.83,2.04 -1.51,0.31 -3.34,0.28 -5.69,-0.04 -3.57,-0.49 -8.39,-1.65 -13.53,-2.89 -1.45,-0.35 -2.92,-0.7 -4.67,-1.11l-2.16 -0.51c-6.11,-1.41 -12.16,-2.81 -17.02,-5.22 -2.73,-1.35 -5.08,-3.01 -7.08,-4.8 -2,-1.78 -3.66,-3.68 -5.02,-5.51 -1.31,-1.76 -2.35,-3.46 -3.1,-5.01 -0.82,-1.68 -1.32,-3.19 -1.49,-4.44 -0.18,-1.25 -0.04,-2.24 0.53,-3.24 0.54,-0.96 1.49,-1.9 2.93,-3.09 1.1,-0.9 2.5,-1.95 4,-3.08 2.35,-1.76 4.96,-3.72 7.09,-5.62 1.86,-1.66 3.35,-3.26 4.63,-4.65 1.14,-1.23 2.12,-2.3 3.08,-3.09 1.05,-0.88 2.06,-1.43 3.46,-1.8 1.38,-0.37 3.13,-0.57 5.68,-0.75 2.21,-0.16 5.05,-0.3 8.26,-0.44 3.17,-0.14 6.71,-0.27 10.33,-0.4zm-49.25 26.08c0.17,1.16 0.64,2.59 1.42,4.19 0.74,1.51 1.75,3.17 3.03,4.9 1.33,1.78 2.96,3.65 4.92,5.39 1.96,1.74 4.25,3.37 6.91,4.69 4.78,2.36 10.79,3.76 16.86,5.16l2.16 0.5c1.39,0.33 3.05,0.73 4.67,1.12 5.12,1.23 9.91,2.39 13.46,2.87 2.27,0.31 4.02,0.35 5.44,0.06 1.39,-0.29 2.48,-0.89 3.46,-1.84 1.09,-1.08 2.05,-2.6 2.31,-4.57 0.21,-1.58 -0.03,-3.45 -1.01,-5.61 -1.17,-2.61 -3.4,-5.63 -6.26,-8.39 -2.6,-2.51 -5.71,-4.79 -9.03,-6.35 -3.49,-1.64 -7.21,-2.49 -10.69,-2.91 -3.49,-0.42 -6.72,-0.42 -9.2,-0.38 -2.49,0.04 -4.23,0.12 -5.52,0.33 -1.25,0.2 -2.07,0.52 -2.76,1.03 -0.75,0.56 -1.37,1.37 -1.97,2.16 -0.54,0.71 -1.06,1.39 -1.67,1.9 -0.69,0.58 -1.48,0.91 -2.37,0.98 -0.88,0.07 -1.85,-0.12 -2.94,-0.58 -1.48,-0.64 -3.18,-1.8 -4.61,-2.77l-0.02 -0.01c-0.56,-0.39 -1.09,-0.74 -1.56,-1.04 -0.74,-0.45 -1.24,-0.68 -1.75,-0.79 -0.53,-0.11 -1.1,-0.1 -1.95,-0.08l-1.33 0.04z"/>
     <path class="fil25" d="M421.88 524.28c-0.12,0.17 -0.36,0.21 -0.52,0.09 -0.17,-0.12 -0.21,-0.36 -0.09,-0.53 1.9,-2.67 3.79,-5.34 4.2,-9.63 0.19,-2.02 0.06,-4.42 -0.28,-6.8 -0.39,-2.71 -1.04,-5.39 -1.77,-7.52 -0.77,-2.25 -1.64,-3.87 -2.39,-5.26 -0.58,-1.1 -1.1,-2.06 -1.44,-3.08 -0.6,-1.79 -0.65,-3.7 -0.7,-5.36 -0.01,-0.51 -0.03,-1 -0.06,-1.47l0 -0.01c-0.01,-0.18 -0.03,-0.34 -0.04,-0.49l-0.05 -0.47c-0.03,-0.2 0.11,-0.39 0.32,-0.42 0.2,-0.03 0.39,0.12 0.42,0.32l0.06 0.5c0.01,0.17 0.03,0.34 0.04,0.51l0 0.01c0.03,0.45 0.04,0.96 0.06,1.5 0.05,1.6 0.1,3.46 0.66,5.14 0.32,0.96 0.82,1.9 1.4,2.96 0.76,1.42 1.64,3.08 2.44,5.38 0.74,2.16 1.4,4.9 1.79,7.65 0.35,2.44 0.49,4.89 0.29,6.98 -0.43,4.49 -2.39,7.24 -4.34,10z"/>
     <path class="fil25" d="M388.59 473.99c-0.08,0.19 -0.3,0.28 -0.49,0.19 -0.19,-0.08 -0.28,-0.3 -0.2,-0.49l1.36 -3.09c0.41,-0.92 0.79,-1.79 1.15,-2.58 0.09,-0.19 0.31,-0.27 0.5,-0.18 0.19,0.08 0.27,0.3 0.19,0.49 -0.32,0.69 -0.71,1.57 -1.15,2.57l-1.36 3.09z"/>
     <path class="fil25" d="M421.71 431.54c0.01,-0.21 0.18,-0.37 0.39,-0.36 0.21,0.01 0.37,0.18 0.36,0.39l-0.63 13.09c-0.01,0.21 -0.19,0.37 -0.4,0.36 -0.2,-0.01 -0.36,-0.19 -0.35,-0.39l0.63 -13.09z"/>
     <path class="fil25" d="M381.4 334.57c-0.04,0.2 -0.25,0.33 -0.45,0.28 -0.2,-0.05 -0.33,-0.25 -0.28,-0.45l17.35 -73.47 -105.24 11.82 -19.85 93.19c-0.04,0.2 -0.24,0.33 -0.45,0.29 -0.2,-0.05 -0.33,-0.25 -0.29,-0.45l19.91 -93.45c0.04,-0.15 0.17,-0.28 0.33,-0.3l106.02 -11.9c0.05,-0.01 0.09,-0.01 0.14,0 0.2,0.05 0.33,0.25 0.28,0.45l-17.47 73.99z"/>
     <path class="fil25" d="M233.5 216.04c-0.14,-0.15 -0.14,-0.39 0.01,-0.53 0.15,-0.15 0.39,-0.14 0.53,0.01 10.91,11.41 23.03,8.98 23.07,8.98l0.01 0c27.23,-4.74 16.17,-55.56 14.67,-61.92 -2.34,2.28 -13.39,11.93 -35.9,15.89l-5.58 12.43c-0.08,0.19 -0.31,0.28 -0.49,0.19 -0.05,-0.02 -0.09,-0.05 -0.12,-0.08l-7.98 -8.26c-1.2,-0.01 -9.16,0.2 -8.03,7.91 1.25,8.6 8.11,12.86 8.13,12.87 0.14,0.09 0.2,0.27 0.15,0.43l-9.03 27.76c-0.06,0.2 -0.28,0.31 -0.47,0.24 -0.2,-0.06 -0.31,-0.27 -0.24,-0.47l8.94 -27.49c-1.27,-0.87 -7.07,-5.27 -8.23,-13.24 -1.32,-9.08 8.62,-8.76 8.95,-8.75 0.1,0 0.19,0.04 0.27,0.11l7.69 7.97 5.43 -12.09c0.04,-0.12 0.15,-0.22 0.29,-0.24 25.45,-4.42 36.12,-16.14 36.15,-16.17 0.05,-0.06 0.12,-0.1 0.19,-0.11 0.2,-0.05 0.4,0.07 0.45,0.27 0.04,0.17 14.71,58.3 -15.12,63.49 -0.25,0.04 -12.65,2.4 -23.74,-9.2z"/>
     <path class="fil25" d="M244.51 223.3c0.01,-0.2 0.19,-0.36 0.4,-0.35 0.21,0.01 0.36,0.19 0.35,0.39l-1.05 18.13c-0.01,0.21 -0.19,0.37 -0.39,0.36 -0.21,-0.01 -0.37,-0.19 -0.36,-0.4l1.05 -18.13z"/>
     <path class="fil25" d="M275.89 186.88c-0.05,0.2 -0.26,0.33 -0.46,0.28 -0.2,-0.05 -0.32,-0.25 -0.27,-0.45 0.01,-0.07 5.8,-23.25 0.21,-31.96l-3.19 -1.51c-0.15,-0.07 -0.24,-0.25 -0.2,-0.41 0.13,-1 3.7,-30.78 -52.99,-12.51 -0.14,0.04 -0.28,0 -0.37,-0.09 -0.05,-0.04 -17.15,-16.35 -34.54,2.47 -10.72,11.61 -4.06,23.16 2.16,33.94 3.91,6.78 7.65,13.26 6.91,19.36 -1.61,13.24 -5.26,22.84 -6.37,25.54 3.13,-1.14 14.87,-6.46 18.58,-22.92 0.05,-0.2 0.25,-0.33 0.45,-0.28 0.06,0.01 0.11,0.04 0.15,0.07l13.91 11.24c0.16,0.13 0.18,0.37 0.05,0.53 -0.13,0.16 -0.36,0.18 -0.52,0.05l-13.44 -10.86c-4.48,18.57 -19.07,22.96 -19.72,23.14 -0.09,0.04 -0.19,0.04 -0.28,0 -0.19,-0.09 -0.28,-0.31 -0.2,-0.5 0.02,-0.03 4.74,-10.51 6.64,-26.1 0.72,-5.86 -2.96,-12.23 -6.81,-18.9 -6.35,-11 -13.16,-22.8 -2.06,-34.82 16.94,-18.34 33.64,-4.26 35.44,-2.65 55.41,-17.79 54.08,10.08 53.78,13.14l3.04 1.44c0.06,0.03 0.11,0.07 0.15,0.13 5.87,8.92 -0.04,32.56 -0.05,32.63z"/>
     <path class="fil25" d="M244.72 229.08c0.18,0.1 0.24,0.33 0.14,0.51 -0.09,0.18 -0.32,0.25 -0.51,0.15 -0.02,-0.01 -7.2,-3.91 -10.93,-13.83 -0.07,-0.19 0.03,-0.41 0.22,-0.48 0.19,-0.08 0.41,0.02 0.48,0.22 3.64,9.65 10.58,13.42 10.6,13.43z"/>
     <path class="fil25" d="M265.83 187.77c-0.11,-0.18 -0.06,-0.41 0.11,-0.52 0.18,-0.12 0.41,-0.07 0.52,0.11 0.03,0.04 10.19,15.29 -1.69,14.8 -0.21,0 -0.37,-0.18 -0.36,-0.39 0,-0.2 0.18,-0.36 0.38,-0.36 10.41,0.43 1.07,-13.6 1.04,-13.64z"/>
     <path class="fil25" d="M265.32 208.54c-1.88,0.51 -5.99,1.2 -12.86,0.34 1.32,2.07 6.01,7.95 12.86,-0.34zm-13.52 -0.5c10.22,1.41 14.42,-0.59 14.43,-0.59 0.13,-0.06 0.27,-0.05 0.39,0.04 0.16,0.12 0.2,0.36 0.07,0.52 -9.19,12.29 -15.13,0.86 -15.27,0.58 -0.04,-0.07 -0.05,-0.15 -0.04,-0.23 0.03,-0.21 0.22,-0.35 0.42,-0.32z"/>
     <path class="fil25" d="M253.63 178.48c0.18,0.1 0.25,0.32 0.15,0.51 -0.1,0.18 -0.33,0.24 -0.51,0.14 -0.01,0 -3.65,-2.14 -9.36,1.36 -0.18,0.11 -0.41,0.05 -0.52,-0.12 -0.11,-0.18 -0.05,-0.41 0.13,-0.52 6.08,-3.73 10.1,-1.38 10.11,-1.37z"/>
     <path class="fil25" d="M267.52 178.87c-0.19,0.08 -0.41,-0.01 -0.49,-0.2 -0.08,-0.19 0,-0.41 0.19,-0.49 0.02,-0.01 4.48,-1.97 6.91,0.37 0.15,0.14 0.15,0.38 0.01,0.53 -0.15,0.15 -0.38,0.16 -0.53,0.01 -2.07,-1.99 -6.07,-0.23 -6.09,-0.22z"/>
     <path class="fil20" d="M250.59 186.44c0.84,-0.07 1.62,0.92 1.74,2.22 0.12,1.31 -0.46,2.43 -1.29,2.51 -0.84,0.07 -1.62,-0.92 -1.74,-2.22 -0.13,-1.31 0.46,-2.43 1.29,-2.51z"/>
     <path class="fil25" d="M250.56 186.07c0.55,-0.05 1.07,0.23 1.47,0.73 0.35,0.46 0.61,1.1 0.68,1.83 0.06,0.72 -0.07,1.4 -0.33,1.92 -0.29,0.56 -0.75,0.94 -1.31,0.99 -0.55,0.05 -1.08,-0.23 -1.47,-0.73 -0.35,-0.46 -0.61,-1.1 -0.68,-1.83 -0.06,-0.72 0.07,-1.4 0.33,-1.92 0.29,-0.56 0.75,-0.94 1.31,-0.99zm0.88 1.2c-0.24,-0.31 -0.53,-0.48 -0.81,-0.45 -0.28,0.02 -0.54,0.25 -0.71,0.59 -0.2,0.39 -0.3,0.92 -0.25,1.5 0.05,0.58 0.25,1.09 0.52,1.43 0.24,0.31 0.53,0.48 0.81,0.45 0.28,-0.02 0.53,-0.25 0.71,-0.59 0.2,-0.39 0.3,-0.92 0.25,-1.5 -0.05,-0.58 -0.25,-1.09 -0.52,-1.43z"/>
     <path class="fil20" d="M271.42 184.53c0.84,-0.08 1.62,0.92 1.74,2.22 0.12,1.3 -0.46,2.42 -1.3,2.5 -0.83,0.08 -1.61,-0.91 -1.73,-2.22 -0.13,-1.3 0.45,-2.42 1.29,-2.5z"/>
     <path class="fil25" d="M271.39 184.16l0.04 -0.01c0.54,-0.03 1.04,0.25 1.43,0.74 0.35,0.45 0.61,1.1 0.67,1.83l0.01 0.03c0.06,0.71 -0.07,1.38 -0.33,1.88 -0.3,0.57 -0.76,0.94 -1.31,1l-0.04 0c-0.54,0.03 -1.04,-0.25 -1.43,-0.74 -0.35,-0.45 -0.61,-1.1 -0.68,-1.82l0 -0.04c-0.06,-0.71 0.07,-1.38 0.33,-1.88 0.29,-0.56 0.75,-0.94 1.31,-0.99l0 0zm0.88 1.19c-0.23,-0.29 -0.51,-0.46 -0.79,-0.45l-0.05 0.01c-0.27,0.03 -0.51,0.25 -0.68,0.58 -0.2,0.39 -0.3,0.91 -0.25,1.48l0 0.06c0.06,0.56 0.25,1.06 0.52,1.4 0.23,0.29 0.51,0.46 0.78,0.45l0.06 0c0.27,-0.04 0.51,-0.26 0.68,-0.59 0.2,-0.39 0.3,-0.91 0.25,-1.47l0 -0.07c-0.06,-0.56 -0.26,-1.06 -0.52,-1.4z"/>
     <polygon class="fil26" points="202.12,225.99 214.33,225.86 214.33,226.61 202.12,226.74 "/>
     <polygon class="fil25" points="250.08,232.2 244.39,231.34 244.5,230.6 250.19,231.46 "/>
    </g>
    <path class="fil20" d="M292.78 272.75l-18.92 88.8c0,0.01 0,0.03 -0.01,0.05l-0.77 3.63c3.18,-1.34 6.54,-2.71 10.16,-4.13 6.17,-2.41 13.11,-4.96 19.85,-7.17 5.71,-1.87 11.28,-3.51 16.11,-4.64 5.27,-1.23 9.68,-1.84 13.38,-1.93 3.73,-0.09 6.75,0.35 9.24,1.22 2.48,0.88 4.43,2.18 6.71,4.49 8.49,-5.85 16.98,-11.68 26.42,-16.26 1.89,-0.92 3.83,-1.79 5.76,-2.6l17.31 -73.28 -105.24 11.82z"/>
   </g>
  </g>
  <g>
   <path class="fil4 str2" d="M443.54 158.32c0,22.36 -18.12,40.49 -40.48,40.49 -22.35,0 -40.48,-18.13 -40.48,-40.49 0,-22.35 18.13,-40.48 40.48,-40.48 22.36,0 40.48,18.13 40.48,40.48z"/>
   <path id="1" class="fil27" d="M443.54 158.32c0,22.36 -18.12,40.49 -40.48,40.49 -22.35,0 -40.48,-18.13 -40.48,-40.49 0,-22.35 18.13,-40.48 40.48,-40.48 22.36,0 40.48,18.13 40.48,40.48z"/>
  </g>
  <g>
   <path class="fil4 str2" d="M403.06 191.24c-18.14,0 -32.91,-14.77 -32.91,-32.91 0,-18.15 14.77,-32.91 32.91,-32.91 18.15,0 32.91,14.76 32.91,32.91 0,18.14 -14.76,32.91 -32.91,32.91z"/>
   <path id="1" class="fil28" d="M403.06 191.24c-18.14,0 -32.91,-14.77 -32.91,-32.91 0,-18.15 14.77,-32.91 32.91,-32.91 18.15,0 32.91,14.76 32.91,32.91 0,18.14 -14.76,32.91 -32.91,32.91z"/>
  </g>
  <g>
   <path class="fil4 str2" d="M403.06 161.75c-0.25,0 -0.5,-0.12 -0.66,-0.33l-16.14 -21.74c-0.27,-0.36 -0.2,-0.88 0.17,-1.15 0.36,-0.27 0.88,-0.19 1.15,0.17l15.75 21.21 17.91 -7.86c0.41,-0.18 0.9,0.01 1.08,0.42 0.18,0.42 -0.01,0.91 -0.42,1.09l-18.51 8.12 -0.33 0.07z"/>
   <path id="1" class="fil29" d="M403.06 161.75c-0.25,0 -0.5,-0.12 -0.66,-0.33l-16.14 -21.74c-0.27,-0.36 -0.2,-0.88 0.17,-1.15 0.36,-0.27 0.88,-0.19 1.15,0.17l15.75 21.21 17.91 -7.86c0.41,-0.18 0.9,0.01 1.08,0.42 0.18,0.42 -0.01,0.91 -0.42,1.09l-18.51 8.12 -0.33 0.07z"/>
  </g>
 </g>
</svg>
