<?xml version="1.0" encoding="UTF-8"?>
<svg id="Layer_1" xmlns="http://www.w3.org/2000/svg" version="1.1" viewBox="0 0 7000 5000">
  <!-- Generator: Adobe Illustrator 29.5.1, SVG Export Plug-In . SVG Version: 2.1.0 Build 141)  -->
  <defs>
    <style>
      .st0 {
        fill: #f8e4ce;
      }

      .st1 {
        fill: #fdbda3;
      }

      .st2 {
        fill: #fd9495;
      }

      .st3 {
        fill: #072744;
      }

      .st4 {
        fill: #33a3be;
      }

      .st5 {
        fill: #5ec1d6;
      }

      .st6 {
        fill: #bda8aa;
      }

      .st7 {
        fill: #f1ebed;
      }

      .st8 {
        fill: #d9e9ec;
      }

      .st9 {
        fill: #3c425b;
      }

      .st10 {
        fill: #18779f;
      }

      .st11 {
        fill: #fff;
      }

      .st12 {
        fill: #d0a382;
      }

      .st13 {
        fill: #fe2d39;
      }

      .st14 {
        fill: #7cdef0;
      }

      .st15 {
        fill: #f7f1d8;
      }

      .st16 {
        fill: #d5c3bf;
      }

      .st17 {
        fill: #ffd30a;
      }

      .st18 {
        fill: #f97272;
      }

      .st19 {
        fill: #81593e;
      }

      .st20 {
        fill: #f8cbb4;
      }

      .st21 {
        fill: #6ccbd1;
      }

      .st22 {
        fill: #242d39;
      }

      .st23 {
        fill: #bec7c9;
      }

      .st24 {
        fill: #fbc3b7;
      }

      .st25 {
        fill: #f89211;
      }

      .st26 {
        fill: #a46941;
      }

      .st27 {
        fill: #a5989f;
      }

      .st28 {
        fill: #d2b3af;
      }

      .st29 {
        fill: #e47d6c;
      }

      .st30 {
        fill: #8f8896;
      }

      .st31 {
        fill: #7aa7b3;
      }

      .st32 {
        fill: #fa9970;
      }

      .st33 {
        fill: #818594;
      }

      .st34 {
        fill: #27324a;
      }

      .st35 {
        fill: #f8f1e5;
      }

      .st36 {
        fill: #f1c7a1;
      }

      .st37 {
        fill: #181a3e;
      }

      .st38 {
        fill: #ae7953;
      }

      .st39 {
        fill: #fba40b;
      }

      .st40 {
        fill: #fcf9d2;
      }
    </style>
  </defs>
  <g id="Generative_Object">
    <path class="st4" d="M4277,1086c15.3-2.9,61.7,85.2,90.6,96.1l-101.6,85.1c-15.5-52.3-58.7-58.1-79.6-96.1,22.7-4.9,84.5-83.9,90.6-85.1Z"/>
    <path class="st13" d="M2970.5,959.7c73.3-21.2,96.8,98.2,16.5,87.8-48.4-6.2-54.1-76.9-16.5-87.8Z"/>
    <path class="st17" d="M3535.9,954.2c31.9,49.8-5.6,50.8,68.6,63.1-45.1,30.1-46.3,7.9-57.6,68.6-33.6-37-13.4-48.5-74.1-57.6,12.5-22.7,36.5-5.5,49.4-22,9.9-12.6-.3-48.4,13.7-52.2Z"/>
    <path class="st4" d="M1131.4,806c39.8,43.9,59.7,117.7,71.4,175.7-21.3,12.4-87.3-152.8-71.4-175.7Z"/>
    <path class="st4" d="M895.4,992.7c66.9,2.3,124.8,43.8,178.4,79.6-5.7,9.7-15.8,4.9-24.7,2.7-16.1-3.9-103.3-40.5-120.8-49.4-9.5-4.9-43.2-16.3-32.9-32.9Z"/>
    <path class="st4" d="M1400.4,795c21.9.3-44.5,187.8-54.9,186.7-22.1-25.7,43-186.8,54.9-186.7Z"/>
    <path class="st4" d="M1636.5,965.2c5-.3,10.7-1.6,13.7,2.7,5,9.5-165.5,107.8-186.7,104.3-4.8-10,154.1-106,172.9-107Z"/>
    <g>
      <path class="st17" d="M2619.1,1047.6c7.9.6,25.4,32.3,27.4,32.9,4.5,1.3,64.4-52.8,79.6,2.7,14,51.2-44.4,101.8-79.6,129-54.8-14.9-92.2-169.9-27.4-164.7Z"/>
      <path class="st11" d="M2679.5,1097c9.5-5.9,11.7,19.2,5.5,22-10.1,4.6-11.5-18.2-5.5-22Z"/>
      <path class="st35" d="M2696,1080.5c12-5.5,15.5,17.9,5.5,16.5-.9-.1-9.1-14.8-5.5-16.5Z"/>
    </g>
    <g>
      <path class="st17" d="M1663.9,3133.6c19.3-4.4,57.5,76,90.6,79.6l-85.1,90.6c-34-26.6-42.5-59.5-85.1-79.6l79.6-90.6Z"/>
      <path class="st40" d="M1652.9,3188.5c6.9,19.9-32.3,30.4-46.7,30.2l46.7-30.2Z"/>
      <polygon class="st7" points="1663.9 3161.1 1672.2 3163.8 1663.9 3172.1 1661.2 3169.3 1663.9 3161.1"/>
      <polygon class="st11" points="1647.5 3227 1655.7 3229.7 1652.9 3238 1650.2 3235.2 1647.5 3227"/>
    </g>
    <g>
      <path class="st13" d="M1455.3,2842.7c79.5,11.2,17.3,116.5-22,142.7-62.5-49.4-97.5-159.5,22-142.7Z"/>
      <path class="st11" d="M1433.4,2875.6c23.5-5.9,33.9,31.7,11,38.4s-29.8-33.7-11-38.4Z"/>
    </g>
    <g>
      <path class="st9" d="M4153.5,1607.5c-25.7,12.7-54.3-4.8-65.9,30.2,22.7-9.3,59.8,19.8,63.1,19.2s-1.4-19.1,35.7-11c36.7,35.9,72.7,79.2,32.9,131.8-.8,1-15.9,11.9-19.2,16.5-21.4-46.4-90.4-89.1-140-63.1,25.4,16.2,90.3,15.5,109.8,43.9,36.6,53.5-33.2,68.7-19.2,85.1,36.6-4.4,35.2-26.2,74.1-38.4,54.5,45-2.1,99.9-22,142.7-3.5,7.5-15.3,36.4-16.5,38.4-12.5,22-17.7,43-38.4,60.4s-7.8-5.8-8.2-5.5c-5.4,3.6-20.2,27.2-22,27.4-5.7.7-97.6-36.2-96.1,13.7.3,10.1,36,40.1,22,63.1-14.3,31.3-46.6,24.8-60.4,49.4-37.1.4-66.2-32-79.6-5.5-2.4-13.1-19.6-86-19.2-90.6s28.8-43.2,32.9-54.9,13.8-72,16.5-76.9c3.3-6.2,88.5-14.7,93.3-93.3,2.2-35.5-27.1-62.2-27.4-65.9-.5-5.5,16.9-27.6,11-54.9-81.4-373.2-599-433.2-675.2-82.3s15.5,152.6,11,159.2c-3,4.5-24.3,2.5-30.2,8.2-42.2,40.9-44.1,102.3,11,131.8,10.1,5.4,54.2,10.5,57.6,13.7s31.7,93.1,43.9,115.3c12.1,22,61,46.7,32.9,74.1-23.5,9.4-44.4,22.2-71.4,22-12.5-6.8-14.6-30.2-16.5-32.9s3-3.9-5.5-11-82.2,29.8-93.3-24.7c-5.7-28.1,21.3-53-5.5-57.6-10.1-1.7-22.8,1.7-32.9,0-4.7-18.9-37-12.8-43.9-35.7-7.4-24.7,13.2-83.8,11-87.8s-64.9-18-71.4-49.4c-9-44,37.3-61.5,38.4-71.4.4-3.7-32.1-53.4-32.9-65.9-3.4-53.1,57.9-64.1,60.4-71.4s-65-48.3-27.4-109.8c20.1-33,90.4-34.2,93.3-38.4,9.1-12.9-27.8-76.4,13.7-112.5,41.4-36,93.1,6.1,101.6-8.2-7.5-105.3,79.8-136.8,145.5-52.2,49-132.3,121.5-20.3,137.2-22,3.7-.4,36.9-40.7,54.9-43.9,71.4-12.7,81.1,75,93.3,76.9,6.2,1,59.2-54.6,115.3-22,15.1,8.8,35.9,53.6,43.9,54.9,11.7,1.8,33.1-34.2,71.4-16.5,31.4,14.6,30.5,72.7,35.7,79.6,12.6,16.6,120.8,28.8,76.9,118Z"/>
      <path class="st11" d="M3368.5,2167.5c-82.4,55.1-119.4,3.5-98.8-82.3,26.8,4.6-.2,29.6,5.5,57.6,11.1,54.5,81.4,14.8,93.3,24.7Z"/>
      <path class="st6" d="M4148,2063.2c20.8-17.4,25.9-38.4,38.4-60.4l22-13.7c-8.3,22.6-31.6,67.7-49.4,82.3-7.4,6.1-21.9,6.1-11-8.2Z"/>
      <path class="st33" d="M3390.4,2216.9v-5.5c27,.2,47.8-12.5,71.4-22,4.8-1.9,22.6-16.8,22-2.7-27.2,13.4-60.3,37.3-93.3,30.2Z"/>
      <path class="st3" d="M4008,1448.3c44.2-8.6,54.7,37.5,32.9,38.4s-15-21.4-16.5-22c-32.9-12.4-61.6,55.1-71.4,49.4-8.4-22.9,37.9-62.5,54.9-65.9Z"/>
      <path class="st3" d="M3980.6,2145.5c1.2-.2,21.4,2.2,24.7,2.7-4.1,34.7-53.1,39.1-76.9,22-.4-6.4,46.6-23.9,52.2-24.7Z"/>
      <path class="st3" d="M3223,1678.9c3.3-.8,65.8,1.8,63.1,13.7-6.3,18.8-101.8-4.5-63.1-13.7Z"/>
      <path class="st34" d="M3179.1,1777.7c2-1.2,37.4,25.3,38.4,27.4,17.6,36.7-60.4-14.7-38.4-27.4Z"/>
    </g>
    <g>
      <path class="st3" d="M4049.2,2118.1c.7,16.7,1.8,27.9-5.5,43.9,14-23.1-21.6-53.1-22-63.1-1.6-49.9,90.4-13,96.1-13.7s16.5-23.9,22-27.4,5.7,7.6,8.2,5.5c-10.9,14.4,3.6,14.3,11,8.2,17.8-14.7,41.1-59.7,49.4-82.3l-22,13.7c1.1-2,13-30.9,16.5-38.4,50.1-7.4,89.8-149,30.2-153.7-12.5-1-7.6,10.8-8.2,11-38.9,12.2-37.5,34-74.1,38.4-14-16.4,55.8-31.6,19.2-85.1-19.5-28.5-84.4-27.7-109.8-43.9,49.6-25.9,118.6,16.7,140,63.1,3.3-4.6,18.4-15.5,19.2-16.5-3.2,21.9,15.8-6.9,16.5-8.2,31.1-63.1,2.6-132.8-68.6-145.5-.6,7.4,12.8,15.7,19.2,22-37.1-8.1-33.3,10.5-35.7,11-3.4.6-40.4-28.5-63.1-19.2,11.5-35,40.2-17.5,65.9-30.2,34.7-17.1,19.7-77.7,0-101.6s-58.9-21.5-63.1-24.7c-6.9-5.2-15.1-73.3-49.4-87.8-40.2-17-67.5,16.9-71.4,16.5-13.7-1.4-19.6-40.8-24.7-46.7-55.9-64.9-125.5,10.2-134.5,8.2-11.9-2.6-20.6-99.5-104.3-71.4-10.7,3.6-41,38.1-43.9,38.4-15.9,2.1-29.7-33.8-49.4-38.4-66.8-15.7-80,58.5-93.3,60.4-16.8,2.4-40.2-67.9-109.8-38.4-41.7,17.7-39.9,95.3-49.4,98.8s-72.9-45.1-107,19.2c-21.6,40.7,3.5,99.1,0,104.3-11.1,16.5-198,22.6-71.4,153.7-126.7,32.2-28.7,128.8-32.9,142.7-.7,2.4-35.3,22.5-38.4,32.9-17,57.1,32.1,102.8,87.8,98.8-49.1,59.9-39,99.4,38.4,112.5,10.1,1.7,22.8-1.7,32.9,0-20.6,85.9,16.4,137.4,98.8,82.3,8.5,7,4.3,9.2,5.5,11-28.1,31.3-8.6,33,16.5,38.4,33,7.1,66.2-16.8,93.3-30.2.6-14.1-17.2.8-22,2.7,28.1-27.4-20.9-52.1-32.9-74.1-12.2-22.2-39.4-111-43.9-115.3s-47.6-8.3-57.6-13.7c-55.1-29.4-53.2-90.9-11-131.8,5.9-5.7,27.2-3.8,30.2-8.2,4.5-6.6-17.6-128.6-11-159.2,76.3-350.8,593.8-290.8,675.2,82.3,6,27.3-11.5,49.4-11,54.9.4,3.7,29.6,30.4,27.4,65.9-4.9,78.6-90,87.2-93.3,93.3-2.6,4.9-11,61.4-16.5,76.9s-32.6,50.9-32.9,54.9,16.9,77.5,19.2,90.6c13.4-26.5,42.5,5.9,79.6,5.5,45.2-.5,133.8-48.1,76.9-93.3,66-1,43.6,66.9,2.7,93.3-55.4,35.8-107.7,20.1-167.4,8.2l24.7,178.4c53,9.2,108.5,21.2,159.2,38.4,23.8,8.1,161.1,66.5,170.2,65.9,11.9-.9,41.7-37.4,54.9-43.9,111.2-54.9,213.9-44.7,334.9-43.9l24.7-156.5c-104.8-1.9-191.3-61.3-214.1-164.7-3-13.4,10.6-35.7,5.5-54.9-.9-3.5-34.6-35.7-38.4-43.9-158.2-336.7,211.2-759.8,595.6-551.7,105.9,57.3,203.8,115.8,233.3,249.8,22.1,100.2,1.4,229.5-60.4,312.9-17.7,23.9-87.6,69.1-82.3,93.3,4,18.1,244.3,195.9,280,241.5,25.5,32.6,39.3,83.1,54.9,104.3,24.1,32.8,74.6,56.8,98.8,98.8,31.5,54.6,19.1,94.7,32.9,137.2,10.4,32.1,55.3,77.9,68.6,112.5,15.9-7.3-43.2-161.4-46.7-178.4-4.8-23.5,11.3-31.2,11-32.9-7.8-36.3-37.8-179.5-49.4-203.1-19.6-39.6-74-52.8-87.8-126.3-13.2-70.3,23.8-98.4,22-142.7-2.4-57.7-69.6-211.9-82.3-285.5-5.3-30.3-26-117.4,13.7-129,80.2-23.4,117.4,212.5,142.7,263.5,7.6-40.6-11.1-339,82.3-291,63.6,32.7.6,292.2,19.2,326.6,18.1,33.6,71-22,107-13.7,64.7,14.8,59.9,220.4,52.2,271.7-6.6,43.8-37.2,72.6-54.9,109.8,104.3,318.3,287,636.7,312.9,971.7-10.5,91.1-67.6,180.2-167.4,183.9-190.7,7.1-449.8-330.6-570.9-461.1-31.8,215.1-87.1,432.9-79.6,650.5l71.4,241.5c22.2,28.5,366.9-10.9,414.5,8.2,6,2.4,10.8,13,8.2,19.2-321.8,15.1-644.2,5.7-966.2,13.7-104.1-8-208.6-5.1-312.9-5.5-1266.2-5.1-2532.9,10.7-3798.9-8.2l8.2-13.7,1303.8-13.7c-1.5-91.7,12.9-183.3,16.5-274.5,6.8-172.9,15.6-683.9-49.4-823.5-60-128.9-414.7-257-444.7-329.4-17.8-43,8.8-104.3,5.5-115.3-2.7-9.2-131-99.3-151-118-44.7-42-302.9-332.5-310.2-370.6-4.9-26,11.4-62.6,11-65.9-2.6-18.6-136.1-110-153.7-170.2-59.7-203.7,36.6-492.8,266.3-535.2,49.7-9.2,228.3-25.7,148.2,60.4,123.4,17.8,318.7-30.7,433.7-5.5,41.9,9.2,49.6,48.8,46.7,85.1-3.5,43.2-74.9,297.7-98.8,329.4-13.5,17.9-46.8,42.6-68.6,46.7-132.4,24.4-335.3-20.6-474.9,2.7,30.3,45.9,59.5,26.3,96.1,46.7,44,24.6,107.2,81.5,148.2,115.3,268.9,221.6,294.1,344.9,664.3,461.1,107.4,33.7,241.2,65.2,348.6,63.1,3-7.7,12.5-156.6,11-164.7s-57.5-71.2-65.9-98.8c-11-36.3-3.6-89.9-11-115.3s-48.9-36.6-54.9-71.4c-11.5-66.6,31.3-84.6,32.9-93.3,1.3-6.8-50.9-91.3-54.9-126.3-5.9-51.9,11.2-164.9,52.2-200.4,62.4-54,317.7-112.2,400.7-104.3,122.4,11.6,118.6,69.4,192.1,115.3,18.3,11.4,58.2,14,76.9,27.4,56.9,41,53.5,224.3,35.7,288.2-8.7,31.1-55,82.7-54.9,87.8,0,8,35.2,29.4,16.5,87.8-19.5,60.8-84.4,54.7-98.8,71.4s-27.6,71-43.9,93.3c-15.3,20.9-91,81.9-93.3,87.8-4.3,10.8-9.3,152.2-5.5,159.2l370.6,107c44.2-27.5,356.5-97.9,365.1-123.5l-2.7-183.9c-5.4-4.4-62.4,66.7-126.3,43.9-19-6.8-27.9-31.3-32.9-32.9-6.4-2.1-47.4,15.3-74.1-13.7-27.9-30.3-4.5-88.2-13.7-90.6-120,35.9-82.1-96.7-90.6-112.5-2.2-4.1-57.7-23.8-65.9-60.4-13.9-62.5,32.4-91.2,32.9-98.8.2-2.7-25.8-35.6-27.4-43.9-13.4-69.8,48.8-91.2,49.4-98.8s-21-25-22-32.9c-15.1-130.1,103.8-110.1,109.8-126.3,2.5-6.7-33.8-77.3,19.2-123.5,37.5-32.7,89.5-13.3,93.3-16.5,6.6-5.4,4.9-74.6,65.9-93.3,64.4-19.7,98.6,28,104.3,27.4,6.3-.6,37.2-67.3,109.8-49.4,18.2,4.5,30.7,32.3,32.9,32.9,7,1.8,63.9-65.5,131.8-16.5,15.2,11,25.1,42.7,27.4,43.9,8.6,4.5,79.7-57.8,145.5,8.2,6.6,6.7,15.8,39.9,19.2,41.2s41.3-11.6,76.9,5.5c42.6,20.5,38.1,65.7,49.4,76.9,9,8.9,48.3,5.7,68.6,35.7,29.1,42.8,5.5,83.4,11,104.3,1.7,6.6,75.7,45.8,82.3,104.3,4.3,37.5-23,80.9-22,87.8,2.5,16.1,49.1,25.6,32.9,98.8s-44,53.2-60.4,82.3c-.8,1.4,5.1,24.5,0,32.9-42.2,70.1-78.2,101.9-167.4,79.6-28.4,11.5-3,21.6-2.7,27.4Z"/>
      <path class="st21" d="M4790.3,3990c-96.1,2.4-191.7,8.3-288.2,5.5s-27.1,5.5-24.7-11c104.3.4,208.8-2.5,312.9,5.5Z"/>
      <path class="st28" d="M4060.2,2118.1c56.9,45.2-31.6,92.8-76.9,93.3,13.8-24.6,46.1-18.1,60.4-49.4,7.3-16.1,6.2-27.2,5.5-43.9,8.3-8.4,10.3,0,11,0Z"/>
      <path class="st4" d="M4499.4,2447.4c26,43.9,32.4,105.5,71.4,156.5,158.4,207.2,500.5,61.2,592.9-140,54,33.8,132.4,27.3,189.4,49.4,129.2,50.2,201.8,308.4,315.7,395.3,2.2,10.4,12.1,73.5,11,79.6-4,23-158.8,222.3-172.9,222.3l-296.4-351.3c-16.9,7.9,95.3,145,101.6,159.2-14.3,34.9-29.4,67.3-38.4,104.3-30.5,20.2-49.1,60.6-79.6,82.3-92.7,66.3-206.4,43.3-312.9,32.9-9.1,11.5,4.6,8.2,8.2,16.5,37.9,85.3,213.5,76.2,252.5,178.4,40.1,105.1-67.8,333.9-156.5,398-188.2,136-422.1-15.6-590.1,120.8-9.9-.8-15.6,8.6-27.4,5.5l11-153.7c219.8-50.1,149.8-272.7,120.8-444.7,43.8-50.8,233.7-42.9,219.6-131.8-5.7-36.2-232.5-44.5-263.5-85.1-44-158.2-43.2-356.8-87.8-510.5-17.3-59.7-31.8-74.3-71.4-118,60.6-40,130.8-60.7,203.1-65.9Z"/>
      <path class="st17" d="M4120.6,3957.1c-209.3,14.3-698.4,25.3-894.8-5.5l32.9-398c-1.7-25.4-.9-60.9-5.5-85.1,177.1-127.3,595.8-76.5,730.1,90.6,82.1,102.1,117.3,271.3,137.2,398Z"/>
      <path class="st17" d="M4021.8,2469.4c92.3,36.2,217.3,43.9,280,129,62.4,84.8,38.5,177.5,54.9,274.5,19.1,112.9,136.3,551.8,120.8,623.1-62.9-94.8-166.9-149.2-247-227.8-18.1-175.5-63.6-355.2-19.2-529.8-20.7-11-31,110.4-35.7,118l24.7,387c-10.7-37.9-102.9-47.6-107-52.2-22.2-24.4-10.4-99.3-16.5-126.3-7.4-32.6-93.9-93.1-98.8-109.8-17.1-58.5,16.2-238.5-57.6-266.3l-908.5-5.5c19.1-159.2,248.6-156.5,362.3-219.6,200.8,214.4,433.9,173.9,647.8,5.5Z"/>
      <path class="st1" d="M5816.9,2590.2c44.1,156.1,115.1,304.4,164.7,458.4,50.9,158,127.4,322-38.4,441.9-125.6,26.4-242.3-88.5-323.9-170.2,15.4-62.9,32.2-129.1,57.6-186.7l19.2,22c5.4,12.3,25.6,59.9,32.9,49.4,2.4,10.6,2.1,27.4,5.5,38.4s-3.6,20.6,8.2,27.4c31.4,18.5,25.6-46.3,24.7-68.6-6.8-161-95.6-362.1-104.3-510.5-.8-14.3-2.6-34.6,5.5-46.7,13.2-19.7,122.7-43.5,148.2-54.9Z"/>
      <path class="st17" d="M1792.9,2216.9c20.1,82.3-85.4,250-167.4,274.5-38.7-29.7-59.4-74.5-90.6-109.8-57.8-65.5-71.4-54.3-131.8-98.8-42.2-31.2-321.2-335.1-318.4-359.6,104-12.7,125-76,164.7-156.5,144.9,102.7,268.1,231.2,395.3,354.1,8,7.7,14.2,33.8,24.7,41.2,17.1,12,98.9,33.7,123.5,54.9Z"/>
      <path class="st13" d="M4960.5,1481.2c-16.2,10.3-21.7,12-32.9,30.2-4,14.3,78.3,74.3,82.3,49.4,3.6-22.3-59.4-37.4-54.9-52.2,92.8-30.3,169.7,46.2,214.1,118,88.5,143,55.7,279.3-38.4,409-9,9-21.4,35-38.4,30.2,17.7-23.3,34-65.7,16.5-93.3-12.1-19-38.8-9.2-49.4-16.5-9.1-6.2-123.5-160-131.8-175.7-52.2-99.3-23.8-145.8-43.9-227.8-1.2-4.7.7-11.3,0-16.5,3.1-.7,62.3-3.3,24.7-16.5-34.3-12-167.3,40.1-203.1,60.4-218.6,124-335.2,490.6-101.6,656-46.3-.8-97.1-57.1-115.3-96.1l-16.5-71.4c-4-15.7-6.9-32.9-11-49.4-19.5-78.8-43.5-92.1-32.9-183.9,28.9-250,278.1-511.6,532.5-354.1Z"/>
      <path class="st10" d="M5295.4,3951.6c-205.1,31.2-684.8,18-900.3,0,168.1-136.4,402,15.2,590.1-120.8,88.6-64.1,196.6-292.9,156.5-398-39-102.2-214.6-93.2-252.5-178.4,140.7,30.7,287.3,27.3,378.8-98.8-23.6,109.3-47,264.9-54.9,376-11.8,164.9,23,268.7,82.3,420Z"/>
      <path class="st23" d="M1227.5,1234.2l516,16.5c-3.9,26.5-76.6,265-87.8,288.2-5.9,12.1-18.8,34.3-30.2,41.2-58.4,35.1-353.6-3.8-439.2,11,9.7-24.3,38.1-37.3,52.2-57.6,9.6-14-1.6-24.9,0-27.4,7.8-12.2,24.9-15.2,32.9-27.4,14.8-22.5,4.5-41.9,5.5-43.9s31.1-8.6,43.9-27.4c7.5-11.1,3.1-27.7,5.5-32.9,3.9-8.8,38.5-18.4,16.5-54.9-16.7-27.6-160.6-48.7-194.9-35.7l-8.2-8.2c33.6-31,47-32.3,87.8-41.2Z"/>
      <path class="st19" d="M2956.8,1876.5c-.7.4-10.8-1.7-16.5,2.7-20.7-46.2,8.9-180.9-24.7-205.9-6.5-4.8-7.8,5.7-8.2,5.5-7-4-10.5-3.7-16.5-5.5-.5-.2,1.9-10.1-2.7-11-14.3-2.7-70.3-7.9-74.1,11-100.7,5.5-142.2,19.2-241.5-16.5h233.3c8.9-6.6,10.2-10.3,0-16.5-29.1-17.8-184.3,3.1-230.6-5.5-41.6-7.7-90.3-71.1-145.5-52.2-3.1,4.1,19.3,17.8,22,19.2l-5.5,11c-78.6-18.9-78.1,87.2-87.8,137.2-78.5-141.1-42.8-223.4,101.6-280,119.2-46.6,280.2-66.3,395.3,0,19.2,11.1,151.2,115.7,156.5,129,15.8,40.1-13,254.8-54.9,277.2Z"/>
      <path class="st17" d="M4510.3,3567.3c3.8,65.6-2.3,172-68.6,208.6-139,76.6-329-157.6-403.5-252.5,114.7-11.9,162.8-93.9,164.7-203.1,98.6,86.1,210,159.1,307.4,247Z"/>
      <path class="st1" d="M3999.8,3073.3c1.7-10.2-80.2-88.2-98.8-115.3,24.5-9.2,118.7,86.6,126.3,101.6,29.4,58.2-11.4,194.3,98.8,222.3,0,73.6-43.5,137.6-112.5,164.7-7.3-1.1-75.6-94.2-98.8-109.8-30.8-20.7-241.7-88.3-244.3-107-6.4-47,199.1,24.9,211.4,24.7,9.2-.2,18.9,1.5,11-11l-282.7-140c-3.8-9.5,7.5-17.7,13.7-19.2,34.9-8.4,190.2,84.7,236.1,98.8,8.1,2.5,52.3,15.4,57.6,2.7l-329.4-172.9c105.3-8.1,210.7,116.6,307.4,104.3,11.5-1.5,24,1,35.7,0-42-36.5-265.1-111-282.7-156.5-2-5.1-3.5-13.3,0-19.2l332.1,148.2c11.8-3.2,17-3.2,19.2-16.5Z"/>
      <path class="st17" d="M3181.8,3512.4l-27.4,65.9c-51.7,97.1-98.1,143.4-208.6,93.3-122.9-121.6-42.8-297-27.4-444.7,63.1,6.6,32.9,100.7,96.1,115.3,29.1,6.7,209.9-11,216.8,8.2-16,54.3-29.6,108.9-49.4,161.9Z"/>
      <path class="st38" d="M3450.8,2436.5c9.8,1.1,18.3-3.3,27.4-5.5,93.4-22.2,47.3-139.7,49.4-208.6,17.6,7.9,31.4,20.9,49.4,27.4-13.8,15.7,24.7,35.2,35.7,38.4,67,19.8,141.1-13.1,192.1-54.9,14.9-12.2,74.4-61.1,46.7-76.9,3.7-2.6,10.6-23.3,22-13.7-4.9,19.6,15.5,336.5,52.2,310.2,9.7-7-16.3-47.1,24.7-19.2,10.9,28.4-107.8,74.3-129,79.6-116.4,29.3-291.3,21.6-370.6-76.9Z"/>
      <path class="st1" d="M1331.8,1338.5c6.1,59.7-148.3,39.1-178.4,43.9s-59.3,30.9-82.3,38.4c-26.7,8.7-87.1,13.9-107,27.4s-8.2,30.9,8.2,32.9c7.6,1,117.6-36,148.2-38.4,45.7-3.6,89.4,9.8,134.5,5.5,43.4,66.5-243.4,35.3-258,131.8-1.3,8.4-7.1,3.4-11,8.2,41.3-.7,64.2-39.8,112.5-52.2,34-8.7,82.3-7.3,118-11l-197.6,170.2c-1.6,1.3-13.4,30-24.7,32.9l5.5,11c25.5,9,143.2-29.2,134.5-76.9,11.7,2,97.8,89.3,98.8,96.1,3.2,20.9-67.7,120.2-96.1,129-23,2.3-88.1-87-109.8-109.8-30-31.6-73.8-42.1-90.6-87.8,12.7-64.9-19.2-201,11-255.3s64.5-71.1,68.6-74.1c75.3-55.2,230.6-49.1,315.7-22Z"/>
      <path class="st39" d="M4120.6,3957.1c-19.9-126.7-55.1-295.9-137.2-398-134.3-167.1-553.1-217.8-730.1-90.6-1.9-10-11.3-38.7-22-43.9,1.8-12.4,13-79.6,19.2-82.3l653.3,5.5c58.5,35.2,25.5,64,41.2,107,15.9,43.7,168.9,177.2,203.1,225.1l22,274.5c-4,5.6-39.9,2.1-49.4,2.7Z"/>
      <path class="st1" d="M5778.5,2013.7c29.4,25.6,28.4,201.6,22,244.3-7,46.2-32.8,70.8-65.9,98.8,19.1,8.7,76,156.9,71.4,164.7-60.9-14.5-115,23.6-170.2,41.2-28.4-55.2-30.6-132-54.9-186.7-5.5-12.3-9.7-14.1-11-16.5-16.3-31.2-49.3-55.9-60.4-90.6-39.5-123.6,58.6-175.2,159.2-211.4,49,32-78.5,99.1-87.8,118-26.3,53.6,39.8,87.2,71.4,120.8l-54.9-109.8,46.7-41.2c56.9,281.4,166.4-98.8,131.8-98.8-15.7,55.1-23.5,97.9-52.2,148.2l16.5-183.9,38.4,2.7Z"/>
      <path class="st13" d="M5520.5,2612.1c-27.3-36.2-74-98.3-112.5-120.8-98.4-57.4-159.7-.8-244.3-101.6-56.7-67.6-89.9-157-96.1-244.3-31.9,106.5,40.6,211.9,107,288.2-172.8-19.3-160.9-145.3-159.2-285.5,3.8-13.8,42.3-11,65.9-19.2,66.2,111.3,193.9,155.5,280,255.3,19.3,22.4,35.3,63,54.9,87.8,35.6,45.1,96.2,76.1,104.3,140Z"/>
      <path class="st1" d="M2424.3,2414.5c49.6-41.5,42.8-101.6,54.9-159.2,48.1,59.9,190.9,82.5,247,24.7,8.5-8.7,10.5-20.8-5.5-19.2,1-.4,13.3-11.2,16.5-13.7l11,5.5c-13.8,31.5-20.4,176.7,19.2,183.9,14.2,2.6-7.6-32.5,30.2-8.2-67.4,121.2-304.4,88-373.3-13.7Z"/>
      <path class="st1" d="M3011.7,2903.1c.3.7,9.7,3.5,5.5,13.7-13.9,39.1-151.4.7-192.1,38.4l5.5,13.7,225.1,11c-20.3,46-176.4,12.7-192.1,60.4-1.7,5.1-11.9,6.4,2.7,16.5l194.9-22c-41.3,37.3-102.1,47.4-153.7,63.1,19.7,40.7,136.5-44.2,148.2,0,11.7,44.3-101.9,91.8-104.3,98.8-3.6,10.5,18.6,6.4,8.2,19.2-22.8,10.3-95.6-45.2-107-68.6-20.1-41.1-32.8-128.3-43.9-170.2-3.9-14.7-18.5-30.1-22-41.2,56.6-39.5,157-37.5,225.1-32.9Z"/>
      <path class="st11" d="M4510.3,3567.3c-97.4-87.9-208.8-160.9-307.4-247-16-14-26-37.5-49.4-43.9-.3-11-22.9-49.8-13.7-54.9,108.6,97.5,235.8,177.1,329.4,291,25.7,1.7,7.3-12.2,8.2-16.5,15.5-71.3-101.6-510.1-120.8-623.1-16.4-96.9,7.5-189.7-54.9-274.5-62.6-85.1-187.6-92.8-280-129,6.5-5.1,5.1-26.9,24.7-22,92.3,48.3,243.4,50.9,288.2,156.5,34.2,307.7,158.2,659.6,175.7,963.4Z"/>
      <path class="st11" d="M3206.5,3501.5l-30.2,447.4c-5.1,10-92.2,11.1-96.1,8.2-10-7.6-18.3-238.1-13.7-249.8,2.9-7.4,47.9-25.5,57.6-35.7,45.7-47.7,61.5-108.9,82.3-170.2Z"/>
      <path class="st13" d="M3966.9,1695.3c8,30.3,7.8,72.4,11,104.3-154.3-332.9-482.2-388.1-603.9,5.5-71.3-370.5,475.1-407.5,592.9-109.8Z"/>
      <path class="st8" d="M1773.7,1228.7c2.3-.3,18.5,21.2,19.2,24.7,2.4,12.2-46.7,214.6-54.9,241.5-19.9,65.6-36.2,135.8-112.5,151l-513.3-2.7c10.7-7.6,36.4-33.3,46.7-35.7,95.3-22.3,417.7,27.7,483.1-11,46.7-27.6,84.3-308.2,131.8-367.8Z"/>
      <path class="st11" d="M4153.5,1607.5c43.9-89.2-64.3-101.4-76.9-118-5.2-6.9-4.3-65-35.7-79.6-38.3-17.8-59.6,18.3-71.4,16.5-8-1.3-28.9-46.1-43.9-54.9-56.1-32.7-109.1,22.9-115.3,22-12.2-1.9-22-89.5-93.3-76.9-18,3.2-51.2,43.5-54.9,43.9-15.8,1.6-88.3-110.3-137.2,22-65.6-84.7-153-53.2-145.5,52.2-8.5,14.3-60.1-27.8-101.6,8.2-41.5,36.1-4.7,99.6-13.7,112.5-3,4.2-73.2,5.4-93.3,38.4-37.6,61.5,30.7,100.3,27.4,109.8s-63.8,18.3-60.4,71.4c.8,12.5,33.4,62.2,32.9,65.9-1.1,9.9-47.5,27.3-38.4,71.4,6.4,31.4,69.2,45.5,71.4,49.4s-18.4,63.2-11,87.8c6.9,22.9,39.2,16.8,43.9,35.7-77.4-13.1-87.5-52.6-38.4-112.5-55.7,4-104.8-41.7-87.8-98.8,3.1-10.5,37.7-30.5,38.4-32.9,4.3-13.9-93.7-110.5,32.9-142.7-126.7-131.1,60.2-137.2,71.4-153.7s-21.6-63.6,0-104.3c34.1-64.3,101.4-17.1,107-19.2,9.5-3.5,7.7-81.2,49.4-98.8,69.5-29.5,93,40.8,109.8,38.4,13.3-1.9,26.5-76.1,93.3-60.4,19.7,4.6,33.5,40.5,49.4,38.4,2.9-.4,33.2-34.8,43.9-38.4,83.7-28.2,92.4,68.7,104.3,71.4,9,2,78.6-73.2,134.5-8.2,5.1,5.9,11,45.3,24.7,46.7,3.9.4,31.1-33.5,71.4-16.5,34.3,14.5,42.5,82.6,49.4,87.8s43.3.8,63.1,24.7,34.7,84.5,0,101.6Z"/>
      <path class="st11" d="M2956.8,1876.5c41.9-22.4,70.7-237.1,54.9-277.2-5.2-13.3-137.2-117.9-156.5-129-115-66.3-276.1-46.6-395.3,0-144.4,56.5-180.1,138.9-101.6,280-1.6,8.3,3.4,27.9-2.7,32.9-56.6-55-68.5-152.8-41.2-227.8,42.7-117,342-173.1,452.9-151s184.4,101.4,219.6,126.3c61.6,43.4,57.5,261.4,19.2,321.1-3.9,6.1-44.9,50.1-49.4,24.7Z"/>
      <path class="st14" d="M4524.1,2431c41.3-29,50.1,75.5,63.1,101.6,74.9,150.4,307.1,123.7,420,35.7,31.2-24.3,101.3-130.6,109.8-131.8,1.4-.2,18.6,12.7,24.7,13.7-64.9,182.7-386.7,323.9-538,164.7-18.8-19.8-102.9-167.5-79.6-183.9Z"/>
      <path class="st13" d="M2934.8,3688.1c33.9,9.5,54.2,19.1,93.3,27.4v236.1c-40.2,7.5-123.9-.6-170.2,0,70-72.9,73.2-179.3,43.9-271.7,10.4,3.9,22.4,5.3,32.9,8.2Z"/>
      <path class="st11" d="M2040,3951.6c-6.2-.3-21.7,15.5-32.9-2.7,25.6-296.1,24.2-592.5,11-889.3-4-88.7-44.9-172,5.5-255.3-8.6,167.9,29.5,361.5,32.9,535.2,4,204.3-13.8,408.1-16.5,612.1Z"/>
      <path class="st11" d="M4178.2,3704.6c11.1,34,152.9,92.9,156.5,101.6,4.5,10.8-1.7,146.4-8.2,151l-134.5-8.2-13.7-244.3Z"/>
      <path class="st1" d="M4960.5,1481.2c-254.4-157.5-503.6,104.1-532.5,354.1-10.6,91.8,13.5,105.1,32.9,183.9-104.6-127.8-45-356.9,54.9-474.9,117.7-139,334.8-191.2,488.6-82.3.7,9.9-33.3,12.5-43.9,19.2Z"/>
      <path class="st4" d="M5295.4,3951.6c-59.3-151.3-94.1-255-82.3-420,7.9-111.2,31.3-266.7,54.9-376,2.3-10.7,3.4-24.3,5.5-32.9,9-37,24.1-69.4,38.4-104.3.4.8,14.3,5.2,11,13.7-34.7,308.6-158,616.3-5.5,911.3l-2.7,13.7c-8.4,3.8-15.5-6.1-19.2-5.5Z"/>
      <path class="st10" d="M4719,3227c14.1,88.9-175.8,80.9-219.6,131.8-3.3-19.3-44-182-35.7-186.7l255.3,54.9Z"/>
      <path class="st25" d="M3390.4,2458.4l38.4-11c130.6,117,361.7,145.3,507.8,38.4,33.2-24.3,37.8-81.7,79.6-35.7-100.3,121-273.4,168.2-425.5,134.5-49.8-11-186-73.3-200.4-126.3Z"/>
      <path class="st13" d="M2361.1,2370.6c29.3-14,30.3,39.5,35.7,46.7,91.4,121.2,340.6,168,420,13.7,93.3,7.2-49.2,113.8-82.3,126.3-102.4,38.5-240.2,10.4-323.9-60.4-19.4-16.4-94.2-104.9-49.4-126.3Z"/>
      <path class="st11" d="M3939.4,2936c12.1-9.7,11.4-8.6,11-24.7-1-35.9-12.3-175-46.7-183.9h-1045.8c12.1-15.9,20.7-13.2,35.7-22h1010.1c62.2,15.5,43.2,187.5,57.6,238.8-14.7,11.3-19-6.6-22-8.2Z"/>
      <path class="st32" d="M4883.6,1536.1c.7,5.2-1.2,11.7,0,16.5-49.4,102.3,11,214.2,65.9,301.9-7.2-4.5-12.4-12.2-22-11-19.9-41.8-85.2-60.2-126.3-43.9,16.8-40.7,65.3,3.5,93.3-8.2-45.8-62.1-43.7-121.2-52.2-194.9-6.1-2.6-86.7,42.3-98.8,49.4-50.5,29.8-109,101.4-167.4,87.8,76.2-107.9,182.3-167.1,307.4-197.6Z"/>
      <path class="st11" d="M1326.3,1179.3c-37.1-9-98.1-3-134.5,5.5-89.2,20.8-223.6,117.5-230.6,214.1,17.5-16,26.6-36.3,41.2-54.9,41-53.8,323.8-60.2,329.4-5.5-85.1-27.2-240.4-33.2-315.7,22-4.1,3-66.2,69.7-68.6,74.1-30.2,54.3,1.8,190.4-11,255.3-52.6-143.2-4.7-375.4,123.5-466.6,73.9-52.6,185.4-82,271.7-57.6,4.1,10.5-5.2,13-5.5,13.7Z"/>
      <path class="st11" d="M1792.9,2216.9c-24.6-21.2-106.4-42.9-123.5-54.9-10.5-7.4-16.7-33.5-24.7-41.2-127.1-122.9-250.4-251.4-395.3-354.1,6.4-13.1,2.8-24.2,13.7-32.9,86.7,67.6,172.4,138.6,252.5,214.1,66.1,62.3,119.1,137.1,186.7,197.6,23.7,21.2,82.7,39,90.6,71.4Z"/>
      <path class="st1" d="M5575.4,2035.7c1.8,2.5-4.1,14.2,11,11-23.8,13.5-46.5,32.6-71.4,43.9l-87.8-373.3c8.7-4.1,8.2-6.3,19.2,0,41.7,23.6,86.8,260.8,129,318.4Z"/>
      <path class="st11" d="M5943.2,3490.5c165.8-119.9,89.3-283.9,38.4-441.9-49.6-154-120.6-302.2-164.7-458.4.7-.3,4.2-11.9,11-11,70.2,131.1,247.1,631.2,230.6,765.8-8.2,66.7-45.6,130.8-115.3,145.5Z"/>
      <path class="st39" d="M4202.9,3320.3c-1.9,109.2-50,191.2-164.7,203.1-4.8-6.2-44.4-43.5-43.9-46.7,87.1-11.6,161.6-115.9,159.2-200.4,23.4,6.4,33.4,30,49.4,43.9Z"/>
      <path class="st26" d="M3939.4,1816.1l-296.4-269c125.9-2.6,282,144.6,296.4,269Z"/>
      <path class="st11" d="M5668.7,2908.6c-113.8-86.9-186.4-345.1-315.7-395.3-56.9-22.1-135.4-15.6-189.4-49.4l13.7-11c77.5,21.2,167.2,18.5,236.1,65.9,54,37.1,241.8,326,255.3,389.8Z"/>
      <path class="st24" d="M5520.5,2612.1c-8.1-63.9-68.7-94.9-104.3-140s-35.6-65.5-54.9-87.8c-86.1-99.8-213.8-144-280-255.3,2.8-1,3.7-18.5,13.7-16.5s61,69.2,76.9,82.3c65.1,54.1,148.4,99.7,200.4,167.4,23.5,30.6,38,83.3,49.4,98.8,7.3,9.9,38.6,20.7,46.7,30.2,43.8,51.2,86.7,92.1,85.1,167.4-16.1-11.7-21.3-31.2-32.9-46.7Z"/>
      <path class="st11" d="M5668.7,2645.1c-8.1,12.1-6.3,32.4-5.5,46.7,8.7,148.4,97.5,349.6,104.3,510.5.9,22.3,6.7,87.1-24.7,68.6-11.8-6.9-7.8-26.1-8.2-27.4l16.5,13.7c-.5-10.9.8-22.1,0-32.9-11.7-170-96.8-375.9-115.3-543.5-2.5-22.9,25.5-61.2-5.5-96.1l38.4,60.4Z"/>
      <path class="st1" d="M5597.3,2046.7l32.9-356.8c12,4.6,20.4,31.1,22,41.2,5,32.1.8,243.8-5.5,274.5-8,39-22.2,25.8-49.4,41.2Z"/>
      <path class="st1" d="M1326.3,1179.3c-16.9,43.2-106.3,28.3-145.5,43.9-20.6,8.3-53.2,50.2-71.4,60.4-58.2,32.6-62.8,3.9-107,60.4-14.6,18.6-23.7,38.9-41.2,54.9,7-96.6,141.3-193.3,230.6-214.1,36.4-8.5,97.4-14.5,134.5-5.5Z"/>
      <path class="st11" d="M3253.2,3468.5c4.6,24.2,3.8,59.7,5.5,85.1l-32.9,398c-1.4-.2-16.7,15.2-27.4-2.7,3.9-93.1,22.1-186.8,27.4-280,4.6-79.3-5.7-167.3,5.5-244.3,10.7,5.2,20.1,33.9,22,43.9Z"/>
      <path class="st32" d="M5696.1,3155.6l-19.2-22c-25.5,57.6-42.2,123.7-57.6,186.7-11.3-11.3-62.8-45.6-65.9-57.6-8.6-33.3,90.9-154.9,120.8-178.4.4,26.9,11.6,47.8,22,71.4Z"/>
      <path class="st4" d="M5827.9,2579.2c-6.7-1-10.3,10.7-11,11-25.5,11.4-135,35.2-148.2,54.9l-38.4-60.4c37.8-25.6,137.4-66.1,178.4-43.9,16.4,8.9,13.1,27.1,19.2,38.4Z"/>
      <path class="st11" d="M3374,2463.9c-113.7,63.1-343.2,60.4-362.3,219.6l-16.5-2.7c-3.7-55.8,38.4-112.4,85.1-140,20.1-11.9,260-93.7,274.5-93.3,11.7.3,13.3,10.1,19.2,16.5Z"/>
      <path class="st11" d="M2918.3,3227c-15.3,147.7-95.4,323.1,27.4,444.7-172.7-78.3-63.2-311.2-41.2-450.2,4.8-3.4,8.1,4.9,13.7,5.5Z"/>
      <path class="st24" d="M5130.7,2035.7c94.1-129.7,126.9-266,38.4-409-44.4-71.8-121.3-148.3-214.1-118,21.5-70.5,182,32.4,214.1,74.1,104.4,135.6,80.5,334.5-38.4,452.9Z"/>
      <path class="st7" d="M3966.9,1695.3c-117.8-297.7-664.2-260.7-592.9,109.8l-11,8.2c-42.3-142.7,76.9-317.8,222.3-337.6,134.7-18.3,344.7,79.2,381.5,219.6Z"/>
      <path class="st32" d="M4697,2299.2c2.5-16.3,7.8-33.1,11-49.4,98.5-33.6,188.1-53.1,263.5-137.2-.6,9.3,2.2,30.3,0,35.7-9.6,23.8-230.5,150.6-274.5,151Z"/>
      <path class="st11" d="M4126.1,3281.9c-110.2-28-69.4-164.1-98.8-222.3-7.6-15-101.8-110.8-126.3-101.6-6.2-9-24.9-20-22-35.7,6.5-11.4,166.8,119.2,175.7,142.7,12.7,33.7.8,77.4,11,115.3,12.3,45.8,60.3,60.1,60.4,101.6Z"/>
      <path class="st26" d="M3577.1,2249.8c135.4,49.4,180.1-26.8,274.5-93.3,27.8,15.7-31.7,64.6-46.7,76.9-51,41.8-125.2,74.7-192.1,54.9-11-3.3-49.5-22.8-35.7-38.4Z"/>
      <path class="st11" d="M5668.7,2057.7c-100.6,36.1-198.7,87.8-159.2,211.4,11.1,34.6,44,59.4,60.4,90.6-85.2-45.6-119.2-162.8-54.9-238.8,23.6-27.9,119.9-85.2,153.7-63.1Z"/>
      <path class="st11" d="M5630.2,1689.9l-32.9,356.8c-1.9,1.1-9-1.1-11,0-15,3.3-9.2-8.5-11-11,19.3-82.6-6.7-263.3,27.4-332.1.8-1.7,22.2-28.4,27.4-13.7Z"/>
      <path class="st11" d="M5515,2090.6c-2.6,1.2-5.2,19.8-16.5,2.7-17.4-92-60.8-189.2-76.9-280-5.2-29.2-22.6-82.9,5.5-96.1l87.8,373.3Z"/>
      <path class="st11" d="M1743.5,1250.7l-516-16.5c152.2-33.2,354.2.5,513.3-16.5,17.6,11.3,4,24.5,2.7,32.9Z"/>
      <path class="st32" d="M2720.7,2260.8c16-1.6,13.9,10.5,5.5,19.2-56.1,57.8-198.9,35.1-247-24.7-7.3-9.1-11.6-21.3-11-32.9,101.4,75.9,129.4,82.2,252.5,38.4Z"/>
      <path class="st11" d="M3999.8,3073.3c-2.2,13.3-7.4,13.2-19.2,16.5l-332.1-148.2c11.9-20.2,60.8-.9,79.6,5.5,83.1,28.1,183,98.4,271.7,126.3Z"/>
      <path class="st32" d="M1134.2,1662.4c8.7,47.6-109,85.8-134.5,76.9l-5.5-11c11.3-2.9,23.1-31.6,24.7-32.9,17.1-14.1,92.6-36.9,115.3-32.9Z"/>
      <path class="st11" d="M3895.5,3117.2c-96.8,12.3-202.1-112.4-307.4-104.3,0-3.6,11.6-16,13.7-16.5,58.3-12.9,229.9,102.1,293.7,120.8Z"/>
      <path class="st18" d="M3028.1,3951.6v-236.1c4.8,1,9.6-11.6,16.5-2.7l5.5,236.1c-3.3,5.6-15.9,1.6-22,2.7Z"/>
      <path class="st11" d="M1254.9,1448.3c-45.1,4.3-88.8-9.1-134.5-5.5-30.6,2.4-140.6,39.4-148.2,38.4-16.4-2.1-29.2-18.7-8.2-32.9,47.7,2.8,263.5-42.1,291,0Z"/>
      <path class="st11" d="M3055.6,2979.9l-225.1-11c24-8.2,54.6-14.6,79.6-16.5,21.6-1.6,161.5-8.9,145.5,27.4Z"/>
      <path class="st11" d="M4499.4,2447.4c-72.3,5.2-142.5,25.9-203.1,65.9-.6-.7-13.4.3-16.5-8.2,53-54.7,136.7-70.2,211.4-74.1,9,3.3,7,14.4,8.2,16.5Z"/>
      <path class="st2" d="M3055.6,2529.8c-37.4-2.5-143.8-69.6-192.1-71.4,5.1-5.6-7.9-11.1,19.2-11,10.9,0,204.7,57.8,205.9,68.6-8.8,9.4-19.8,14.6-32.9,13.7Z"/>
      <path class="st35" d="M2468.2,2222.4c-.7,11.7,3.7,23.9,11,32.9-12.1,57.6-5.3,117.7-54.9,159.2-.2-.3-1.8,1.4-5.5-5.5-1.3-6.6,2.4-11.4,5.5-16.5,34.1-55.2,22.3-119.9,27.4-183.9,7.5-5.3,14.6,12.3,16.5,13.7Z"/>
      <path class="st11" d="M4708,2249.8c-3.2,16.3-8.4,33.1-11,49.4-5.4,34.9-4.4,126.1-30.2,142.7-13.1,8.4-28.8-.5-30.2,0,49-25.7,30.5-130.7,43.9-183.9,7.1-13.1,19.4-5.5,27.4-8.2Z"/>
      <path class="st35" d="M5778.5,2013.7l-38.4-2.7-16.5,183.9c-7,12.4-5.2,31.3-24.7,38.4,14.6-41.8-1.1-289.9,79.6-219.6Z"/>
      <path class="st11" d="M1537.7,2436.5l65.9,76.9c-68.9,30.5-91-13.5-65.9-76.9Z"/>
      <path class="st0" d="M5660.4,2013.7c81.5-34.3,18.5,162.6,16.5,192.1-57.2-61.9,28.9-100.7,19.2-145.5-4.6-21.3-67.7-33.2-35.7-46.7Z"/>
      <path class="st11" d="M3011.7,2903.1c-68.1-4.5-168.4-6.6-225.1,32.9-4.9-15.9-10.6-20.3,8.2-32.9,24.2-16.2,203.2-28.7,216.8,0Z"/>
      <path class="st11" d="M3061.1,3034.8l-194.9,22c-14.7-10.1-4.4-11.4-2.7-16.5,22.5,1.9,211.4-38.4,214.1-19.2-3.8,6.3-11.5,9.3-16.5,13.7Z"/>
      <path class="st12" d="M3527.7,2222.4c-2.1,68.9,44,186.4-49.4,208.6v-5.5c67.1-32.2,34.6-150.7,38.4-211.4,13.1-10.1,10.4,8,11,8.2Z"/>
      <path class="st11" d="M5729.1,3205c-7.3,10.5-27.5-37.1-32.9-49.4-10.3-23.6-21.6-44.4-22-71.4,2.8-2.2,11.8-18.4,16.5-19.2l11,5.5c5.8,45.4,17.2,90.1,27.4,134.5Z"/>
      <path class="st11" d="M5580.8,2376.1c24.3,54.6,26.5,131.5,54.9,186.7-.8.3-9.6,9.2-13.7,11-7.9-3.1-42.1-141.2-46.7-161.9-.7-3.3-9.8-39.9,5.5-35.7Z"/>
      <path class="st14" d="M4378.6,3803.4l-11,153.7c-6.5-1.7-11.4.4-16.5-8.2,13.1-40-14.5-135.9,27.4-145.5Z"/>
      <path class="st7" d="M4219.4,1777.7c39.8-52.5,3.7-95.9-32.9-131.8-6.4-6.3-19.8-14.5-19.2-22,71.2,12.7,99.7,82.4,68.6,145.5-.7,1.4-19.6,30.1-16.5,8.2Z"/>
      <path class="st0" d="M1296.1,1393.4c.9.1,11.1,8.2,5.5,11-57.1,31.5-117.3.2-178.4,8.2,36.9-12.4,139-23.8,172.9-19.2Z"/>
      <path class="st36" d="M2344.7,1821.6l5.5,120.8c-30.5-34.5-48.2-89.2-5.5-120.8Z"/>
      <path class="st16" d="M4202.9,1964.3c19.8-42.9,76.5-97.8,22-142.7.7-.2-4.2-12,8.2-11,59.6,4.7,19.9,146.3-30.2,153.7Z"/>
      <path class="st13" d="M1639.2,2518.8c48.6,22.6,4.5,46.8-27.4,49.4-5.8-4.4-27.4-9.2-32.9-19.2.2-5.1,53-25.2,60.4-30.2Z"/>
      <path class="st20" d="M3623.8,3172.1c20.7-8.2,80.5,12.8,101.6,24.7-23.6-13.4-75.4,19.7-79.6,19.2s-43.6-35.3-22-43.9Z"/>
      <path class="st7" d="M1216.5,1525.2c-35.8,3.6-84,2.3-118,11-48.4,12.4-71.2,51.5-112.5,52.2,3.9-4.8,9.7.2,11-8.2,68.9-48.7,132.2-65.5,216.8-65.9l2.7,11Z"/>
      <path class="st40" d="M1534.9,2381.6l-131.8-98.8c60.3,44.5,74,33.4,131.8,98.8Z"/>
      <path class="st4" d="M5597.3,3139.1c-20,35.7-49.7,64.8-63.1,104.3-31-24,39.6-83.9,63.1-104.3Z"/>
      <path class="st5" d="M5682.4,3012.9c28.4,23.7-17.7,59.5-38.4,71.4l38.4-71.4Z"/>
      <path class="st29" d="M3977.8,1799.6c-3.2-31.9-3-74-11-104.3,13.5,34.1,20,71.2,22,107l-11-2.7Z"/>
      <path class="st35" d="M1847.8,2238.8l-32.9-5.5c2.3-13.6-9.1-24.5,2.7-32.9,17.5,8.7,26.2,19.2,30.2,38.4Z"/>
      <path class="st11" d="M4614.6,2447.4c-10.4,3.1-18.3,11.3-27.4,16.5-4.9-42.7,31.3-44.1,27.4-16.5Z"/>
      <path class="st15" d="M3428.9,2447.4l-38.4,11c-1.5-5.6-8.3-9.2-5.5-13.7,45.2-26.1,34.7-5.5,43.9,2.7Z"/>
      <path class="st26" d="M3154.4,3578.3l27.4-65.9c-11.3,30.3-9.9,32.9-27.4,65.9Z"/>
      <path class="st1" d="M4488.4,2140c-19.1-40.9-8.3-39.4-16.5-71.4l16.5,71.4Z"/>
      <path class="st7" d="M3390.4,2211.4v5.5c-25-5.4-44.5-7.1-16.5-38.4,1.9,2.8,4,26.2,16.5,32.9Z"/>
      <path class="st31" d="M5611,2601.1c12.6-6.6,23.2,42.4,16.5,49.4-13.4-7.2-10.3-36.3-16.5-49.4Z"/>
      <path class="st11" d="M3478.3,2425.5v5.5c-9.2,2.2-17.6,6.6-27.4,5.5,1.3-30.1,25.7-10.2,27.4-11Z"/>
      <path class="st27" d="M2424.3,2392.5c-3.1,5.1-6.8,9.8-5.5,16.5-5.1-9.6-15.4-14.4-11-30.2l16.5,13.7Z"/>
      <path class="st30" d="M5056.6,2107.1c19.3,2.5-1.1,12.2-11,16.5-9.8-6.9,10-16.6,11-16.5Z"/>
      <path class="st4" d="M5597.3,3139.1c.6-.6-2.1-18.4,11-8.2-1.6,4.5-10.6,7.6-11,8.2Z"/>
      <g>
        <path class="st13" d="M1847.8,2238.8c22.8,109.4-80.5,253.7-170.2,310.2,112.8-36.4,177.1-174,186.7-288.2l472.1,131.8c34.3,194.4,322.8,247.9,469.4,137.2,29.6-22.3,38.9-50.8,57.6-71.4,48.4,1.8,154.8,68.8,192.1,71.4-34.1,29.7-59.7,58.8-76.9,101.6-2.6,6.4,1.5,46.9-8.2,52.2-5.9,3.2-74,1.7-87.8,5.5-92.2,25.3-31.5,123.1-19.2,183.9-40.2,10.3-112.1,4.5-98.8,65.9,2,9.3,21.1,23.1,22,27.4,13,62.1,19.3,126.1,49.4,186.7,11.5,23.1,48.2,51.4,49.4,54.9,7.7,22.6-45.6,182.8-49.4,219.6-10.8,103-6.5,212.6,98.8,260.8-10.5-3-22.5-4.3-32.9-8.2,29.3,92.5,26.1,198.9-43.9,271.7-265,3.2-554.6,11.9-818,0,2.7-204,20.5-407.8,16.5-612.1-3.4-173.7-41.5-367.3-32.9-535.2,1.2-23.1,15.5-53.4,16.5-74.1,5.1-110.6,11.6-227.7-46.7-326.6l30.2,161.9c0,87.5,5.9,180.1-35.7,260.8-107.9-108.9-254.9-166.8-376-258,32-2.6,76.1-26.8,27.4-49.4,107.5-73.2,155-160.8,175.7-285.5l32.9,5.5Z"/>
        <path class="st11" d="M2336.4,2392.5l-472.1-131.8c1.1-12.7-15.2-34.4,2.7-38.4,142.5,74.6,301.5,120.5,461.1,142.7,22,10.2,5,9.3,8.2,27.4Z"/>
        <path class="st3" d="M2097.6,3084.2c27.8,168.4,94.5,326.5,181.2,472.1-96.3-128.7-189.5-307.8-181.2-472.1Z"/>
        <path class="st37" d="M2333.7,3485l16.5,71.4c-12.2-14.9-27.9-54-16.5-71.4Z"/>
      </g>
      <path class="st3" d="M5273.4,3122.7c-2.1,8.6-3.2,22.2-5.5,32.9-91.5,126.1-238.1,129.6-378.8,98.8-3.7-8.3-17.3-5-8.2-16.5,106.5,10.4,220.2,33.3,312.9-32.9,30.5-21.8,49.1-62.2,79.6-82.3Z"/>
      <path class="st3" d="M4927.6,1843.6c-33.2-11.6-94.6-17.8-123.5-27.4-12.8-4.3-5-10.9-2.7-16.5,41.1-16.3,106.4,2.1,126.3,43.9Z"/>
      <path class="st3" d="M2572.5,1656.9c-33.6-12-88.3-38.3-120.8-54.9-2.7-1.4-25.1-15.1-22-19.2,55.2-19,103.9,44.5,145.5,52.2,46.2,8.5,201.4-12.3,230.6,5.5,10.2,6.2,8.9,9.8,0,16.5h-233.3Z"/>
      <g>
        <path class="st1" d="M2572.5,1656.9c99.4,35.6,140.9,22,241.5,16.5s51.4,1,76.9,0c6,1.8,9.5,1.5,16.5,5.5,11.2,43.7-14.7,195.4,24.7,219.6,1.7,1,23.2-5.6,38.4,5.5,42.7,31.2,3.8,119.1-32.9,126.3-23.4,4.5-31.2-11-32.9-11-12-.1-32.3,78.2-46.7,101.6-64.5,105.3-214.1,179.4-329.4,123.5-137.5-110.2-155.7-251.4-148.2-420,1.6-36.5,29.7-103.5,5.5-134.5,4.3-21.6,9.8-45.5,32.9-54.9,45.2,26.2,96.2,70.7,145.5,87.8,12.8,4.5,20.1,8.2,30.2-5.5,83.3,26,194.1,15.9,271.7-22-88.1,9.3-181.8,31.3-269,5.5-46.7-13.8-109.6-77.9-151-87.8l5.5-11c32.5,16.6,87.2,42.8,120.8,54.9Z"/>
        <path class="st11" d="M2528.6,2244.3c-192-93.1-178.2-377.7-142.7-554.5,24.2,31-3.9,98-5.5,134.5-7.5,168.6,10.8,309.7,148.2,420Z"/>
        <path class="st32" d="M2594.4,1717.3c-10.1,13.7-17.4,10-30.2,5.5-49.3-17.2-100.3-61.6-145.5-87.8,37.9-15.4,123.8,66.2,175.7,82.3Z"/>
        <path class="st11" d="M2682.3,2101.6c-46.4,22.4-111.5,28.6-148.2-16.5,34.4-7.6,110.2,15.7,151,5.5,7,2-4.8,7.6-2.7,11Z"/>
        <path class="st3" d="M2613.6,1865.5c43.4,82.5-107.5,123.5,8.2,178.4-125.8-16.7-11.7-107.5-8.2-178.4Z"/>
        <path class="st3" d="M2534,2085.1c36.7,45,101.8,38.9,148.2,16.5.5.8,8.8-2.2,11,2.7-47.2,47.2-131.5,40.5-175.7-11,5.2-8.4,9.4-6.7,16.5-8.2Z"/>
        <path class="st3" d="M2470.9,1761.2c22.3-4.1,77.8,2.9,85.1,30.2-16.4-.6-114.9-7.6-107-19.2,3.6-2.8,19.9-10.6,22-11Z"/>
        <path class="st3" d="M2728.9,1810.6c26.9-7.6,76.5,7.7,96.1,30.2l-107-13.7c-9.1-7,7.6-15.5,11-16.5Z"/>
        <path class="st3" d="M2492.9,1832.6c37.3-12.7,37,51,11,54.9-27,4-31.6-47.9-11-54.9Z"/>
        <path class="st3" d="M2734.4,1882c33-7.8,29.1,51.4,5.5,54.9-29.8,4.5-28.6-49.5-5.5-54.9Z"/>
        <path class="st3" d="M2948.5,1925.9c34-12.9,30.1,53.1,0,65.9-.7-10.2-9.1-62.4,0-65.9Z"/>
        <path class="st22" d="M2890.9,1673.4c-25.4,1-51.5-1.4-76.9,0,3.8-18.9,59.8-13.7,74.1-11,4.7.9,2.2,10.8,2.7,11Z"/>
      </g>
      <g>
        <path class="st23" d="M3939.4,2936c-14.5-8-70.3-59.4-82.3-19.2-10.5,35.1,56.6,66.9,57.6,101.6-60.1-20.4-209.9-122.8-269-104.3-39.7,12.4-7.6,64.2-11,65.9-7.2,3.6-54.8-5.4-63.1,13.7-14,32,29.5,61.9,54.9,71.4-73.1,13.3-25.8,58.8,11,82.3-3,5.2-31.2-2.3-38.4,16.5-26.1,67.5,188.5,142.6,233.3,161.9l-812.5-5.5c-134.6-112.7,41.7-139.2,52.2-200.4,6.8-40.1-22.4-51.7-22-54.9.5-3.7,54.3-22.7,43.9-54.9s-21.1-10.3-22-16.5,15.4-8.6,11-27.4c-4.3-18.6-53.2-24.1-54.9-32.9-.3-1.7,15.5-9.2,11-32.9-11.1-58.4-148.8-23.6-159.2-38.4-13.1-18.7-36.3-115.8-22-134.5h1045.8c34.4,8.9,45.7,148,46.7,183.9.4,16.1,1.1,15-11,24.7Z"/>
        <g>
          <path class="st11" d="M3387.7,2870.1c112.8-22.2,134.3,136.1,49.4,153.7-111.9,23.2-137.7-136.4-49.4-153.7Z"/>
          <path class="st23" d="M3382.2,2892.1c67.3-15.6,124.8,72.6,71.4,109.8-86.1,60-151.4-91.3-71.4-109.8Z"/>
        </g>
        <g>
          <path class="st3" d="M3859.8,2765.8c44.2-11.4,53.7,51.9,22,60.4-42.5,11.4-53.3-52.3-22-60.4Z"/>
          <path class="st11" d="M3865.3,2787.8c4.9-3.1,19.3,8.8,11,16.5-13.6,5.1-19.3-11.1-11-16.5Z"/>
        </g>
        <g>
          <path class="st3" d="M2904.6,2776.8c45.7-10.1,49.8,63.1,11,65.9-31.8,2.3-42.7-58.9-11-65.9Z"/>
          <path class="st7" d="M2910.1,2798.8c11.9-1.7,15.5,21.5,5.5,22-10.6.5-19.9-19.9-5.5-22Z"/>
        </g>
      </g>
      <g>
        <path class="st1" d="M4801.3,1799.6c-2.3,5.5-10.1,12.2,2.7,16.5,28.9,9.6,90.3,15.9,123.5,27.4,9.6-1.2,14.8,6.4,22,11,24.6,15.6,94.2,118,101.6,120.8,9.5,3.5,17.6-8.8,27.4-5.5,48.9,16.6-5.1,114.3-32.9,120.8-19.8,4.6-29.1-17.8-46.7-5.5-30.7,21.5-24.7,205.2-16.5,244.3,12.4,58.8,48.7,93.4,104.3,112.5-49.4,179.4-470.5,274.6-499.6,22,9.2-5.1,17-13.4,27.4-16.5,6.4-1.9,13.5-2.8,22-5.5,1.4-.5,17.1,8.4,30.2,0,25.8-16.6,24.8-107.8,30.2-142.7,44-.4,264.8-127.1,274.5-151,2.2-5.4-.6-26.4,0-35.7.6-9,14-26.9-2.7-27.4-124.2,116.4-334.9,244.6-436.4,32.9-16.1-86.3-38.9-143.5-16.5-233.3,9.3-37.2,54.5-87,43.9-123.5,5.5-9.3,10.2-18.5,16.5-27.4,58.5,13.6,117-58.1,167.4-87.8s92.7-52,98.8-49.4c8.5,73.7,6.3,132.8,52.2,194.9-28.1,11.7-76.5-32.5-93.3,8.2Z"/>
        <path class="st11" d="M5086.8,2441.9c-55.6-19.1-91.9-53.7-104.3-112.5-8.2-39.1-14.3-222.8,16.5-244.3,5,98.6-44,313.8,90.6,334.9,8.5,7.1-1,15.6-2.7,22Z"/>
        <path class="st35" d="M4532.3,2118.1c-59.3-123.7-39.8-241.8,27.4-356.8,10.6,36.6-34.6,86.3-43.9,123.5-22.4,89.8.4,147.1,16.5,233.3Z"/>
        <path class="st3" d="M4694.3,1871l11,5.5c-4.4,63.1-102.2,88.9-13.7,123.5l-8.2,8.2c-98.3-44.3-5.6-74.2,11-137.2Z"/>
        <path class="st3" d="M4600.9,1744.7c16.2-1.6,62.8,10.1,68.6,30.2l-96.1-8.2c-16.6-8.3,22.9-21.5,27.4-22Z"/>
        <path class="st3" d="M4606.4,1810.6c29.1-2,29.6,52.9,5.5,54.9-25.2,2.1-34.6-52.9-5.5-54.9Z"/>
        <path class="st3" d="M4826,1876.5c29.7,0,22.2,55.1-11,43.9-21.1-7.1-7.1-43.9,11-43.9Z"/>
        <path class="st34" d="M5062.1,1991.8c18.4,9.5,5.9,52.7-5.5,49.4-3-19.5,24-24.8-5.5-38.4-5.5-2.7,10.3-11.3,11-11Z"/>
        <g>
          <path class="st3" d="M4579,2030.2c41.1,16.6,110.4,18.9,148.2,32.9,57.4,21.3-61.3,61.4-93.3,54.9-29.1-5.9-67.7-55.6-54.9-87.8Z"/>
          <path class="st11" d="M4589.9,2046.7l140,30.2c-50.7,39.7-125.7,45.3-140-30.2Z"/>
        </g>
      </g>
      <g>
        <path class="st38" d="M3643,1547.1l296.4,269c79.9,0,85,102.7,30.2,137.2-15.6,9.8-35-.9-46.7,13.7-8.2,10.2-9.2,55.2-16.5,71.4-50.6,112.8-179.1,232.2-307.4,194.9-83.3-70.8-148.4-145.6-192.1-247-5-12.2-7.2-24.8-19.2-32.9,2.2,47.8-72.2,15.3-79.6-8.2-3.9-12.4,8.6-61,16.5-65.9,16.8-10.5,39.2,3.3,41.2,2.7,16.8-4.7,27.1-72.2,35.7-90.6,44.2-94.7,122-241.9,241.5-244.3Z"/>
        <path class="st12" d="M3599.1,2233.3c-122.5-35.6-151-147.3-192.1-247,43.7,101.4,108.8,176.2,192.1,247Z"/>
        <path class="st3" d="M3623.8,1871c22.8,22.7-31.4,96.2-30.2,101.6,2.8,12.5,62.3,19.3,63.1,35.7-120.9-4.3-60.1-65.1-32.9-137.2Z"/>
        <path class="st3" d="M3733.5,1755.7c20.7-3.6,69.9-.6,79.6,24.7-31.6,17.3-171.3-8.7-79.6-24.7Z"/>
        <path class="st3" d="M3503,1821.6c28.6-6.6,43.5,51.8,16.5,60.4-35.3,11.3-44.1-54-16.5-60.4Z"/>
        <path class="st3" d="M3486.5,1755.7c16.2-2.2,55.9,4.6,57.6,24.7l-90.6,8.2c-18.3-12.1,25-31.9,32.9-32.9Z"/>
        <path class="st3" d="M3733.5,1832.6c34-10.4,40.6,47,16.5,54.9-31.3,10.2-41-47.4-16.5-54.9Z"/>
        <path class="st3" d="M3947.6,1838.1c38.3,9.5,33.5,39.6,16.5,65.9l-16.5-65.9Z"/>
        <path class="st19" d="M3349.3,1887.5l5.5,60.4c-30.3-17.7-14.5-34.6-5.5-60.4Z"/>
        <g>
          <path class="st3" d="M3695.1,2046.7c10.7,0,42.6-4.1,46.7,8.2-11.1,26.2-58.7,75.7-85.1,79.6-50,7.4-147.3-71.1-115.3-82.3,7.3-2.6,135.2-5.7,153.7-5.5Z"/>
          <path class="st11" d="M3695.1,2057.7c10.7.2,17.6-2.4,24.7,8.2-51.6,68.2-102.3,61.8-159.2,5.5,1-7.4,122.1-14,134.5-13.7Z"/>
        </g>
      </g>
    </g>
  </g>
</svg>