<?xml version="1.0" encoding="utf-8"?>
<!-- Generator: Adobe Illustrator 27.3.1, SVG Export Plug-In . SVG Version: 6.00 Build 0)  -->
<svg version="1.1" xmlns="http://www.w3.org/2000/svg" xmlns:xlink="http://www.w3.org/1999/xlink" x="0px" y="0px"
	 viewBox="0 0 4000 3000" enable-background="new 0 0 4000 3000" xml:space="preserve">
<polygon fill="#AC786F" points="840.871,2584.296 840.871,2640.2 926.28,2640.2 931.715,2590.507 "/>
<polygon fill="#AC786F" points="1249.884,2589.127 1249.884,2639.855 1348.578,2639.855 1351.684,2589.127 "/>
<path fill="#7FC7B0" d="M1941.09,953.766c0,0,80.75-198.769,274.861-284.178s655.318-217.404,992.294,37.269
	s118.019,543.769,118.019,543.769s-111.808,158.135-296.601,186.864S1941.09,953.766,1941.09,953.766z"/>
<path fill="none" stroke="#231F20" stroke-width="3" stroke-miterlimit="10" d="M3071.002,1802.296c0,0,4.227,2.658,11.459,7.599
	c47.003,32.11,220.957,160.635,186.864,282.654c-39.34,140.795-148.559,265.026-487.347,240.18
	c-338.788-24.846-603.296-345.776-603.296-345.776v127.337c0,0,2.588,67.292,70.397,114.914s688.964,482.43,1094.784,175.994
	s-398.919-816.818-398.919-816.818L3071.002,1802.296z"/>
<path fill="none" stroke="#231F20" stroke-width="3" stroke-miterlimit="10" d="M998.489,1164.613
	c0,0-232.933,9.065-273.308-166.112C684.806,823.323,832.33,638.53,951.902,605.919s347.846-65.221,622.707,54.351
	s470.855,3.623,470.855,3.623s364.598-180.135,437.065-113.878c72.468,66.256,119.313,128.889,83.597,185.57
	c-35.717,56.68-88.773,137.43-282.366,68.327s-712.257-320.671-791.454-343.964c-79.197-23.293-707.598-261.92-964.342,278.484
	s793.007,702.94,1209.18,446.713s-319.377,29.505-319.377,29.505S1006.253,1331.98,998.489,1164.613z"/>
<path fill="#323C4E" d="M3049.786,1068.679H1509.453c-17.971,0-32.675-14.704-32.675-32.675V901.032
	c0-17.971,14.704-32.675,32.675-32.675h1540.333c17.971,0,32.675,14.704,32.675,32.675v134.972
	C3082.461,1053.976,3067.758,1068.679,3049.786,1068.679z"/>
<path fill="#A8E5C2" d="M3259.197,1392.715h-77.057c-18.097,0-32.904-14.807-32.904-32.904v-28.917
	c0-18.097,14.807-32.904,32.904-32.904h77.057c18.097,0,32.905,14.807,32.905,32.904v28.917
	C3292.101,1377.908,3277.294,1392.715,3259.197,1392.715z"/>
<path fill="#7FC6B0" d="M2136.754,2283.036l31.058-153.218c0,0-737.103-619.084-803.36-652.212s-538.075-171.853-686.246-118.019
	s-214.428,161.5-123.325,277.449c91.103,115.949,262.955,331.282,596.308,567.321S1937.547,2766.207,2136.754,2283.036z"/>
<path fill="#D3DFDF" d="M750.994,2024.222h-14.331c-22.322,0-40.586-18.264-40.586-40.586v-172.212
	c0-22.322,18.264-40.586,40.586-40.586h14.331c22.322,0,40.586,18.264,40.586,40.586v172.212
	C791.58,2005.958,773.316,2024.222,750.994,2024.222z"/>
<path fill="#FFFFFF" stroke="#231F20" stroke-width="3" stroke-miterlimit="10" d="M3094.764,2177.44H1472.756
	c-47.236,0-85.529-38.292-85.529-85.529V985.461c0-47.236,38.292-85.529,85.529-85.529h1622.008
	c47.236,0,85.529,38.292,85.529,85.529v1106.45C3180.293,2139.147,3142.001,2177.44,3094.764,2177.44z"/>
<path fill="none" stroke="#231F20" stroke-width="3" stroke-miterlimit="10" d="M1792.268,2114.289h-306.945
	c-23.302,0-42.191-18.89-42.191-42.191v-903.253c0-23.301,18.89-42.191,42.191-42.191h306.945c23.302,0,42.191,18.89,42.191,42.191
	v903.253C1834.459,2095.399,1815.569,2114.289,1792.268,2114.289z"/>
<path fill="none" stroke="#231F20" stroke-width="3" stroke-miterlimit="10" d="M3072.881,2114.289H2601.33
	c-23.302,0-42.191-18.89-42.191-42.191v-890.83c0-23.301,18.89-42.191,42.191-42.191h471.551c23.302,0,42.191,18.89,42.191,42.191
	v890.83C3115.072,2095.399,3096.182,2114.289,3072.881,2114.289z"/>
<path fill="none" stroke="#231F20" stroke-width="3" stroke-miterlimit="10" d="M2143.307,1565.603h-242.934
	c-18.679,0-33.822-15.142-33.822-33.822v-272.698c0-18.679,15.142-33.822,33.822-33.822h242.934
	c18.679,0,33.822,15.143,33.822,33.822v272.698C2177.129,1550.46,2161.987,1565.603,2143.307,1565.603z"/>
<path fill="none" stroke="#231F20" stroke-width="3" stroke-miterlimit="10" d="M2143.307,1936.225h-242.934
	c-18.679,0-33.822-15.142-33.822-33.822v-272.697c0-18.679,15.142-33.822,33.822-33.822h242.934
	c18.679,0,33.822,15.142,33.822,33.822v272.697C2177.129,1921.082,2161.987,1936.225,2143.307,1936.225z"/>
<path fill="none" stroke="#231F20" stroke-width="3" stroke-miterlimit="10" d="M2484.942,1936.225h-242.934
	c-18.679,0-33.822-15.142-33.822-33.822v-272.697c0-18.679,15.142-33.822,33.822-33.822h242.934
	c18.679,0,33.822,15.142,33.822,33.822v272.697C2518.764,1921.082,2503.621,1936.225,2484.942,1936.225z"/>
<path fill="none" stroke="#231F20" stroke-width="3" stroke-miterlimit="10" d="M2484.942,1565.603h-242.934
	c-18.679,0-33.822-15.142-33.822-33.822v-272.698c0-18.679,15.142-33.822,33.822-33.822h242.934
	c18.679,0,33.822,15.143,33.822,33.822v272.698C2518.764,1550.46,2503.621,1565.603,2484.942,1565.603z"/>
<path fill="none" stroke="#231F20" stroke-width="3" stroke-miterlimit="10" d="M1860.546,1081.879H1487.96
	c-24.758,0-44.828-20.07-44.828-44.828v-14.387c0-24.758,20.07-44.828,44.828-44.828h372.586c24.758,0,44.828,20.07,44.828,44.828
	v14.387C1905.374,1061.809,1885.304,1081.879,1860.546,1081.879z"/>
<path fill="none" stroke="#231F20" stroke-width="3" stroke-miterlimit="10" d="M2518.621,1085.761h-477.227
	c-19.376,0-35.083-15.707-35.083-35.083v-10.584c0-19.376,15.707-35.083,35.083-35.083h477.227
	c19.375,0,35.083,15.707,35.083,35.083v10.584C2553.704,1070.054,2537.997,1085.761,2518.621,1085.761z"/>
<path fill="#D1DDDD" d="M2745.79,1082.655h-88.605c-12.411,0-22.471-10.061-22.471-22.471v-55.995
	c0-12.41,10.061-22.471,22.471-22.471h88.605c12.411,0,22.471,10.061,22.471,22.471v55.995
	C2768.261,1072.595,2758.2,1082.655,2745.79,1082.655z"/>
<ellipse transform="matrix(0.7071 -0.7071 0.7071 0.7071 62.5166 2211.1606)" fill="none" stroke="#231F20" stroke-width="3" stroke-miterlimit="10" cx="2700.365" cy="1030.116" rx="15.27" ry="15.27"/>
<path fill="none" stroke="#231F20" stroke-width="3" stroke-miterlimit="10" d="M3090.537,1082.655h-219.062
	c-13.55,0-24.535-10.985-24.535-24.535v-56.526c0-13.55,10.985-24.535,24.535-24.535h219.062c13.55,0,24.535,10.985,24.535,24.535
	v56.526C3115.072,1071.671,3104.087,1082.655,3090.537,1082.655z"/>
<path fill="none" stroke="#231F20" stroke-width="3" stroke-miterlimit="10" d="M1768.097,2060.111h-261.708
	c-14.352,0-25.987-11.635-25.987-25.987v-60.178c0-14.352,11.635-25.987,25.987-25.987h261.708
	c14.352,0,25.987,11.635,25.987,25.987v60.178C1794.084,2048.476,1782.449,2060.111,1768.097,2060.111z"/>
<ellipse fill="#343D50" cx="2661.629" cy="1250.626" rx="48.657" ry="47.363"/>
<path fill="#D3DEDE" d="M1740.965,1741.079h-214.174c-13.557,0-24.65-11.092-24.65-24.65v-214.173
	c0-13.557,11.092-24.65,24.65-24.65h214.174c13.557,0,24.65,11.092,24.65,24.65v214.173
	C1765.614,1729.987,1754.522,1741.079,1740.965,1741.079z"/>
<path fill="#81C8B2" d="M1773.802,1341.987h-274.93c-6.6,0-12-5.4-12-12v-132.842c0-6.6,5.4-12,12-12h274.93c6.6,0,12,5.4,12,12
	v132.842C1785.802,1336.587,1780.402,1341.987,1773.802,1341.987z"/>
<path fill="#84C9B2" d="M2691.831,2072.879h-61.957c-10.72,0-19.49-8.771-19.49-19.49v-307.83c0-10.72,8.771-19.49,19.49-19.49
	h61.957c10.72,0,19.49,8.771,19.49,19.49v307.83C2711.322,2064.108,2702.551,2072.879,2691.831,2072.879z"/>
<path fill="#5E657C" d="M2886.768,2072.879h-54.292c-14.251,0-25.911-11.66-25.911-25.911v-166.1
	c0-14.251,11.66-25.911,25.911-25.911h54.292c14.251,0,25.911,11.66,25.911,25.911v166.1
	C2912.679,2061.219,2901.019,2072.879,2886.768,2072.879z"/>
<path fill="#FF8C86" d="M3052.205,2072.879h-74.071c-8.954,0-16.28-7.326-16.28-16.28v-207.619c0-8.954,7.326-16.28,16.28-16.28
	h74.071c8.954,0,16.28,7.326,16.28,16.28v207.619C3068.485,2065.553,3061.159,2072.879,3052.205,2072.879z"/>
<path fill="#343E52" d="M3096.617,1621.507h276.832c18.034,0,32.79,14.755,32.79,32.79v47.005c0,18.034-14.755,32.79-32.79,32.79
	h-276.832c-18.034,0-32.79-14.755-32.79-32.79v-47.005C3063.827,1636.262,3078.582,1621.507,3096.617,1621.507z"/>
<path fill="#7FC7B0" d="M2376.001,2365.857h-167.916c-17.025,0-30.956-13.93-30.956-30.956v-55.073
	c0-17.025,13.93-30.955,30.956-30.955h167.916c17.025,0,30.955,13.93,30.955,30.955v55.073
	C2406.956,2351.927,2393.026,2365.857,2376.001,2365.857z"/>
<path fill="#343E52" d="M685.371,2069.514h-14.331c-22.322,0-40.586-18.264-40.586-40.586v-160.302
	c0-22.322,18.264-40.586,40.586-40.586h14.331c22.322,0,40.586,18.264,40.586,40.586v160.302
	C725.957,2051.25,707.694,2069.514,685.371,2069.514z"/>
<path fill="#D3DDDE" d="M1580.412,803.136H1312.58c-18.161,0-33.019-14.859-33.019-33.019V651.362
	c0-18.161,14.859-33.019,33.019-33.019h267.832c18.161,0,33.019,14.859,33.019,33.019v118.755
	C1613.432,788.277,1598.573,803.136,1580.412,803.136z"/>
<path fill="#D2DEDE" d="M2723.69,626.107h-270.094c-19.674,0-35.771-16.097-35.771-35.771V477.084
	c0-19.674,16.097-35.771,35.771-35.771h270.094c19.674,0,35.771,16.097,35.771,35.771v113.252
	C2759.461,610.01,2743.364,626.107,2723.69,626.107z"/>
<line fill="none" stroke="#231F20" stroke-width="3" stroke-miterlimit="10" x1="1490.236" y1="1020.022" x2="1645.525" y2="1020.022"/>
<line fill="none" stroke="#231F20" stroke-width="3" stroke-miterlimit="10" x1="1492.306" y1="1043.316" x2="1622.749" y2="1043.316"/>
<line fill="none" stroke="#231F20" stroke-width="3" stroke-miterlimit="10" x1="1871.383" y1="1164.613" x2="2033.228" y2="1164.613"/>
<line fill="none" stroke="#231F20" stroke-width="3" stroke-miterlimit="10" x1="1871.383" y1="1191.185" x2="2109.147" y2="1191.185"/>
<line fill="none" stroke="#231F20" stroke-width="3" stroke-miterlimit="10" x1="1512.494" y1="1233.803" x2="1687.452" y2="1233.803"/>
<line fill="none" stroke="#231F20" stroke-width="3" stroke-miterlimit="10" x1="1509.906" y1="1263.567" x2="1614.467" y2="1263.567"/>
<line fill="none" stroke="#231F20" stroke-width="3" stroke-miterlimit="10" x1="1486.871" y1="1398.409" x2="1603.597" y2="1398.409"/>
<line fill="none" stroke="#231F20" stroke-width="3" stroke-miterlimit="10" x1="1625.855" y1="1395.821" x2="1761.473" y2="1395.821"/>
<line fill="none" stroke="#231F20" stroke-width="3" stroke-miterlimit="10" x1="1486.871" y1="1425.843" x2="1693.664" y2="1425.843"/>
<line fill="none" stroke="#231F20" stroke-width="3" stroke-miterlimit="10" x1="1488.683" y1="1793.877" x2="1536.305" y2="1793.877"/>
<line fill="none" stroke="#231F20" stroke-width="3" stroke-miterlimit="10" x1="1568.398" y1="1793.877" x2="1743.356" y2="1793.877"/>
<line fill="none" stroke="#231F20" stroke-width="3" stroke-miterlimit="10" x1="1488.683" y1="1834.77" x2="1704.534" y2="1834.77"/>
<line fill="none" stroke="#231F20" stroke-width="3" stroke-miterlimit="10" x1="1488.683" y1="1874.109" x2="1624.819" y2="1874.109"/>
<line fill="none" stroke="#231F20" stroke-width="3" stroke-miterlimit="10" x1="2249.942" y1="1192.91" x2="2283.76" y2="1192.91"/>
<line fill="none" stroke="#231F20" stroke-width="3" stroke-miterlimit="10" x1="2301.705" y1="1192.91" x2="2327.586" y2="1192.91"/>
<line fill="none" stroke="#231F20" stroke-width="3" stroke-miterlimit="10" x1="1902.441" y1="1499.001" x2="2047.032" y2="1499.001"/>
<line fill="none" stroke="#231F20" stroke-width="3" stroke-miterlimit="10" x1="1902.441" y1="1523.157" x2="2015.974" y2="1523.157"/>
<line fill="none" stroke="#231F20" stroke-width="3" stroke-miterlimit="10" x1="1902.268" y1="1873.074" x2="2047.722" y2="1873.074"/>
<line fill="none" stroke="#231F20" stroke-width="3" stroke-miterlimit="10" x1="1905.892" y1="1899.473" x2="2018.735" y2="1899.473"/>
<line fill="none" stroke="#231F20" stroke-width="3" stroke-miterlimit="10" x1="2249.079" y1="1873.074" x2="2391.427" y2="1873.074"/>
<line fill="none" stroke="#231F20" stroke-width="3" stroke-miterlimit="10" x1="2251.667" y1="1899.473" x2="2359.852" y2="1899.473"/>
<line fill="none" stroke="#231F20" stroke-width="3" stroke-miterlimit="10" x1="2249.597" y1="1499.346" x2="2397.121" y2="1499.346"/>
<line fill="none" stroke="#231F20" stroke-width="3" stroke-miterlimit="10" x1="2249.597" y1="1523.675" x2="2359.852" y2="1523.675"/>
<line fill="none" stroke="#231F20" stroke-width="3" stroke-miterlimit="10" x1="2757.132" y1="1233.285" x2="3057.615" y2="1233.285"/>
<line fill="none" stroke="#231F20" stroke-width="3" stroke-miterlimit="10" x1="2757.132" y1="1269.282" x2="3009.476" y2="1269.282"/>
<line fill="none" stroke="#231F20" stroke-width="3" stroke-miterlimit="10" x1="2610.384" y1="1588.379" x2="2953.572" y2="1588.379"/>
<line fill="none" stroke="#231F20" stroke-width="3" stroke-miterlimit="10" x1="2610.384" y1="1624.613" x2="2891.456" y2="1624.613"/>
<line fill="none" stroke="#231F20" stroke-width="3" stroke-miterlimit="10" x1="2756.873" y1="1710.539" x2="3045.71" y2="1710.539"/>
<line fill="none" stroke="#231F20" stroke-width="3" stroke-miterlimit="10" x1="2754.802" y1="1737.455" x2="3023.452" y2="1737.455"/>
<line fill="none" stroke="#231F20" stroke-width="3" stroke-miterlimit="10" x1="2756.873" y1="1762.819" x2="2889.127" y2="1762.819"/>
<line fill="none" stroke="#231F20" stroke-width="3" stroke-miterlimit="10" x1="2756.873" y1="1788.183" x2="2889.127" y2="1788.183"/>
<line fill="none" stroke="#231F20" stroke-width="3" stroke-miterlimit="10" x1="2764.12" y1="1930.531" x2="2764.12" y2="2072.879"/>
<line fill="none" stroke="#231F20" stroke-width="3" stroke-miterlimit="10" x1="1965.937" y1="2060.111" x2="2391.427" y2="2060.111"/>
<line fill="none" stroke="#231F20" stroke-width="3" stroke-miterlimit="10" x1="2944.945" y1="1019.332" x2="3008.095" y2="1019.332"/>
<line fill="none" stroke="#231F20" stroke-width="3" stroke-miterlimit="10" x1="2946.67" y1="1045.559" x2="2985.32" y2="1045.559"/>
<line fill="none" stroke="#231F20" stroke-width="3" stroke-miterlimit="10" x1="3048.125" y1="1005.184" x2="3048.125" y2="1055.911"/>
<line fill="none" stroke="#231F20" stroke-width="3" stroke-miterlimit="10" x1="3062.964" y1="1007.599" x2="3062.964" y2="1057.292"/>
<polyline fill="none" stroke="#231F20" stroke-width="3" stroke-miterlimit="10" points="2260.467,1307.824 2292.56,1307.824 
	2302.2,1345.919 2314.042,1392.715 2416.273,1392.715 2437.496,1320.247 2333.066,1320.813 2294.372,1321.023 "/>
<path fill="none" stroke="#231F20" stroke-width="3" stroke-miterlimit="10" d="M2334.229,1319.47
	c0.776,16.305,6.988,73.244,6.988,73.244h28.081l-0.906-72.093l35.975-0.195l-12.94,72.288h23.121h1.725l7.813-26.679l-116.518,1.1
	l-5.995-23.691l128.662,1.594"/>
<ellipse fill="none" stroke="#231F20" stroke-width="3" stroke-miterlimit="10" cx="2331.124" cy="1422.608" rx="12.294" ry="13.07"/>
<ellipse fill="none" stroke="#231F20" stroke-width="3" stroke-miterlimit="10" cx="2396.474" cy="1424.161" rx="12.811" ry="13.329"/>
<path fill="#81C7AF" d="M2017.182,1343.022c0,0-46.069,20.446-56.163,39.081s-15.788,34.163-1.035,37.787
	c14.752,3.623,61.598,6.988,81.526,6.729c19.929-0.259,47.622-5.176,47.881-15.011
	C2089.65,1401.773,2078.521,1355.446,2017.182,1343.022z"/>
<ellipse fill="#FFFFFF" stroke="#231F20" stroke-width="3" stroke-miterlimit="10" cx="2020.618" cy="1331.894" rx="24.846" ry="27.693"/>
<path fill="#81C7AF" d="M2017.182,1718.684c0,0-46.069,20.446-56.163,39.081c-10.094,18.635-15.788,34.164-1.035,37.787
	c14.752,3.623,61.598,6.988,81.526,6.729s47.622-5.176,47.881-15.011C2089.65,1777.435,2078.521,1731.108,2017.182,1718.684z"/>
<ellipse fill="#FFFFFF" stroke="#231F20" stroke-width="3" stroke-miterlimit="10" cx="2020.618" cy="1707.555" rx="24.846" ry="27.693"/>
<path fill="#81C7AF" d="M2360.45,1718.684c0,0-46.069,20.446-56.163,39.081c-10.094,18.635-15.788,34.164-1.035,37.787
	c14.752,3.623,61.598,6.988,81.527,6.729s47.622-5.176,47.881-15.011S2421.789,1731.108,2360.45,1718.684z"/>
<ellipse fill="#FFFFFF" stroke="#231F20" stroke-width="3" stroke-miterlimit="10" cx="2363.887" cy="1707.555" rx="24.846" ry="27.693"/>
<ellipse transform="matrix(0.7071 -0.7071 0.7071 0.7071 126.0347 2354.4419)" fill="none" stroke="#231F20" stroke-width="3" stroke-miterlimit="10" cx="2905.08" cy="1025.084" rx="17.599" ry="17.599"/>
<path fill="none" stroke="#231F20" stroke-width="3" stroke-miterlimit="10" d="M2881.363,1057.292c0,0,27.434-32.093,43.998,0"/>
<path fill="#D3DEDE" d="M2611.484,1538.686l86.379-112.843c0,0,55.386-61.598,104.043-7.247
	c48.657,54.351,55.904,75.02,111.29,40.357c55.386-34.663,115.919-75.066,156.065,40.911c2.329,6.729,8.282,52.762-31.575,52.762
	s-404.009,0-404.009,0S2612.584,1555.94,2611.484,1538.686z"/>
<polygon fill="#353E52" points="1002.112,1389.609 926.538,1434.125 906.868,1565.603 791.58,2615.354 1014.018,2615.354 
	1093.215,1696.045 1202.952,2615.354 1423.462,2615.354 1227.798,1377.186 "/>
<line fill="none" stroke="#FFFFFF" stroke-width="3" stroke-miterlimit="10" x1="1026.441" y1="1477.606" x2="906.868" y2="2598.272"/>
<line fill="none" stroke="#FFFFFF" stroke-width="3" stroke-miterlimit="10" x1="1205.023" y1="1502.934" x2="1380.499" y2="2598.272"/>
<polygon fill="#353E52" points="840.871,2641.062 830.777,2743.467 923.95,2743.467 928.091,2640.2 "/>
<path fill="#353E52" d="M1249.884,2639.855l-3.192,104.647h54.092v-25.623l68.586,25.623h127.595c0,0,10.606-16.548-23.121-35.285
	c-15.529-8.627-43.136-9.662-43.136-9.662l-82.13-59.7H1249.884z"/>
<path fill="#D4DFDF" d="M1014.535,1070.75c0,0-23.811-13.113-70.052,3.796c-46.241,16.909-113.533,32.093-122.505,71.433
	c-8.972,39.34,0,94.036,0,94.036l36.752,163.053c0,0,36.752,78.162,69.88,71.433c33.128-6.729,189.797-70.743,189.797-70.743
	l115.949,40.72c0,0,40.893,12.768,58.406-7.247c17.513-20.015,26.83-33.128,21.654-56.249
	c-5.176-23.121-51.418-202.048-51.418-202.048s-13.458-61.598-79.197-79.715C1118.061,1081.103,1033.17,1046.939,1014.535,1070.75z"
	/>
<path fill="none" stroke="#000000" stroke-width="3" stroke-miterlimit="10" d="M925.503,1179.452l40.219,189.068
	c0,0,56.578-18.768,60.719-14.11"/>
<path fill="#BD7E74" d="M1103.043,1341.417c-1.969-5.178-2.038-10.837-2.43-16.309c-0.418-5.845-0.755-11.68-0.619-17.543
	c0.016-0.708,0.141-1.346,0.348-1.916l-41.809-18.358c0,0-40.203-3.796-69.19,2.933c-28.987,6.729-38.17,9.906-38.17,9.906
	l14.548,68.39c0,0,51.401-20.321,68.828-11.867c17.427,8.455,48.959,25.321,48.959,25.321l20.534-38.825
	C1103.642,1342.663,1103.299,1342.09,1103.043,1341.417z"/>
<path fill="#BD7E74" stroke="#231F20" stroke-miterlimit="10" d="M1169.996,1328.356c0,0-6.557-22.948,12.078-33.991
	s63.323-42.791,63.323-42.791s12.941,0.173,17.599,4.486c4.659,4.314,6.212,7.419,3.623,8.627s-33.991,16.737-38.305,26.744
	c-4.313,10.007,11.043-19.152,30.022-16.219c18.98,2.933,31.23,4.141,33.818,10.007c2.588,5.866-0.69,8.109-5.176,9.317
	c-4.486,1.208,10.163-2.909,11.215,2.243c1.052,5.152,3.692,6.8,1.035,9.835c-2.656,3.035-11.56,1.725-11.56,1.725
	s-3.106,3.969,1.553,6.729c4.659,2.761,9.835,11.906-2.933,13.286c-12.768,1.38-57.629,17.427-57.629,17.427
	S1169.824,1332.843,1169.996,1328.356z"/>
<line fill="none" stroke="#000000" stroke-width="3" stroke-miterlimit="10" x1="1198.811" y1="1191.185" x2="1202.952" y2="1282.632"/>
<path fill="none" stroke="#000000" stroke-miterlimit="10" d="M1230.516,1310.024c0,0,29.068-25.887,55.75-15.273"/>
<path fill="none" stroke="#000000" stroke-miterlimit="10" d="M1239.574,1321.541c0,0,19.008-14.337,47.097-10.08"/>
<path fill="none" stroke="#231F20" stroke-width="3" stroke-miterlimit="10" d="M3051.033,1552.626h-422.419
	c-10.068,0-18.229-8.162-18.229-18.229V1383.51c0-10.068,8.162-18.229,18.229-18.229h422.419c10.068,0,18.229,8.161,18.229,18.229
	v150.887C3069.262,1544.465,3061.1,1552.626,3051.033,1552.626z"/>
<path fill="#333B50" d="M1268.173,1350.269l-3.73-1.349l-96.25-34.801l-67.041-24.24l-19.066,104.906l26.658,5.694
	c0,0-2.89-116.38-6.772-111.333"/>
<path fill="#BE8075" d="M991.501,951.954c0,0,0.776,53.833-6.47,76.609c-7.247,22.776-14.494,38.563-14.494,38.563
	s20.705,21.482,38.822,24.587c18.117,3.106,42.187,5.435,57.457,0c15.27-5.435,27.952-19.67,27.952-19.67l-6.729-54.092
	c0,0,17.599,0.776,29.246-8.8s25.364-27.434,23.552-50.469c-1.812-23.034-1.035-93.432-1.035-93.432s-3.623-32.869-8.8-36.234
	s-25.881-23.034-40.634-14.235s-88.773,25.881-89.032,39.599c-0.259,13.717-34.293,53.316-35.458,61.468
	C964.714,924.002,969.76,958.295,991.501,951.954z"/>
<path fill="#353D50" d="M1006.512,917.791c0,0,18.376-13.717,17.513-18.721c-0.863-5.004,0.518-33.473,7.419-37.787
	s6.218-5.349,21.916-6.384c15.698-1.035,41.235-2.761,47.101-8.109s8.972-22.086,8.972-22.086s9.662,11.043,12.768,16.564
	c3.106,5.521,15.27,30.368,21.309,21.137c6.039-9.231,9.404-17.686,6.988-31.317c-2.416-13.631-15.184-31.748-29.332-28.642
	c-14.149,3.106-17.944,2.243-17.944,2.243s4.141-20.015-15.184-15.184c-19.325,4.831-118.364,16.564-126.991,49.52
	c-8.627,32.956,5.251,75.362,5.251,75.362s13.686-16.137,25.203-7.725C1003.018,915.073,1006.512,917.791,1006.512,917.791z"/>
<path fill="none" stroke="#FFFFFF" stroke-width="3" stroke-miterlimit="10" d="M958.366,869.569c0,0,24.939-38.999,42.884-39.517
	c17.945-0.518,58.147,1.208,70.052-0.69c11.906-1.898,28.47-21.223,28.47-21.223"/>
<path fill="#A2615B" d="M1088.038,1017.952v26.917c0,0-0.083-0.018-0.242-0.053c-3.231-0.714-37.842-8.703-47.379-25.311
	c-10.008-17.427-11.56-28.297-11.56-28.297s16.392,24.501,36.579,28.469c20.187,3.969,21.611,0.129,21.611,0.129l1.121-1.51"/>
<path fill="#353D50" d="M988.242,928.012c1.86,2.171,2.489,4.684,1.404,5.615c-1.085,0.93-3.473-0.075-5.334-2.246
	c-1.86-2.171-2.489-4.684-1.404-5.615C983.994,924.836,986.382,925.841,988.242,928.012z"/>
<path fill="none" stroke="#353D50" stroke-width="3" stroke-miterlimit="10" d="M1066.039,953.755c0,0,0.906,13.081,24.07,8.81"/>
<path fill="none" stroke="#353D50" stroke-width="3" stroke-miterlimit="10" d="M1047.146,885.956c0,0,16.564-14.752,28.728,1.035"
	/>
<path fill="none" stroke="#353D50" stroke-width="3" stroke-miterlimit="10" d="M1116.379,888.415c0,0,7.247-10.223,16.305,0"/>
<path fill="none" stroke="#353D50" stroke-width="3" stroke-miterlimit="10" d="M1097.097,902.65l16.047,39.469
	c0,0,2.976,2.976-17.988,0.647"/>
<path fill="#353D50" d="M1068.627,907.524c0,3.907-2.549,7.074-5.694,7.074c-3.145,0-5.694-3.167-5.694-7.074
	c0-3.907,2.549-7.074,5.694-7.074C1066.078,900.45,1068.627,903.617,1068.627,907.524z"/>
<path fill="#353D50" d="M1128.931,908.387c0,4.241-2.395,7.678-5.349,7.678c-2.954,0-5.349-3.438-5.349-7.678
	c0-4.24,2.395-7.678,5.349-7.678C1126.536,900.709,1128.931,904.147,1128.931,908.387z"/>
<path fill="#A2615B" d="M1091.387,1044.869l-3.349-26.397l-1.65,3.703l-0.369,22.227c0,0,2.709,0.856,5.556,0.468"/>
<polygon fill="#D4DFDF" points="1159.471,1316.969 1150.499,1358.034 1226.245,1371.32 1252.861,1344.733 1163.521,1312.43 "/>
<line fill="none" stroke="#000000" stroke-width="3" stroke-miterlimit="10" x1="409.945" y1="2744.502" x2="3548.845" y2="2744.502"/>
</svg>
