<?xml version="1.0" encoding="utf-8"?>
<!-- Generator: Adobe Illustrator 27.3.1, SVG Export Plug-In . SVG Version: 6.00 Build 0)  -->
<svg version="1.1" id="Layer_1" xmlns="http://www.w3.org/2000/svg" xmlns:xlink="http://www.w3.org/1999/xlink" x="0px" y="0px"
	 viewBox="0 0 4000 3000" enable-background="new 0 0 4000 3000" xml:space="preserve">
<path fill="#F2E2CF" d="M1438.102,1082.56L1188.12,974.32c0,0-270.599-38.657-269.31,54.12c1.289,92.777-9.02,230.653-9.02,230.653
	l-9.02,112.105c0,0-20.617,73.448-85.045,105.662c-64.428,32.214-145.608,65.717-207.459,170.091
	c-61.851,104.374-147.541,257.069-66.361,390.436s125.635,210.681,268.666,259.002s1569.474-143.031,1569.474-143.031
	l305.39,259.002c0,0,79.247,19.328,150.762,19.328c71.516,0,291.216,27.06,383.993-45.1
	c92.777-72.16,190.708-143.031,184.265-307.967c-6.443-164.937-186.842-280.908-186.842-280.908s-9.342-124.669-116.615-238.707
	c-107.273-114.038-61.207-239.351-26.416-330.839c34.791-91.488-14.174-215.191-141.742-242.251s-246.116-46.388-391.724,9.02
	c-145.608,55.408-297.659,140.454-297.659,140.454l-627.532,14.174L1438.102,1082.56z"/>
<path fill="#010101" d="M1607.871,1201.43l-63.677,112.213c0,0-75.166,79.462-92.562,123.273
	c-17.396,43.811-27.704,105.018-7.087,143.675c20.617,38.657,49.61,68.294,49.61,68.294l891.963-16.107
	c0,0,51.482-0.28,57.496-12.381c6.013-12.102,20.188-40.45,20.188-40.45s29.208-74.734,0-129.285
	c-29.208-54.55-106.521-154.2-106.521-154.2s-37.358-50.698-41.658-130.367c-4.301-79.669-35.226-129.064-35.226-129.064
	S1556.65,995.582,1607.871,1201.43z"/>
<path fill="none" stroke="#231F20" stroke-width="3" stroke-miterlimit="10" d="M2839.615,1783.108
	c0-114.142,78.737-206.673,175.865-206.673s175.864,92.531,175.864,206.673c0,48.654-14.306,93.382-38.245,128.69"/>
<polygon fill="#000101" points="551.89,1866.331 517.743,1801.258 1246.75,1474.929 1284.762,1549.666 "/>
<path fill="#F6E2DD" d="M707.785,1273.137c0,0-29.194-44.7,2.159-78.831c31.354-34.13,68.624-12.09,77.988,1.311
	c9.364,13.401,17.589,27.076,29,74.325s6.974,65.115,6.974,65.115s-53.921,35.335-100.675,44.643
	c-46.753,9.309-72.345-4.654-80.911-31.126C633.755,1322.102,651.55,1276.952,707.785,1273.137z"/>
<path fill="none" stroke="#231F20" stroke-width="3" stroke-miterlimit="10" d="M702.788,1814.154
	c-26.008-39.72-41.564-90.13-41.564-144.986c0-128.156,84.902-232.047,189.634-232.047s189.634,103.891,189.634,232.047"/>
<path fill="#D6A063" d="M1460.601,938.968c0,0,0.808-34.764,28.516-40.6c27.708-5.836,38.862,20.135,38.929,30.793
	c0.067,10.658-0.537,21.021-11.213,50.26c-10.675,29.239-19.132,36.916-19.132,36.916s-39.524-2.243-66.373-15.397
	c-26.849-13.155-34.915-30.373-30.031-47.593C1406.181,936.127,1430.875,919.266,1460.601,938.968z"/>
<path fill="#ECC5C0" d="M2443.618,880.038c0,0,24.401-17.437,41.524-1.962c17.123,15.475,4.448,36.349-2.885,41.905
	c-7.333,5.556-14.778,10.511-40.024,18.506s-34.545,6.32-34.545,6.32s-17.123-27.538-20.719-52.261
	c-3.596-24.722,4.49-39.009,18.696-44.654C2419.87,842.248,2443.188,850.01,2443.618,880.038z"/>
<path fill="#D59F64" d="M3193.989,1515.089c0,0,20.6-2.127,25.588,13.009c4.988,15.136-9.75,23.331-16.048,24.16
	c-6.298,0.829-12.459,1.259-30.339-2.569c-17.881-3.828-22.889-8.009-22.889-8.009s-0.867-22.375,5.422-38.438
	c6.289-16.063,16.021-21.874,26.474-20.408C3192.649,1484.299,3203.989,1496.923,3193.989,1515.089z"/>
<path fill="#D2847C" d="M3334.735,1637.509c0,0,36.53-3.772,45.376,23.069c8.845,26.841-17.289,41.375-28.458,42.845
	s-22.094,2.232-53.802-4.556c-31.708-6.788-40.59-14.203-40.59-14.203s-1.537-39.679,9.615-68.165
	c11.152-28.486,28.412-38.791,46.948-36.191C3332.359,1582.907,3352.469,1605.294,3334.735,1637.509z"/>
<path fill="#D2847C" d="M2634.727,728.237c0,0,51.533-50.111,99.269-19.094c47.736,31.017,25.904,85.269,10.551,101.082
	c-15.353,15.813-31.23,30.231-88.742,58.085c-57.512,27.853-80.627,27.082-80.627,27.082s-52.776-59.828-71.77-117.624
	c-18.994-57.796-5.472-94.723,26.411-113.133S2621.146,656.671,2634.727,728.237z"/>
<polygon fill="#D1827A" points="535.139,1844.103 804.771,2564.09 1331.473,2316.685 1601.106,2193.949 1371.097,1698.021 
	1289.272,1498.767 "/>
<circle fill="#231F20" cx="777.282" cy="1796.211" r="23.839"/>
<ellipse transform="matrix(0.9239 -0.3827 0.3827 0.9239 -542.9962 552.0503)" fill="#231F20" cx="1116.175" cy="1640.939" rx="23.839" ry="23.838"/>
<polygon fill="#97A691" points="2475.398,1827.352 2579.772,1601.718 3319.547,1926.571 3099.064,2548.949 2336.233,2216.499 "/>
<ellipse fill="#231F20" cx="2760.493" cy="1774.198" rx="37.046" ry="39.623"/>
<ellipse fill="#231F20" cx="3069.75" cy="1908.209" rx="37.046" ry="39.623"/>
<polygon fill="#D59F62" points="1260.924,1034.239 1433.914,1156.975 1325.675,1342.528 1159.449,1351.226 1116.175,1209.162 "/>
<path fill="#97A691" d="M2738.266,1047.125l236.13,275.109c0,0,17.396,7.731-14.496,31.892
	c-31.892,24.161-216.479,172.024-216.479,172.024s-16.429,19.328-40.59-18.362s-179.755-271.565-179.755-271.565
	s25.127-151.084,41.234-171.702C2580.416,1043.903,2575.262,1043.259,2738.266,1047.125z"/>
<path fill="#D1837B" d="M3184.754,959.383l220.002,306.153c0,0,11.295,13.745-29.939,42.952s-169.232,122.414-169.232,122.414
	s-19.329,16.751-33.932-3.866c-14.604-20.617-208.748-294.652-208.748-294.652l26.63-150.762c0,0,23.624-34.791,60.133-33.503
	C3086.179,949.408,3184.754,959.383,3184.754,959.383z"/>
<ellipse fill="#231F20" cx="2624.711" cy="1134.044" rx="30.442" ry="28.187"/>
<ellipse fill="#231F20" cx="3065.615" cy="1035.612" rx="30.442" ry="28.187"/>
<path fill="none" stroke="#231F20" stroke-width="3" stroke-miterlimit="10" d="M2614.778,1123.365c0,0-64.643-41.127-88.804-46.925
	s-86.334-9.342-98.897,15.141s-22.55,61.841,27.275,70.651c49.824,8.81,118.978,1.938,153.339-14.384
	C2642.053,1131.526,2614.778,1123.365,2614.778,1123.365z"/>
<path fill="none" stroke="#231F20" stroke-width="3" stroke-miterlimit="10" d="M3062.018,1019.098
	c0,0-113.286-107.488-157.527-134.548c-44.241-27.06-104.803-54.979-107.381-29.637s65.717,93.171,65.717,93.171
	s124.562,106.557,187.272,90.235"/>
<path fill="#BB806B" d="M1838.846,1323.522c0,0,79.247,154.306-89.877,230.653s-153.662,65.717-153.662,65.717l722.886-23.384
	l-180.722-65.404c0,0-90.522,0.521-73.126-163.771C2081.741,1203.041,1838.846,1323.522,1838.846,1323.522z"/>
<path fill="#BB806B" stroke="#231F20" stroke-width="3" stroke-miterlimit="10" d="M1881.369,868.98
	c0,0-222.278,113.072-242.573,165.259c-20.295,52.187,2.899,153.662,12.564,166.225c9.664,12.563,35.865,37.154,58.63,40.59
	s18.04,3.007,18.04,3.007l16.322,41.234c0,0,26.201,60.992,82.468,94.495c56.267,33.503,101.797,53.69,149.903,45.529
	c48.107-8.161,109.528-41.234,126.28-56.053c16.751-14.818,67.005-81.824,72.589-103.73s8.161-23.194,8.161-23.194
	s33.932-1.718,46.818-13.745c12.885-12.027,40.59-54.995,41.234-80.543c0.644-25.549-8.053-53.575-27.704-63.561
	c-19.651-9.986-120.159-186.969-120.159-186.969S1927.757,816.793,1881.369,868.98z"/>
<path fill="#010101" d="M1951.279,895.569c0,0-16.435,37.518-47.36,60.712c-30.926,23.194-51.543,46.388-94.065,69.583
	c-42.523,23.194-106.951,48.321-122.414,52.187c-15.463,3.866-43.1,16.571-47.033,43.811c-3.933,27.24,5.467,68.294,22.228,86.656
	c16.761,18.362,35.242,32.456,52.036,33.248c16.794,0.792,13.358,2.295,13.358,2.295s-137.447-3.866-137.447-30.496
	c0-26.63-4.725-100.079,0-149.474c4.725-49.395,13.1-195.433,103.3-267.592c90.2-72.16,127.568-115.327,280.908-111.461
	c153.339,3.866,251.915,120.481,266.733,140.454c14.819,19.973,74.737,108.884,74.093,226.788
	c-0.644,117.904-30.926,172.883-55.838,181.473c-24.912,8.59-39.087,3.436-39.087,3.436l-2.353-1.571
	c0,0,47.882-32.807,53.466-87.563c5.584-54.756-52.402-74.514-52.402-74.514s-106.736-28.349-149.259-64.428
	C2027.621,973.032,1980.6,943.096,1951.279,895.569z"/>
<path fill="none" stroke="#231F20" stroke-width="3" stroke-miterlimit="10" d="M1597.025,1146.989l-32.214,73.019
	c0,0-22.979,50.039-139.595,166.01c-116.615,115.971-13.53,208.748-13.53,208.748"/>
<path fill="none" stroke="#231F20" stroke-width="3" stroke-miterlimit="10" d="M2292.1,1057.433c0,0,31.892,164.292,81.18,206.815
	s115.971,135.299,115.971,135.299s60.885,94.33,8.698,196.961"/>
<path fill="#010101" d="M1780.216,1068.815c0,0-14.389,7.731-12.456,15.033c1.933,7.302,9.02,11.382,15.033,9.02
	s21.261-8.376,32.859-9.02c11.597-0.644,53.475,9.691,53.475,9.691s24.483,4.269,22.979-8.617
	c-1.503-12.886-12.456-23.409-24.698-27.275C1855.168,1053.782,1823.061,1039.93,1780.216,1068.815z"/>
<path fill="#010101" d="M2045.876,1057.648c0,0-30.926,9.664-29.207,23.194c1.718,13.53,9.02,15.033,20.402,12.886
	c11.382-2.148,33.717-12.886,55.408-8.161s42.093,7.517,42.093,7.517s16.107-8.161-1.289-20.832
	C2115.888,1059.581,2096.989,1044.118,2045.876,1057.648z"/>
<path fill="none" stroke="#231F20" stroke-width="3" stroke-miterlimit="10" d="M1951.279,1158.586c0,0-37.696,96.857,14.169,85.475
	"/>
<path fill="none" stroke="#231F20" stroke-width="3" stroke-miterlimit="10" d="M1892,1283.577c0,0,59.274,90.844,121.125,0"/>
<ellipse fill="#231F20" cx="1835.786" cy="1139.579" rx="25.932" ry="32.858"/>
<ellipse fill="#231F20" cx="2071.594" cy="1139.579" rx="25.932" ry="32.858"/>
<polyline fill="#FFFFFF" stroke="#231F20" stroke-width="3" stroke-miterlimit="10" points="1694.097,1225.376 1694.097,1262.1 
	1704.835,1263.818 1706.553,1229.672 "/>
<circle fill="#FFFFFF" stroke="#231F20" stroke-width="3" stroke-miterlimit="10" cx="1698.715" cy="1303.442" r="40.912"/>
<polyline fill="#FFFFFF" stroke="#231F20" stroke-width="3" stroke-miterlimit="10" points="2204.37,1225.376 2204.37,1262.1 
	2215.108,1263.818 2216.826,1229.672 "/>
<circle fill="#FFFFFF" stroke="#231F20" stroke-width="3" stroke-miterlimit="10" cx="2208.987" cy="1303.442" r="40.912"/>
<path fill="#F8E5E1" d="M1444.545,1642.12l-109.206,157.527c0,0-118.87,200.372-158.816,336.96
	c-39.946,136.588-61.851,238.385-15.463,313.122c46.388,74.737,113.04,119.192,208.571,114.36
	c95.531-4.832,212.79-115.649,212.79-115.649l746.08,1.289c0,0,128.857,112.176,247.727,114.718s187.486-116.329,195.218-187.844
	s-1.933-160.427-57.986-290.894c-56.052-130.467-214.546-406.865-214.546-406.865s-86.238-139.508-221.311-142.709
	c-135.074-3.201-615.613,0-615.613,0S1531.523,1527.116,1444.545,1642.12z"/>
<path fill="none" stroke="#231F20" stroke-width="3" stroke-miterlimit="10" d="M1329.862,2154.648
	c0,0,168.021-125.573,219.833-137.043c2.352-0.521,4.464-0.806,6.311-0.834c42.523-0.644,110.817,36.724,115.971,54.764
	c5.154,18.04,54.12,100.508,50.898,124.991c-3.221,24.483,21.583,69.583-140.454,251.915"/>
<path fill="none" stroke="#231F20" stroke-width="3" stroke-miterlimit="10" d="M1546.664,2056.555l2.094-39.793
	c0,0,38.174-1.764,39.623,2.585c1.45,4.349-32.649,40.222-42.523,37.207"/>
<path fill="none" stroke="#231F20" stroke-width="3" stroke-miterlimit="10" d="M1715.477,2165.173l-41.997,43.809l48.863,11.791
	C1722.344,2220.773,1725.277,2187.915,1715.477,2165.173z"/>
<path fill="none" stroke="#231F20" stroke-width="3" stroke-miterlimit="10" d="M1573.401,1890.491
	c0,0-27.371,119.617-25.283,138.411"/>
<path fill="none" stroke="#231F20" stroke-width="3" stroke-miterlimit="10" d="M2572.363,2158.191
	c0,0-165.688-137.554-208.211-140.991c-42.523-3.436-68.724-13.745-112.964,38.228s-62.496,129.823-62.496,129.823
	s-7.731,74.415,33.825,139.165c41.556,64.75,105.985,125.313,105.985,125.313"/>
<path fill="none" stroke="#231F20" stroke-width="3" stroke-miterlimit="10" d="M2314.757,2015.697c0,0,39.301,41.019,44.885,42.093
	c5.584,1.074,2.786-40.734,2.786-40.734S2322.059,2007.536,2314.757,2015.697z"/>
<path fill="none" stroke="#231F20" stroke-width="3" stroke-miterlimit="10" d="M2193.417,2219.935c0,0,37.583-8.376,39.946-10.523
	c2.362-2.147-38.179-46.656-38.61-45.3S2179.672,2213.277,2193.417,2219.935z"/>
<path fill="none" stroke="#231F20" stroke-width="3" stroke-miterlimit="10" d="M2338.943,1890.062
	c0,0,24.703,113.729,18.766,137.877"/>
<path fill="#010101" d="M2081.636,2067.025h-249.771c-13.878,0-25.232-11.355-25.232-25.232v-436.64
	c0-13.878,11.355-25.232,25.232-25.232h249.771c13.878,0,25.232,11.354,25.232,25.232v436.64
	C2106.868,2055.67,2095.513,2067.025,2081.636,2067.025z"/>
<path fill="#BFBFBF" d="M1847.845,1636.214h-5.756c-3.91,0-7.108-3.199-7.108-7.108v-5.756c0-3.91,3.199-7.108,7.108-7.108h5.756
	c3.91,0,7.108,3.199,7.108,7.108v5.756C1854.953,1633.016,1851.755,1636.214,1847.845,1636.214z"/>
<path fill="#BFBFBF" d="M1891.791,1637.396h-6.778c-4.603,0-8.37-3.766-8.37-8.369v-6.777c0-4.603,3.766-8.37,8.37-8.37h6.778
	c4.603,0,8.369,3.766,8.369,8.37v6.777C1900.161,1633.629,1896.394,1637.396,1891.791,1637.396z"/>
<path fill="#BB806B" stroke="#231F20" stroke-width="3" stroke-miterlimit="10" d="M1548.005,2060.582
	c0,0,22.39-11.167,49.02-49.825c26.63-38.657,52.831-112.964,72.16-126.28s97.502-61.005,97.502-61.005l39.945-24.469v67.865
	l-69.153,19.328l173.098-46.388c0,0,47.033-7.302,44.885,21.906c-2.148,29.208-40.375,35.65-40.375,35.65l-147.541,39.301
	c0,0,158.064-49.61,170.306-41.234c12.241,8.376,23.194,39.731,3.436,49.18c-19.758,9.449-150.977,48.106-150.977,48.106
	s146.467-58.737,159.997-24.59c13.53,34.147-56.482,51.435-56.482,51.435l-94.065,30.037c0,0,99.649-37.124,108.24-22.735
	c8.59,14.389,14.174,24.268-14.174,40.16c-28.348,15.892-97.501,39.086-97.501,39.086s-47.999,22.443-58.63,36.939
	c-10.631,14.496-23.703,23.673-23.703,23.673l-40.511,44.192C1673.48,2210.915,1582.312,2191.157,1548.005,2060.582z"/>
<path fill="#BB806B" stroke="#231F20" stroke-width="3" stroke-miterlimit="10" d="M2359.642,2057.79
	c0,0-11.597,64.321-44.885,96.213c-33.288,31.892-72.98,54.764-78.71,55.73c-5.73,0.966-61.851-67.005-61.851-67.005
	s-72.482-46.388-120.481-58.63c-47.999-12.241-65.395-31.892-60.563-47.355c4.832-15.463,19.329-32.273,117.582,12.856
	l-112.105-37.983l-31.57-15.141c0,0-20.295-29.637,2.255-36.402c22.55-6.765,149.151,30.603,149.151,30.603
	s-166.457-38.335-161.724-61.529c4.734-23.194-0.421-39.946,44.894-30.281c45.315,9.664,136.588,35.006,136.588,35.006
	l-161.071-45.1c0,0-48.966-29.637,8.59-49.395c0,0,71.838,4.725,184.909,46.281l-63.784-24.161v-61.207l73.77,46.066
	c0,0,55.408,22.55,81.502,76.026C2288.234,1975.859,2315.079,2036.636,2359.642,2057.79z"/>
<path fill="#EEC9C6" d="M1033.492,917.624c0,0,38.013-148.185,162.359-145.608c124.347,2.577,146.252,124.991,135.944,170.735
	c-10.308,45.744-23.194,89.555-97.931,204.238c-74.737,114.682-118.548,139.165-118.548,139.165s-166.869-48.966-268.666-132.078
	s-119.192-164.937-81.18-233.875S925.897,803.585,1033.492,917.624z"/>
<path fill="none" stroke="#231F20" stroke-width="3" stroke-miterlimit="10" d="M1100.94,1739.22"/>
<path fill="none" stroke="#231F20" stroke-width="3" stroke-miterlimit="10" d="M774.82,1804.162
	c-26.008-39.72-41.564-90.13-41.564-144.986c0-128.156,84.902-232.047,189.634-232.047s189.634,103.891,189.634,232.047"/>
<path fill="none" stroke="#231F20" stroke-width="3" stroke-miterlimit="10" d="M774.82,1804.162"/>
<path fill="none" stroke="#231F20" stroke-width="3" stroke-miterlimit="10" d="M2767.947,1774.379
	c0-114.142,78.737-206.673,175.864-206.673s175.865,92.531,175.865,206.673c0,48.654-14.306,93.382-38.245,128.69"/>
<polyline fill="#010101" points="1618.072,1191.229 1590.395,1201.788 1556.237,1292.42 1622.797,1191.229 "/>
</svg>
